G04 #@! TF.GenerationSoftware,KiCad,Pcbnew,(6.0.6)*
G04 #@! TF.CreationDate,2022-10-30T23:00:03-04:00*
G04 #@! TF.ProjectId,isaacCart,69736161-6343-4617-9274-2e6b69636164,rev?*
G04 #@! TF.SameCoordinates,Original*
G04 #@! TF.FileFunction,Soldermask,Top*
G04 #@! TF.FilePolarity,Negative*
%FSLAX46Y46*%
G04 Gerber Fmt 4.6, Leading zero omitted, Abs format (unit mm)*
G04 Created by KiCad (PCBNEW (6.0.6)) date 2022-10-30 23:00:03*
%MOMM*%
%LPD*%
G01*
G04 APERTURE LIST*
G04 Aperture macros list*
%AMRoundRect*
0 Rectangle with rounded corners*
0 $1 Rounding radius*
0 $2 $3 $4 $5 $6 $7 $8 $9 X,Y pos of 4 corners*
0 Add a 4 corners polygon primitive as box body*
4,1,4,$2,$3,$4,$5,$6,$7,$8,$9,$2,$3,0*
0 Add four circle primitives for the rounded corners*
1,1,$1+$1,$2,$3*
1,1,$1+$1,$4,$5*
1,1,$1+$1,$6,$7*
1,1,$1+$1,$8,$9*
0 Add four rect primitives between the rounded corners*
20,1,$1+$1,$2,$3,$4,$5,0*
20,1,$1+$1,$4,$5,$6,$7,0*
20,1,$1+$1,$6,$7,$8,$9,0*
20,1,$1+$1,$8,$9,$2,$3,0*%
G04 Aperture macros list end*
%ADD10C,7.000000*%
%ADD11RoundRect,0.250000X0.312500X0.625000X-0.312500X0.625000X-0.312500X-0.625000X0.312500X-0.625000X0*%
%ADD12R,1.300000X6.000000*%
%ADD13R,1.000000X5.500000*%
%ADD14RoundRect,0.250000X-0.450000X-0.425000X0.450000X-0.425000X0.450000X0.425000X-0.450000X0.425000X0*%
%ADD15RoundRect,0.150000X-0.150000X-0.587500X0.150000X-0.587500X0.150000X0.587500X-0.150000X0.587500X0*%
%ADD16RoundRect,0.150000X-0.587500X-0.150000X0.587500X-0.150000X0.587500X0.150000X-0.587500X0.150000X0*%
G04 APERTURE END LIST*
D10*
X128691240Y-123993407D03*
D11*
X112902500Y-95370000D03*
X109977500Y-95370000D03*
D12*
X105291240Y-135183407D03*
D13*
X106941240Y-134933407D03*
X108441240Y-134933407D03*
X109941240Y-134933407D03*
X111441240Y-134933407D03*
X112941240Y-134933407D03*
X114441240Y-134933407D03*
X115941240Y-134933407D03*
X117441240Y-134933407D03*
X118941240Y-134933407D03*
X120441240Y-134933407D03*
X121941240Y-134933407D03*
X123441240Y-134933407D03*
X124941240Y-134933407D03*
X126441240Y-134933407D03*
X127941240Y-134933407D03*
X129441240Y-134933407D03*
X130941240Y-134933407D03*
X132441240Y-134933407D03*
X133941240Y-134933407D03*
X135441240Y-134933407D03*
X136941240Y-134933407D03*
X138441240Y-134933407D03*
X139941240Y-134933407D03*
X141441240Y-134933407D03*
X142941240Y-134933407D03*
X144441240Y-134933407D03*
X145941240Y-134933407D03*
X147441240Y-134933407D03*
X148941240Y-134933407D03*
X150441240Y-134933407D03*
D12*
X152091240Y-135183407D03*
D14*
X110090000Y-89120000D03*
X112790000Y-89120000D03*
D15*
X137565000Y-94907500D03*
X136295000Y-94907500D03*
X135025000Y-94907500D03*
X133755000Y-94907500D03*
D16*
X132002500Y-96665000D03*
X132002500Y-97935000D03*
X132002500Y-99205000D03*
X132002500Y-100475000D03*
X132002500Y-101745000D03*
X132002500Y-103015000D03*
X132002500Y-104285000D03*
X132002500Y-105555000D03*
X132002500Y-106825000D03*
D15*
X133755000Y-108582500D03*
X135025000Y-108582500D03*
X136295000Y-108582500D03*
X137565000Y-108582500D03*
X138835000Y-108582500D03*
X140105000Y-108582500D03*
X141375000Y-108582500D03*
D16*
X143127500Y-106825000D03*
X143127500Y-105555000D03*
X143127500Y-104285000D03*
X143127500Y-103015000D03*
X143127500Y-101745000D03*
X143127500Y-100475000D03*
X143127500Y-99205000D03*
X143127500Y-97935000D03*
X143127500Y-96665000D03*
D15*
X141375000Y-94907500D03*
X140105000Y-94907500D03*
X138835000Y-94907500D03*
M02*
