M48
; DRILL file {KiCad (6.0.6)} date Sat Nov  5 17:08:00 2022
; FORMAT={-:-/ absolute / metric / decimal}
; #@! TF.CreationDate,2022-11-05T17:08:00-04:00
; #@! TF.GenerationSoftware,Kicad,Pcbnew,(6.0.6)
; #@! TF.FileFunction,Plated,1,2,PTH
FMAT,2
METRIC
; #@! TA.AperFunction,Plated,PTH,ViaDrill
T1C0.400
%
G90
G05
T1
X114.44Y-104.12
X114.44Y-124.87
X115.94Y-102.87
X115.94Y-123.87
X117.44Y-101.62
X117.44Y-122.87
X118.94Y-100.37
X118.94Y-121.87
X120.44Y-99.12
X120.44Y-120.87
X121.94Y-97.855
X121.94Y-119.87
X123.44Y-96.585
X123.44Y-118.87
X125.19Y-130.62
X129.94Y-130.62
X130.69Y-92.87
X134.44Y-115.37
X134.465Y-117.37
X135.44Y-128.12
X135.69Y-129.62
X136.19Y-121.62
X140.94Y-104.62
X145.529Y-104.531
X147.94Y-100.37
X148.69Y-112.37
X148.965Y-99.12
X149.69Y-97.87
X150.44Y-96.62
X151.44Y-95.37
T0
M30
