G04 #@! TF.GenerationSoftware,KiCad,Pcbnew,(6.0.6)*
G04 #@! TF.CreationDate,2022-10-30T23:00:03-04:00*
G04 #@! TF.ProjectId,isaacCart,69736161-6343-4617-9274-2e6b69636164,rev?*
G04 #@! TF.SameCoordinates,Original*
G04 #@! TF.FileFunction,Copper,L2,Bot*
G04 #@! TF.FilePolarity,Positive*
%FSLAX46Y46*%
G04 Gerber Fmt 4.6, Leading zero omitted, Abs format (unit mm)*
G04 Created by KiCad (PCBNEW (6.0.6)) date 2022-10-30 23:00:03*
%MOMM*%
%LPD*%
G01*
G04 APERTURE LIST*
G04 #@! TA.AperFunction,ViaPad*
%ADD10C,0.800000*%
G04 #@! TD*
G04 #@! TA.AperFunction,Conductor*
%ADD11C,0.250000*%
G04 #@! TD*
G04 APERTURE END LIST*
D10*
X138940000Y-88620000D03*
X107940000Y-91620000D03*
X135440000Y-100620000D03*
X130190000Y-93370000D03*
X114440000Y-103620000D03*
X114440000Y-114370000D03*
X115928590Y-102299913D03*
X115940000Y-114370000D03*
X117440000Y-101020500D03*
X117440000Y-114370000D03*
X118940000Y-114370000D03*
X118940000Y-99750500D03*
X120440000Y-98370000D03*
X120440000Y-114370000D03*
X121940000Y-97210500D03*
X121940000Y-114370000D03*
X123440000Y-114370000D03*
X123440000Y-95870000D03*
X124690000Y-114370000D03*
X140440000Y-96620000D03*
X132690000Y-117620000D03*
X140690000Y-98120000D03*
X139940000Y-103120000D03*
X133690000Y-119120000D03*
X141190000Y-101020500D03*
X134690000Y-121120000D03*
X134940000Y-93120000D03*
X135690000Y-122620000D03*
X141440000Y-92145500D03*
X135690000Y-128870000D03*
X135690000Y-130370000D03*
X136190000Y-93120000D03*
X136690000Y-111120000D03*
X150190000Y-119870000D03*
D11*
X122190000Y-91620000D02*
X125940000Y-87870000D01*
X138190000Y-87870000D02*
X138940000Y-88620000D01*
X107940000Y-91620000D02*
X122190000Y-91620000D01*
X125940000Y-87870000D02*
X138190000Y-87870000D01*
X130190000Y-93370000D02*
X130190000Y-96620000D01*
X134190000Y-99370000D02*
X135440000Y-100620000D01*
X132940000Y-99370000D02*
X134190000Y-99370000D01*
X130190000Y-96620000D02*
X132940000Y-99370000D01*
X114440000Y-103620000D02*
X114440000Y-114370000D01*
X115928590Y-114108590D02*
X115940000Y-114120000D01*
X115940000Y-114120000D02*
X115940000Y-114370000D01*
X115928590Y-102299913D02*
X115928590Y-114108590D01*
X117440000Y-114370000D02*
X117440000Y-101020500D01*
X118940000Y-99750500D02*
X118940000Y-113620000D01*
X118940000Y-113620000D02*
X118940000Y-114370000D01*
X120440000Y-98370000D02*
X120440000Y-114120000D01*
X120440000Y-114120000D02*
X120440000Y-114370000D01*
X121940000Y-113870000D02*
X121940000Y-114370000D01*
X121940000Y-97210500D02*
X121940000Y-113870000D01*
X123440000Y-95870000D02*
X123440000Y-114120000D01*
X123440000Y-114120000D02*
X123440000Y-114370000D01*
X139940000Y-99120000D02*
X139940000Y-97120000D01*
X139940000Y-97120000D02*
X140440000Y-96620000D01*
X124690000Y-114370000D02*
X139940000Y-99120000D01*
X140690000Y-99870000D02*
X140690000Y-98120000D01*
X132690000Y-117620000D02*
X132690000Y-107870000D01*
X132690000Y-107870000D02*
X140690000Y-99870000D01*
X139440000Y-103120000D02*
X139940000Y-103120000D01*
X133690000Y-119120000D02*
X133690000Y-108870000D01*
X133690000Y-108870000D02*
X139440000Y-103120000D01*
X134690000Y-109620000D02*
X134690000Y-121120000D01*
X140940000Y-101270500D02*
X140940000Y-103370000D01*
X140940000Y-103370000D02*
X134690000Y-109620000D01*
X141190000Y-101020500D02*
X140940000Y-101270500D01*
X134440000Y-92620000D02*
X134940000Y-93120000D01*
X110440000Y-106370000D02*
X124190000Y-92620000D01*
X124190000Y-92620000D02*
X134440000Y-92620000D01*
X110440000Y-116870000D02*
X110440000Y-106370000D01*
X127644076Y-116870000D02*
X110440000Y-116870000D01*
X133394076Y-122620000D02*
X127644076Y-116870000D01*
X135690000Y-122620000D02*
X133394076Y-122620000D01*
X141440000Y-92145500D02*
X140164500Y-90870000D01*
X140164500Y-90870000D02*
X124690000Y-90870000D01*
X135190000Y-128370000D02*
X135690000Y-128870000D01*
X124690000Y-90870000D02*
X108440000Y-107120000D01*
X108440000Y-128370000D02*
X135190000Y-128370000D01*
X108440000Y-107120000D02*
X108440000Y-128370000D01*
X143190000Y-102370000D02*
X135758198Y-109801802D01*
X141440000Y-92870000D02*
X143190000Y-94620000D01*
X139190000Y-127370000D02*
X136190000Y-130370000D01*
X136190000Y-93120000D02*
X136440000Y-92870000D01*
X143190000Y-94620000D02*
X143190000Y-102370000D01*
X136440000Y-92870000D02*
X141440000Y-92870000D01*
X136190000Y-130370000D02*
X135690000Y-130370000D01*
X135758198Y-109801802D02*
X135758198Y-111213503D01*
X139190000Y-114645305D02*
X139190000Y-127370000D01*
X135758198Y-111213503D02*
X139190000Y-114645305D01*
X136690000Y-111120000D02*
X137190000Y-111120000D01*
X145940000Y-119870000D02*
X150190000Y-119870000D01*
X137190000Y-111120000D02*
X145940000Y-119870000D01*
G04 #@! TA.AperFunction,Conductor*
G36*
X149838621Y-78723502D02*
G01*
X149885114Y-78777158D01*
X149896500Y-78829500D01*
X149896500Y-80786377D01*
X149896498Y-80787147D01*
X149896024Y-80864721D01*
X149898491Y-80873352D01*
X149904150Y-80893153D01*
X149907728Y-80909915D01*
X149911920Y-80939187D01*
X149915634Y-80947355D01*
X149915634Y-80947356D01*
X149922548Y-80962562D01*
X149928996Y-80980086D01*
X149936051Y-81004771D01*
X149940843Y-81012365D01*
X149940844Y-81012368D01*
X149951830Y-81029780D01*
X149959969Y-81044863D01*
X149972208Y-81071782D01*
X149978069Y-81078584D01*
X149988970Y-81091235D01*
X150000073Y-81106239D01*
X150013776Y-81127958D01*
X150020501Y-81133897D01*
X150020504Y-81133901D01*
X150035938Y-81147532D01*
X150047982Y-81159724D01*
X150061427Y-81175327D01*
X150061430Y-81175329D01*
X150067287Y-81182127D01*
X150074816Y-81187007D01*
X150074817Y-81187008D01*
X150088835Y-81196094D01*
X150103709Y-81207385D01*
X150116217Y-81218431D01*
X150122951Y-81224378D01*
X150149711Y-81236942D01*
X150164691Y-81245263D01*
X150181983Y-81256471D01*
X150181988Y-81256473D01*
X150189515Y-81261352D01*
X150198108Y-81263922D01*
X150198113Y-81263924D01*
X150214120Y-81268711D01*
X150231564Y-81275372D01*
X150246676Y-81282467D01*
X150246678Y-81282468D01*
X150254800Y-81286281D01*
X150263667Y-81287662D01*
X150263668Y-81287662D01*
X150273310Y-81289163D01*
X150284017Y-81290830D01*
X150300732Y-81294613D01*
X150320466Y-81300515D01*
X150320472Y-81300516D01*
X150329066Y-81303086D01*
X150338037Y-81303141D01*
X150338038Y-81303141D01*
X150348097Y-81303202D01*
X150363506Y-81303296D01*
X150364289Y-81303329D01*
X150365386Y-81303500D01*
X150396377Y-81303500D01*
X150397147Y-81303502D01*
X150470785Y-81303952D01*
X150470786Y-81303952D01*
X150474721Y-81303976D01*
X150476065Y-81303592D01*
X150477410Y-81303500D01*
X153770500Y-81303500D01*
X153838621Y-81323502D01*
X153885114Y-81377158D01*
X153896500Y-81429500D01*
X153896500Y-129960500D01*
X153876498Y-130028621D01*
X153822842Y-130075114D01*
X153770500Y-130086500D01*
X153313623Y-130086500D01*
X153312853Y-130086498D01*
X153312037Y-130086493D01*
X153235279Y-130086024D01*
X153212918Y-130092415D01*
X153206847Y-130094150D01*
X153190085Y-130097728D01*
X153160813Y-130101920D01*
X153152645Y-130105634D01*
X153152644Y-130105634D01*
X153137438Y-130112548D01*
X153119914Y-130118996D01*
X153095229Y-130126051D01*
X153087635Y-130130843D01*
X153087632Y-130130844D01*
X153070220Y-130141830D01*
X153055137Y-130149969D01*
X153028218Y-130162208D01*
X153021416Y-130168069D01*
X153008765Y-130178970D01*
X152993761Y-130190073D01*
X152972042Y-130203776D01*
X152966103Y-130210501D01*
X152966099Y-130210504D01*
X152952468Y-130225938D01*
X152940276Y-130237982D01*
X152924673Y-130251427D01*
X152924671Y-130251430D01*
X152917873Y-130257287D01*
X152912993Y-130264816D01*
X152912992Y-130264817D01*
X152903906Y-130278835D01*
X152892615Y-130293709D01*
X152881569Y-130306217D01*
X152875622Y-130312951D01*
X152869312Y-130326391D01*
X152863058Y-130339711D01*
X152854737Y-130354691D01*
X152843529Y-130371983D01*
X152843527Y-130371988D01*
X152838648Y-130379515D01*
X152836078Y-130388108D01*
X152836076Y-130388113D01*
X152831289Y-130404120D01*
X152824628Y-130421564D01*
X152817533Y-130436676D01*
X152813719Y-130444800D01*
X152812338Y-130453667D01*
X152812338Y-130453668D01*
X152809170Y-130474015D01*
X152805387Y-130490732D01*
X152799485Y-130510466D01*
X152799484Y-130510472D01*
X152796914Y-130519066D01*
X152796748Y-130546342D01*
X152796704Y-130553497D01*
X152796671Y-130554289D01*
X152796500Y-130555386D01*
X152796500Y-130586377D01*
X152796498Y-130587147D01*
X152796024Y-130664721D01*
X152796408Y-130666065D01*
X152796500Y-130667410D01*
X152796500Y-132494000D01*
X152776498Y-132562121D01*
X152722842Y-132608614D01*
X152670500Y-132620000D01*
X151566000Y-132620000D01*
X151497879Y-132599998D01*
X151451386Y-132546342D01*
X151440000Y-132494000D01*
X151440000Y-131120000D01*
X136626894Y-131120000D01*
X136558773Y-131099998D01*
X136512280Y-131046342D01*
X136502176Y-130976068D01*
X136531670Y-130911488D01*
X136562754Y-130885547D01*
X136574534Y-130878580D01*
X136581362Y-130874542D01*
X136595683Y-130860221D01*
X136610717Y-130847380D01*
X136620694Y-130840131D01*
X136627107Y-130835472D01*
X136655298Y-130801395D01*
X136663288Y-130792616D01*
X139582247Y-127873657D01*
X139590537Y-127866113D01*
X139597018Y-127862000D01*
X139643659Y-127812332D01*
X139646413Y-127809491D01*
X139666135Y-127789769D01*
X139668619Y-127786567D01*
X139676317Y-127777555D01*
X139701161Y-127751098D01*
X139706586Y-127745321D01*
X139716347Y-127727566D01*
X139727198Y-127711047D01*
X139739614Y-127695041D01*
X139757174Y-127654463D01*
X139762391Y-127643813D01*
X139783695Y-127605060D01*
X139788733Y-127585437D01*
X139795137Y-127566734D01*
X139800033Y-127555420D01*
X139800033Y-127555419D01*
X139803181Y-127548145D01*
X139804420Y-127540322D01*
X139804423Y-127540312D01*
X139810099Y-127504476D01*
X139812505Y-127492856D01*
X139821528Y-127457711D01*
X139821528Y-127457710D01*
X139823500Y-127450030D01*
X139823500Y-127429776D01*
X139825051Y-127410065D01*
X139825702Y-127405958D01*
X139828220Y-127390057D01*
X139824059Y-127346038D01*
X139823500Y-127334181D01*
X139823500Y-114724072D01*
X139824027Y-114712889D01*
X139825702Y-114705396D01*
X139823562Y-114637305D01*
X139823500Y-114633348D01*
X139823500Y-114605449D01*
X139822996Y-114601458D01*
X139822063Y-114589616D01*
X139821328Y-114566206D01*
X139820674Y-114545416D01*
X139818462Y-114537802D01*
X139818461Y-114537797D01*
X139815023Y-114525964D01*
X139811012Y-114506600D01*
X139809467Y-114494369D01*
X139808474Y-114486508D01*
X139805557Y-114479141D01*
X139805556Y-114479136D01*
X139792198Y-114445397D01*
X139788354Y-114434170D01*
X139778230Y-114399327D01*
X139776018Y-114391712D01*
X139765707Y-114374277D01*
X139757012Y-114356529D01*
X139749552Y-114337688D01*
X139723564Y-114301918D01*
X139717048Y-114291998D01*
X139698580Y-114260770D01*
X139698578Y-114260767D01*
X139694542Y-114253943D01*
X139680221Y-114239622D01*
X139667380Y-114224588D01*
X139660131Y-114214611D01*
X139655472Y-114208198D01*
X139621395Y-114180007D01*
X139612616Y-114172017D01*
X136428603Y-110988003D01*
X136394577Y-110925691D01*
X136391698Y-110898908D01*
X136391698Y-110116396D01*
X136411700Y-110048275D01*
X136428603Y-110027301D01*
X143582247Y-102873657D01*
X143590537Y-102866113D01*
X143597018Y-102862000D01*
X143643659Y-102812332D01*
X143646413Y-102809491D01*
X143666134Y-102789770D01*
X143668612Y-102786575D01*
X143676318Y-102777553D01*
X143701158Y-102751101D01*
X143706586Y-102745321D01*
X143716346Y-102727568D01*
X143727199Y-102711045D01*
X143734753Y-102701306D01*
X143739613Y-102695041D01*
X143757176Y-102654457D01*
X143762383Y-102643827D01*
X143783695Y-102605060D01*
X143785666Y-102597383D01*
X143785668Y-102597378D01*
X143788732Y-102585442D01*
X143795138Y-102566730D01*
X143800033Y-102555419D01*
X143803181Y-102548145D01*
X143804421Y-102540317D01*
X143804423Y-102540310D01*
X143810099Y-102504476D01*
X143812505Y-102492856D01*
X143821528Y-102457711D01*
X143821528Y-102457710D01*
X143823500Y-102450030D01*
X143823500Y-102429776D01*
X143825051Y-102410065D01*
X143826980Y-102397886D01*
X143828220Y-102390057D01*
X143824059Y-102346038D01*
X143823500Y-102334181D01*
X143823500Y-94698768D01*
X143824027Y-94687585D01*
X143825702Y-94680092D01*
X143823562Y-94612001D01*
X143823500Y-94608044D01*
X143823500Y-94580144D01*
X143822996Y-94576153D01*
X143822063Y-94564311D01*
X143820923Y-94528036D01*
X143820674Y-94520111D01*
X143818462Y-94512497D01*
X143818461Y-94512492D01*
X143815023Y-94500659D01*
X143811012Y-94481295D01*
X143809467Y-94469064D01*
X143808474Y-94461203D01*
X143805557Y-94453836D01*
X143805556Y-94453831D01*
X143792198Y-94420092D01*
X143788354Y-94408865D01*
X143778230Y-94374022D01*
X143776018Y-94366407D01*
X143765707Y-94348972D01*
X143757012Y-94331224D01*
X143749552Y-94312383D01*
X143723564Y-94276613D01*
X143717048Y-94266693D01*
X143698580Y-94235465D01*
X143698578Y-94235462D01*
X143694542Y-94228638D01*
X143680221Y-94214317D01*
X143667380Y-94199283D01*
X143660131Y-94189306D01*
X143655472Y-94182893D01*
X143621395Y-94154702D01*
X143612616Y-94146712D01*
X142236172Y-92770267D01*
X142202146Y-92707955D01*
X142207211Y-92637139D01*
X142216148Y-92618172D01*
X142271223Y-92522779D01*
X142271224Y-92522778D01*
X142274527Y-92517056D01*
X142333542Y-92335428D01*
X142341922Y-92255702D01*
X142352814Y-92152065D01*
X142353504Y-92145500D01*
X142345609Y-92070386D01*
X142334232Y-91962135D01*
X142334232Y-91962133D01*
X142333542Y-91955572D01*
X142274527Y-91773944D01*
X142179040Y-91608556D01*
X142051253Y-91466634D01*
X141896752Y-91354382D01*
X141890724Y-91351698D01*
X141890722Y-91351697D01*
X141728319Y-91279391D01*
X141728318Y-91279391D01*
X141722288Y-91276706D01*
X141618895Y-91254729D01*
X141541944Y-91238372D01*
X141541939Y-91238372D01*
X141535487Y-91237000D01*
X141479595Y-91237000D01*
X141411474Y-91216998D01*
X141390500Y-91200095D01*
X140668152Y-90477747D01*
X140660612Y-90469461D01*
X140656500Y-90462982D01*
X140606848Y-90416356D01*
X140604007Y-90413602D01*
X140584270Y-90393865D01*
X140581073Y-90391385D01*
X140572051Y-90383680D01*
X140545600Y-90358841D01*
X140539821Y-90353414D01*
X140532875Y-90349595D01*
X140532872Y-90349593D01*
X140522066Y-90343652D01*
X140505547Y-90332801D01*
X140505083Y-90332441D01*
X140489541Y-90320386D01*
X140482272Y-90317241D01*
X140482268Y-90317238D01*
X140448963Y-90302826D01*
X140438313Y-90297609D01*
X140399560Y-90276305D01*
X140379937Y-90271267D01*
X140361234Y-90264863D01*
X140349920Y-90259967D01*
X140349919Y-90259967D01*
X140342645Y-90256819D01*
X140334822Y-90255580D01*
X140334812Y-90255577D01*
X140298976Y-90249901D01*
X140287356Y-90247495D01*
X140252211Y-90238472D01*
X140252210Y-90238472D01*
X140244530Y-90236500D01*
X140224276Y-90236500D01*
X140204565Y-90234949D01*
X140192386Y-90233020D01*
X140184557Y-90231780D01*
X140176665Y-90232526D01*
X140140539Y-90235941D01*
X140128681Y-90236500D01*
X124773594Y-90236500D01*
X124705473Y-90216498D01*
X124658980Y-90162842D01*
X124648876Y-90092568D01*
X124678370Y-90027988D01*
X124684499Y-90021405D01*
X125403156Y-89302749D01*
X126165500Y-88540405D01*
X126227812Y-88506379D01*
X126254595Y-88503500D01*
X137875406Y-88503500D01*
X137943527Y-88523502D01*
X137964501Y-88540405D01*
X137992878Y-88568782D01*
X138026904Y-88631094D01*
X138029092Y-88644703D01*
X138046458Y-88809928D01*
X138105473Y-88991556D01*
X138200960Y-89156944D01*
X138328747Y-89298866D01*
X138483248Y-89411118D01*
X138489276Y-89413802D01*
X138489278Y-89413803D01*
X138651681Y-89486109D01*
X138657712Y-89488794D01*
X138751113Y-89508647D01*
X138838056Y-89527128D01*
X138838061Y-89527128D01*
X138844513Y-89528500D01*
X139035487Y-89528500D01*
X139041939Y-89527128D01*
X139041944Y-89527128D01*
X139128887Y-89508647D01*
X139222288Y-89488794D01*
X139228319Y-89486109D01*
X139390722Y-89413803D01*
X139390724Y-89413802D01*
X139396752Y-89411118D01*
X139551253Y-89298866D01*
X139679040Y-89156944D01*
X139774527Y-88991556D01*
X139833542Y-88809928D01*
X139853504Y-88620000D01*
X139833542Y-88430072D01*
X139774527Y-88248444D01*
X139679040Y-88083056D01*
X139551253Y-87941134D01*
X139396752Y-87828882D01*
X139390724Y-87826198D01*
X139390722Y-87826197D01*
X139228319Y-87753891D01*
X139228318Y-87753891D01*
X139222288Y-87751206D01*
X139128887Y-87731353D01*
X139041944Y-87712872D01*
X139041939Y-87712872D01*
X139035487Y-87711500D01*
X138979595Y-87711500D01*
X138911474Y-87691498D01*
X138890500Y-87674595D01*
X138693652Y-87477747D01*
X138686112Y-87469461D01*
X138682000Y-87462982D01*
X138632348Y-87416356D01*
X138629507Y-87413602D01*
X138609770Y-87393865D01*
X138606573Y-87391385D01*
X138597551Y-87383680D01*
X138584122Y-87371069D01*
X138565321Y-87353414D01*
X138558375Y-87349595D01*
X138558372Y-87349593D01*
X138547566Y-87343652D01*
X138531047Y-87332801D01*
X138530583Y-87332441D01*
X138515041Y-87320386D01*
X138507772Y-87317241D01*
X138507768Y-87317238D01*
X138474463Y-87302826D01*
X138463813Y-87297609D01*
X138425060Y-87276305D01*
X138405437Y-87271267D01*
X138386734Y-87264863D01*
X138375420Y-87259967D01*
X138375419Y-87259967D01*
X138368145Y-87256819D01*
X138360322Y-87255580D01*
X138360312Y-87255577D01*
X138324476Y-87249901D01*
X138312856Y-87247495D01*
X138277711Y-87238472D01*
X138277710Y-87238472D01*
X138270030Y-87236500D01*
X138249776Y-87236500D01*
X138230065Y-87234949D01*
X138217886Y-87233020D01*
X138210057Y-87231780D01*
X138180786Y-87234547D01*
X138166039Y-87235941D01*
X138154181Y-87236500D01*
X126018767Y-87236500D01*
X126007584Y-87235973D01*
X126000091Y-87234298D01*
X125992165Y-87234547D01*
X125992164Y-87234547D01*
X125932001Y-87236438D01*
X125928043Y-87236500D01*
X125900144Y-87236500D01*
X125896154Y-87237004D01*
X125884320Y-87237936D01*
X125840111Y-87239326D01*
X125832497Y-87241538D01*
X125832492Y-87241539D01*
X125820659Y-87244977D01*
X125801296Y-87248988D01*
X125781203Y-87251526D01*
X125773836Y-87254443D01*
X125773831Y-87254444D01*
X125740092Y-87267802D01*
X125728865Y-87271646D01*
X125686407Y-87283982D01*
X125679581Y-87288019D01*
X125668972Y-87294293D01*
X125651224Y-87302988D01*
X125632383Y-87310448D01*
X125625967Y-87315110D01*
X125625966Y-87315110D01*
X125596613Y-87336436D01*
X125586693Y-87342952D01*
X125555465Y-87361420D01*
X125555462Y-87361422D01*
X125548638Y-87365458D01*
X125534317Y-87379779D01*
X125519284Y-87392619D01*
X125502893Y-87404528D01*
X125494217Y-87415016D01*
X125474702Y-87438605D01*
X125466712Y-87447384D01*
X121964500Y-90949595D01*
X121902188Y-90983621D01*
X121875405Y-90986500D01*
X108648200Y-90986500D01*
X108580079Y-90966498D01*
X108560853Y-90950157D01*
X108560580Y-90950460D01*
X108555668Y-90946037D01*
X108551253Y-90941134D01*
X108396752Y-90828882D01*
X108390724Y-90826198D01*
X108390722Y-90826197D01*
X108228319Y-90753891D01*
X108228318Y-90753891D01*
X108222288Y-90751206D01*
X108128887Y-90731353D01*
X108041944Y-90712872D01*
X108041939Y-90712872D01*
X108035487Y-90711500D01*
X107844513Y-90711500D01*
X107838061Y-90712872D01*
X107838056Y-90712872D01*
X107751113Y-90731353D01*
X107657712Y-90751206D01*
X107651682Y-90753891D01*
X107651681Y-90753891D01*
X107489278Y-90826197D01*
X107489276Y-90826198D01*
X107483248Y-90828882D01*
X107328747Y-90941134D01*
X107324326Y-90946044D01*
X107324325Y-90946045D01*
X107290492Y-90983621D01*
X107200960Y-91083056D01*
X107105473Y-91248444D01*
X107046458Y-91430072D01*
X107026496Y-91620000D01*
X107027186Y-91626565D01*
X107043337Y-91780229D01*
X107046458Y-91809928D01*
X107105473Y-91991556D01*
X107108776Y-91997278D01*
X107108777Y-91997279D01*
X107137832Y-92047604D01*
X107200960Y-92156944D01*
X107205378Y-92161851D01*
X107205379Y-92161852D01*
X107272592Y-92236500D01*
X107328747Y-92298866D01*
X107375402Y-92332763D01*
X107474953Y-92405091D01*
X107483248Y-92411118D01*
X107489276Y-92413802D01*
X107489278Y-92413803D01*
X107550665Y-92441134D01*
X107657712Y-92488794D01*
X107751113Y-92508647D01*
X107838056Y-92527128D01*
X107838061Y-92527128D01*
X107844513Y-92528500D01*
X108035487Y-92528500D01*
X108041939Y-92527128D01*
X108041944Y-92527128D01*
X108128887Y-92508647D01*
X108222288Y-92488794D01*
X108329335Y-92441134D01*
X108390722Y-92413803D01*
X108390724Y-92413802D01*
X108396752Y-92411118D01*
X108405048Y-92405091D01*
X108529671Y-92314546D01*
X108551253Y-92298866D01*
X108555668Y-92293963D01*
X108560580Y-92289540D01*
X108561705Y-92290789D01*
X108615014Y-92257949D01*
X108648200Y-92253500D01*
X122106405Y-92253500D01*
X122174526Y-92273502D01*
X122221019Y-92327158D01*
X122231123Y-92397432D01*
X122201629Y-92462012D01*
X122195500Y-92468595D01*
X108047747Y-106616348D01*
X108039461Y-106623888D01*
X108032982Y-106628000D01*
X108027557Y-106633777D01*
X107986357Y-106677651D01*
X107983602Y-106680493D01*
X107963865Y-106700230D01*
X107961385Y-106703427D01*
X107953682Y-106712447D01*
X107923414Y-106744679D01*
X107919595Y-106751625D01*
X107919593Y-106751628D01*
X107913652Y-106762434D01*
X107902801Y-106778953D01*
X107890386Y-106794959D01*
X107887241Y-106802228D01*
X107887238Y-106802232D01*
X107872826Y-106835537D01*
X107867609Y-106846187D01*
X107846305Y-106884940D01*
X107844334Y-106892615D01*
X107844334Y-106892616D01*
X107841267Y-106904562D01*
X107834863Y-106923266D01*
X107826819Y-106941855D01*
X107825580Y-106949678D01*
X107825577Y-106949688D01*
X107819901Y-106985524D01*
X107817495Y-106997144D01*
X107806500Y-107039970D01*
X107806500Y-107060224D01*
X107804949Y-107079934D01*
X107801780Y-107099943D01*
X107802526Y-107107835D01*
X107805941Y-107143961D01*
X107806500Y-107155819D01*
X107806500Y-128298207D01*
X107804268Y-128321816D01*
X107802725Y-128329906D01*
X107803223Y-128337817D01*
X107806251Y-128385951D01*
X107806500Y-128393862D01*
X107806500Y-128409856D01*
X107808506Y-128425730D01*
X107809248Y-128433590D01*
X107812775Y-128489650D01*
X107815225Y-128497191D01*
X107815321Y-128497487D01*
X107820494Y-128520631D01*
X107820532Y-128520935D01*
X107820533Y-128520940D01*
X107821526Y-128528797D01*
X107824442Y-128536162D01*
X107824443Y-128536166D01*
X107842199Y-128581011D01*
X107844871Y-128588430D01*
X107862236Y-128641875D01*
X107866486Y-128648571D01*
X107866486Y-128648572D01*
X107866650Y-128648831D01*
X107877415Y-128669958D01*
X107877529Y-128670246D01*
X107877532Y-128670251D01*
X107880448Y-128677617D01*
X107885104Y-128684025D01*
X107885107Y-128684031D01*
X107913458Y-128723052D01*
X107917901Y-128729589D01*
X107948000Y-128777018D01*
X107953778Y-128782444D01*
X107953779Y-128782445D01*
X107954007Y-128782659D01*
X107969688Y-128800446D01*
X107974528Y-128807107D01*
X107980637Y-128812161D01*
X107980638Y-128812162D01*
X108017796Y-128842903D01*
X108023730Y-128848134D01*
X108058898Y-128881158D01*
X108058901Y-128881160D01*
X108064679Y-128886586D01*
X108071903Y-128890558D01*
X108091506Y-128903881D01*
X108091746Y-128904080D01*
X108091753Y-128904084D01*
X108097856Y-128909133D01*
X108137400Y-128927741D01*
X108148676Y-128933047D01*
X108155708Y-128936629D01*
X108204940Y-128963695D01*
X108212615Y-128965665D01*
X108212621Y-128965668D01*
X108212919Y-128965744D01*
X108235228Y-128973776D01*
X108235503Y-128973906D01*
X108235511Y-128973909D01*
X108242682Y-128977283D01*
X108297849Y-128987806D01*
X108305558Y-128989529D01*
X108339551Y-128998257D01*
X108352293Y-129001529D01*
X108352294Y-129001529D01*
X108359970Y-129003500D01*
X108368207Y-129003500D01*
X108391816Y-129005732D01*
X108392119Y-129005790D01*
X108392123Y-129005790D01*
X108399906Y-129007275D01*
X108455951Y-129003749D01*
X108463862Y-129003500D01*
X134686579Y-129003500D01*
X134754700Y-129023502D01*
X134801193Y-129077158D01*
X134806412Y-129090563D01*
X134855473Y-129241556D01*
X134950960Y-129406944D01*
X134955378Y-129411851D01*
X134955379Y-129411852D01*
X135066883Y-129535690D01*
X135097601Y-129599697D01*
X135088836Y-129670151D01*
X135066883Y-129704310D01*
X134950960Y-129833056D01*
X134855473Y-129998444D01*
X134796458Y-130180072D01*
X134795768Y-130186633D01*
X134795768Y-130186635D01*
X134790371Y-130237982D01*
X134776496Y-130370000D01*
X134777186Y-130376565D01*
X134788321Y-130482504D01*
X134796458Y-130559928D01*
X134855473Y-130741556D01*
X134950960Y-130906944D01*
X134955380Y-130911852D01*
X134959259Y-130917192D01*
X134957607Y-130918392D01*
X134984148Y-130973685D01*
X134975391Y-131044139D01*
X134929934Y-131098675D01*
X134859797Y-131120000D01*
X106066000Y-131120000D01*
X105997879Y-131099998D01*
X105951386Y-131046342D01*
X105940000Y-130994000D01*
X105940000Y-130620000D01*
X104735583Y-130620000D01*
X104667462Y-130599998D01*
X104620969Y-130546342D01*
X104614794Y-130525045D01*
X104613976Y-130525279D01*
X104605850Y-130496847D01*
X104602272Y-130480085D01*
X104599352Y-130459698D01*
X104598080Y-130450813D01*
X104587451Y-130427436D01*
X104581004Y-130409913D01*
X104576416Y-130393862D01*
X104573949Y-130385229D01*
X104569156Y-130377632D01*
X104558170Y-130360220D01*
X104550030Y-130345135D01*
X104547564Y-130339711D01*
X104537792Y-130318218D01*
X104521030Y-130298765D01*
X104509927Y-130283761D01*
X104496224Y-130262042D01*
X104489499Y-130256103D01*
X104489496Y-130256099D01*
X104474062Y-130242468D01*
X104462018Y-130230276D01*
X104448573Y-130214673D01*
X104448570Y-130214671D01*
X104442713Y-130207873D01*
X104429009Y-130198990D01*
X104421165Y-130193906D01*
X104406291Y-130182615D01*
X104393783Y-130171569D01*
X104393782Y-130171568D01*
X104387049Y-130165622D01*
X104360287Y-130153057D01*
X104345309Y-130144737D01*
X104328017Y-130133529D01*
X104328012Y-130133527D01*
X104320485Y-130128648D01*
X104311892Y-130126078D01*
X104311887Y-130126076D01*
X104295880Y-130121289D01*
X104278436Y-130114628D01*
X104263324Y-130107533D01*
X104263322Y-130107532D01*
X104255200Y-130103719D01*
X104246333Y-130102338D01*
X104246332Y-130102338D01*
X104235478Y-130100648D01*
X104225983Y-130099170D01*
X104209268Y-130095387D01*
X104189534Y-130089485D01*
X104189528Y-130089484D01*
X104180934Y-130086914D01*
X104171963Y-130086859D01*
X104171962Y-130086859D01*
X104161903Y-130086798D01*
X104146494Y-130086704D01*
X104145711Y-130086671D01*
X104144614Y-130086500D01*
X104113623Y-130086500D01*
X104112853Y-130086498D01*
X104039215Y-130086048D01*
X104039214Y-130086048D01*
X104035279Y-130086024D01*
X104033935Y-130086408D01*
X104032590Y-130086500D01*
X103639500Y-130086500D01*
X103571379Y-130066498D01*
X103524886Y-130012842D01*
X103513500Y-129960500D01*
X103513500Y-78829500D01*
X103533502Y-78761379D01*
X103587158Y-78714886D01*
X103639500Y-78703500D01*
X149770500Y-78703500D01*
X149838621Y-78723502D01*
G37*
G04 #@! TD.AperFunction*
M02*
