G04 #@! TF.GenerationSoftware,KiCad,Pcbnew,(6.0.6)*
G04 #@! TF.CreationDate,2022-11-05T17:07:15-04:00*
G04 #@! TF.ProjectId,isaacCart,69736161-6343-4617-9274-2e6b69636164,rev?*
G04 #@! TF.SameCoordinates,Original*
G04 #@! TF.FileFunction,Copper,L2,Bot*
G04 #@! TF.FilePolarity,Positive*
%FSLAX46Y46*%
G04 Gerber Fmt 4.6, Leading zero omitted, Abs format (unit mm)*
G04 Created by KiCad (PCBNEW (6.0.6)) date 2022-11-05 17:07:15*
%MOMM*%
%LPD*%
G01*
G04 APERTURE LIST*
G04 #@! TA.AperFunction,ViaPad*
%ADD10C,0.800000*%
G04 #@! TD*
G04 #@! TA.AperFunction,Conductor*
%ADD11C,0.250000*%
G04 #@! TD*
G04 APERTURE END LIST*
D10*
X145528576Y-104531424D03*
X151440000Y-95370000D03*
X114440000Y-104120000D03*
X114440000Y-124870000D03*
X115940000Y-123870000D03*
X115940000Y-102870000D03*
X117440000Y-122870000D03*
X117440000Y-101620000D03*
X118940000Y-100370000D03*
X118940000Y-121870000D03*
X120440000Y-120870000D03*
X120440000Y-99120000D03*
X121940000Y-119870000D03*
X121940000Y-97855500D03*
X123440000Y-118870000D03*
X123440000Y-96585500D03*
X125190000Y-130620000D03*
X148965500Y-99120000D03*
X134465500Y-117370000D03*
X147940000Y-100370000D03*
X140940000Y-104620000D03*
X134440000Y-115370497D03*
X129940000Y-130620000D03*
X148690000Y-112370000D03*
X130690000Y-92870000D03*
X136190000Y-121620000D03*
X135440000Y-128120000D03*
X149690000Y-97870000D03*
X150440000Y-96620000D03*
X135690000Y-129620000D03*
D11*
X136190000Y-121370000D02*
X136190000Y-121620000D01*
X129940000Y-115120000D02*
X136190000Y-121370000D01*
X130690000Y-92870000D02*
X129940000Y-93620000D01*
X129940000Y-93620000D02*
X129940000Y-115120000D01*
X133940000Y-114870497D02*
X134440000Y-115370497D01*
X133940000Y-109120000D02*
X133940000Y-114870497D01*
X137190000Y-105870000D02*
X133940000Y-109120000D01*
X139690000Y-105870000D02*
X137190000Y-105870000D01*
X140940000Y-104620000D02*
X139690000Y-105870000D01*
X148940000Y-110620000D02*
X148940000Y-99145500D01*
X130440000Y-129120000D02*
X148940000Y-110620000D01*
X148940000Y-99145500D02*
X148965500Y-99120000D01*
X126690000Y-129120000D02*
X130440000Y-129120000D01*
X125190000Y-130620000D02*
X126690000Y-129120000D01*
X129940000Y-130620000D02*
X130440000Y-130620000D01*
X130440000Y-130620000D02*
X148690000Y-112370000D01*
X147940000Y-109870000D02*
X147940000Y-100370000D01*
X141440000Y-116370000D02*
X147940000Y-109870000D01*
X134465500Y-117370000D02*
X135465500Y-116370000D01*
X135465500Y-116370000D02*
X141440000Y-116370000D01*
X145940000Y-100094695D02*
X150664695Y-95370000D01*
X150664695Y-95370000D02*
X151440000Y-95370000D01*
X145940000Y-104120000D02*
X145940000Y-100094695D01*
X145528576Y-104531424D02*
X145940000Y-104120000D01*
X150440000Y-114870000D02*
X135690000Y-129620000D01*
X150440000Y-96620000D02*
X150440000Y-114870000D01*
X149690000Y-113870000D02*
X135440000Y-128120000D01*
X149690000Y-97870000D02*
X149690000Y-113870000D01*
X123440000Y-96585500D02*
X123440000Y-118870000D01*
X121940000Y-97855500D02*
X121940000Y-119870000D01*
X120440000Y-99120000D02*
X120440000Y-120870000D01*
X118940000Y-100370000D02*
X118940000Y-121870000D01*
X117440000Y-101620000D02*
X117440000Y-122870000D01*
X115940000Y-102870000D02*
X115940000Y-123870000D01*
X114440000Y-104120000D02*
X114440000Y-124870000D01*
G04 #@! TA.AperFunction,Conductor*
G36*
X149838621Y-78723502D02*
G01*
X149885114Y-78777158D01*
X149896500Y-78829500D01*
X149896500Y-80786377D01*
X149896498Y-80787147D01*
X149896024Y-80864721D01*
X149898491Y-80873352D01*
X149904150Y-80893153D01*
X149907728Y-80909915D01*
X149911920Y-80939187D01*
X149915634Y-80947355D01*
X149915634Y-80947356D01*
X149922548Y-80962562D01*
X149928996Y-80980086D01*
X149936051Y-81004771D01*
X149940843Y-81012365D01*
X149940844Y-81012368D01*
X149951830Y-81029780D01*
X149959969Y-81044863D01*
X149972208Y-81071782D01*
X149978069Y-81078584D01*
X149988970Y-81091235D01*
X150000073Y-81106239D01*
X150013776Y-81127958D01*
X150020501Y-81133897D01*
X150020504Y-81133901D01*
X150035938Y-81147532D01*
X150047982Y-81159724D01*
X150061427Y-81175327D01*
X150061430Y-81175329D01*
X150067287Y-81182127D01*
X150074816Y-81187007D01*
X150074817Y-81187008D01*
X150088835Y-81196094D01*
X150103709Y-81207385D01*
X150116217Y-81218431D01*
X150122951Y-81224378D01*
X150149711Y-81236942D01*
X150164691Y-81245263D01*
X150181983Y-81256471D01*
X150181988Y-81256473D01*
X150189515Y-81261352D01*
X150198108Y-81263922D01*
X150198113Y-81263924D01*
X150214120Y-81268711D01*
X150231564Y-81275372D01*
X150246676Y-81282467D01*
X150246678Y-81282468D01*
X150254800Y-81286281D01*
X150263667Y-81287662D01*
X150263668Y-81287662D01*
X150273310Y-81289163D01*
X150284017Y-81290830D01*
X150300732Y-81294613D01*
X150320466Y-81300515D01*
X150320472Y-81300516D01*
X150329066Y-81303086D01*
X150338037Y-81303141D01*
X150338038Y-81303141D01*
X150348097Y-81303202D01*
X150363506Y-81303296D01*
X150364289Y-81303329D01*
X150365386Y-81303500D01*
X150396377Y-81303500D01*
X150397147Y-81303502D01*
X150470785Y-81303952D01*
X150470786Y-81303952D01*
X150474721Y-81303976D01*
X150476065Y-81303592D01*
X150477410Y-81303500D01*
X153770500Y-81303500D01*
X153838621Y-81323502D01*
X153885114Y-81377158D01*
X153896500Y-81429500D01*
X153896500Y-129960500D01*
X153876498Y-130028621D01*
X153822842Y-130075114D01*
X153770500Y-130086500D01*
X153313623Y-130086500D01*
X153312853Y-130086498D01*
X153312037Y-130086493D01*
X153235279Y-130086024D01*
X153212918Y-130092415D01*
X153206847Y-130094150D01*
X153190085Y-130097728D01*
X153160813Y-130101920D01*
X153152645Y-130105634D01*
X153152644Y-130105634D01*
X153137438Y-130112548D01*
X153119914Y-130118996D01*
X153095229Y-130126051D01*
X153087635Y-130130843D01*
X153087632Y-130130844D01*
X153070220Y-130141830D01*
X153055137Y-130149969D01*
X153028218Y-130162208D01*
X153021416Y-130168069D01*
X153008765Y-130178970D01*
X152993761Y-130190073D01*
X152972042Y-130203776D01*
X152966103Y-130210501D01*
X152966099Y-130210504D01*
X152952468Y-130225938D01*
X152940276Y-130237982D01*
X152924673Y-130251427D01*
X152924671Y-130251430D01*
X152917873Y-130257287D01*
X152912993Y-130264816D01*
X152912992Y-130264817D01*
X152903906Y-130278835D01*
X152892615Y-130293709D01*
X152888061Y-130298866D01*
X152875622Y-130312951D01*
X152869312Y-130326391D01*
X152863058Y-130339711D01*
X152854737Y-130354691D01*
X152843529Y-130371983D01*
X152843527Y-130371988D01*
X152838648Y-130379515D01*
X152836078Y-130388108D01*
X152836076Y-130388113D01*
X152831289Y-130404120D01*
X152824628Y-130421564D01*
X152817533Y-130436676D01*
X152813719Y-130444800D01*
X152812338Y-130453667D01*
X152812338Y-130453668D01*
X152809170Y-130474015D01*
X152805387Y-130490732D01*
X152799485Y-130510466D01*
X152799484Y-130510472D01*
X152796914Y-130519066D01*
X152796859Y-130528037D01*
X152796859Y-130528038D01*
X152796704Y-130553497D01*
X152796671Y-130554289D01*
X152796500Y-130555386D01*
X152796500Y-130586377D01*
X152796498Y-130587147D01*
X152796024Y-130664721D01*
X152796408Y-130666065D01*
X152796500Y-130667410D01*
X152796500Y-133021542D01*
X152776498Y-133089663D01*
X152722842Y-133136156D01*
X152672785Y-133147521D01*
X151624304Y-133166540D01*
X151555833Y-133147777D01*
X151508375Y-133094973D01*
X151496118Y-133045517D01*
X151440713Y-131638103D01*
X151440713Y-131638102D01*
X151440000Y-131620000D01*
X130497038Y-131620000D01*
X130428917Y-131599998D01*
X130382424Y-131546342D01*
X130372320Y-131476068D01*
X130401814Y-131411488D01*
X130422977Y-131392064D01*
X130545909Y-131302749D01*
X130551253Y-131298866D01*
X130589642Y-131256231D01*
X130636898Y-131223389D01*
X130639914Y-131222195D01*
X130651142Y-131218351D01*
X130660384Y-131215666D01*
X130693593Y-131206018D01*
X130700412Y-131201985D01*
X130700417Y-131201983D01*
X130711028Y-131195707D01*
X130728776Y-131187012D01*
X130747617Y-131179552D01*
X130783387Y-131153564D01*
X130793307Y-131147048D01*
X130824535Y-131128580D01*
X130824538Y-131128578D01*
X130831362Y-131124542D01*
X130845683Y-131110221D01*
X130860717Y-131097380D01*
X130877107Y-131085472D01*
X130905298Y-131051395D01*
X130913288Y-131042616D01*
X134472424Y-127483480D01*
X134534736Y-127449454D01*
X134605551Y-127454519D01*
X134662387Y-127497066D01*
X134687198Y-127563586D01*
X134670638Y-127635575D01*
X134605473Y-127748444D01*
X134546458Y-127930072D01*
X134545768Y-127936633D01*
X134545768Y-127936635D01*
X134538916Y-128001829D01*
X134526496Y-128120000D01*
X134546458Y-128309928D01*
X134605473Y-128491556D01*
X134608776Y-128497278D01*
X134608777Y-128497279D01*
X134609763Y-128498986D01*
X134700960Y-128656944D01*
X134828747Y-128798866D01*
X134834089Y-128802747D01*
X134834091Y-128802749D01*
X134944107Y-128882680D01*
X134987461Y-128938902D01*
X134993536Y-129009638D01*
X134963686Y-129068923D01*
X134950960Y-129083056D01*
X134855473Y-129248444D01*
X134796458Y-129430072D01*
X134776496Y-129620000D01*
X134777186Y-129626565D01*
X134792630Y-129773502D01*
X134796458Y-129809928D01*
X134855473Y-129991556D01*
X134858776Y-129997278D01*
X134858777Y-129997279D01*
X134892325Y-130055386D01*
X134950960Y-130156944D01*
X134955378Y-130161851D01*
X134955379Y-130161852D01*
X135072271Y-130291674D01*
X135078747Y-130298866D01*
X135233248Y-130411118D01*
X135239276Y-130413802D01*
X135239278Y-130413803D01*
X135388151Y-130480085D01*
X135407712Y-130488794D01*
X135501113Y-130508647D01*
X135588056Y-130527128D01*
X135588061Y-130527128D01*
X135594513Y-130528500D01*
X135785487Y-130528500D01*
X135791939Y-130527128D01*
X135791944Y-130527128D01*
X135878887Y-130508647D01*
X135972288Y-130488794D01*
X135991849Y-130480085D01*
X136140722Y-130413803D01*
X136140724Y-130413802D01*
X136146752Y-130411118D01*
X136301253Y-130298866D01*
X136307729Y-130291674D01*
X136424621Y-130161852D01*
X136424622Y-130161851D01*
X136429040Y-130156944D01*
X136487675Y-130055386D01*
X136521223Y-129997279D01*
X136521224Y-129997278D01*
X136524527Y-129991556D01*
X136583542Y-129809928D01*
X136587371Y-129773502D01*
X136600907Y-129644707D01*
X136627920Y-129579050D01*
X136637122Y-129568782D01*
X150832253Y-115373652D01*
X150840539Y-115366112D01*
X150847018Y-115362000D01*
X150893644Y-115312348D01*
X150896398Y-115309507D01*
X150916135Y-115289770D01*
X150918615Y-115286573D01*
X150926320Y-115277551D01*
X150956586Y-115245321D01*
X150960405Y-115238375D01*
X150960407Y-115238372D01*
X150966348Y-115227566D01*
X150977199Y-115211047D01*
X150984758Y-115201301D01*
X150989614Y-115195041D01*
X150992759Y-115187772D01*
X150992762Y-115187768D01*
X151007174Y-115154463D01*
X151012391Y-115143813D01*
X151033695Y-115105060D01*
X151038733Y-115085437D01*
X151045137Y-115066734D01*
X151050033Y-115055420D01*
X151050033Y-115055419D01*
X151053181Y-115048145D01*
X151054420Y-115040322D01*
X151054423Y-115040312D01*
X151060099Y-115004476D01*
X151062505Y-114992856D01*
X151071528Y-114957711D01*
X151071528Y-114957710D01*
X151073500Y-114950030D01*
X151073500Y-114929776D01*
X151075051Y-114910065D01*
X151076980Y-114897886D01*
X151078220Y-114890057D01*
X151074059Y-114846038D01*
X151073500Y-114834181D01*
X151073500Y-97322524D01*
X151093502Y-97254403D01*
X151105858Y-97238221D01*
X151179040Y-97156944D01*
X151237314Y-97056010D01*
X151271223Y-96997279D01*
X151271224Y-96997278D01*
X151274527Y-96991556D01*
X151333542Y-96809928D01*
X151353504Y-96620000D01*
X151333542Y-96430072D01*
X151274527Y-96248444D01*
X151179040Y-96083056D01*
X151051253Y-95941134D01*
X150896752Y-95828882D01*
X150890724Y-95826198D01*
X150890722Y-95826197D01*
X150728319Y-95753891D01*
X150728318Y-95753891D01*
X150722288Y-95751206D01*
X150628887Y-95731353D01*
X150541944Y-95712872D01*
X150541939Y-95712872D01*
X150535487Y-95711500D01*
X150344513Y-95711500D01*
X150338061Y-95712872D01*
X150338056Y-95712872D01*
X150251113Y-95731353D01*
X150157712Y-95751206D01*
X150151682Y-95753891D01*
X150151681Y-95753891D01*
X149989278Y-95826197D01*
X149989276Y-95826198D01*
X149983248Y-95828882D01*
X149828747Y-95941134D01*
X149700960Y-96083056D01*
X149605473Y-96248444D01*
X149546458Y-96430072D01*
X149526496Y-96620000D01*
X149546458Y-96809928D01*
X149548497Y-96816202D01*
X149548497Y-96816204D01*
X149552386Y-96828171D01*
X149554415Y-96899138D01*
X149517754Y-96959937D01*
X149458752Y-96990356D01*
X149414176Y-96999831D01*
X149414167Y-96999834D01*
X149407712Y-97001206D01*
X149401682Y-97003891D01*
X149401681Y-97003891D01*
X149239278Y-97076197D01*
X149239276Y-97076198D01*
X149233248Y-97078882D01*
X149078747Y-97191134D01*
X148950960Y-97333056D01*
X148947659Y-97338774D01*
X148863845Y-97483944D01*
X148855473Y-97498444D01*
X148796458Y-97680072D01*
X148776496Y-97870000D01*
X148796458Y-98059928D01*
X148804034Y-98083245D01*
X148806062Y-98154211D01*
X148769400Y-98215009D01*
X148710400Y-98245426D01*
X148689675Y-98249832D01*
X148689673Y-98249833D01*
X148683212Y-98251206D01*
X148677182Y-98253891D01*
X148677181Y-98253891D01*
X148514778Y-98326197D01*
X148514776Y-98326198D01*
X148508748Y-98328882D01*
X148354247Y-98441134D01*
X148226460Y-98583056D01*
X148130973Y-98748444D01*
X148071958Y-98930072D01*
X148051996Y-99120000D01*
X148071958Y-99309928D01*
X148072383Y-99311237D01*
X148067128Y-99380095D01*
X148024311Y-99436727D01*
X147957673Y-99461220D01*
X147949284Y-99461500D01*
X147844513Y-99461500D01*
X147838061Y-99462872D01*
X147838056Y-99462872D01*
X147752434Y-99481072D01*
X147657712Y-99501206D01*
X147651682Y-99503891D01*
X147651681Y-99503891D01*
X147489278Y-99576197D01*
X147489276Y-99576198D01*
X147483248Y-99578882D01*
X147328747Y-99691134D01*
X147200960Y-99833056D01*
X147105473Y-99998444D01*
X147046458Y-100180072D01*
X147026496Y-100370000D01*
X147046458Y-100559928D01*
X147105473Y-100741556D01*
X147108776Y-100747278D01*
X147108777Y-100747279D01*
X147114476Y-100757150D01*
X147200960Y-100906944D01*
X147274137Y-100988215D01*
X147304853Y-101052221D01*
X147306500Y-101072524D01*
X147306500Y-109555405D01*
X147286498Y-109623526D01*
X147269595Y-109644500D01*
X141214500Y-115699595D01*
X141152188Y-115733621D01*
X141125405Y-115736500D01*
X135544268Y-115736500D01*
X135533085Y-115735973D01*
X135525592Y-115734298D01*
X135517666Y-115734547D01*
X135517665Y-115734547D01*
X135457502Y-115736438D01*
X135453544Y-115736500D01*
X135449756Y-115736500D01*
X135381635Y-115716498D01*
X135335142Y-115662842D01*
X135325038Y-115592568D01*
X135329922Y-115571567D01*
X135331502Y-115566704D01*
X135331502Y-115566702D01*
X135333542Y-115560425D01*
X135335614Y-115540717D01*
X135352814Y-115377062D01*
X135353504Y-115370497D01*
X135347425Y-115312659D01*
X135334232Y-115187132D01*
X135334232Y-115187130D01*
X135333542Y-115180569D01*
X135274527Y-114998941D01*
X135179040Y-114833553D01*
X135158199Y-114810406D01*
X135055675Y-114696542D01*
X135055674Y-114696541D01*
X135051253Y-114691631D01*
X134896752Y-114579379D01*
X134890724Y-114576695D01*
X134890722Y-114576694D01*
X134728319Y-114504388D01*
X134728318Y-114504388D01*
X134722288Y-114501703D01*
X134673303Y-114491291D01*
X134610830Y-114457563D01*
X134576508Y-114395413D01*
X134573500Y-114368044D01*
X134573500Y-109434594D01*
X134593502Y-109366473D01*
X134610405Y-109345499D01*
X137415500Y-106540405D01*
X137477812Y-106506379D01*
X137504595Y-106503500D01*
X139611233Y-106503500D01*
X139622416Y-106504027D01*
X139629909Y-106505702D01*
X139637835Y-106505453D01*
X139637836Y-106505453D01*
X139697986Y-106503562D01*
X139701945Y-106503500D01*
X139729856Y-106503500D01*
X139733791Y-106503003D01*
X139733856Y-106502995D01*
X139745693Y-106502062D01*
X139777951Y-106501048D01*
X139781970Y-106500922D01*
X139789889Y-106500673D01*
X139809343Y-106495021D01*
X139828700Y-106491013D01*
X139840930Y-106489468D01*
X139840931Y-106489468D01*
X139848797Y-106488474D01*
X139856168Y-106485555D01*
X139856170Y-106485555D01*
X139889912Y-106472196D01*
X139901142Y-106468351D01*
X139935983Y-106458229D01*
X139935984Y-106458229D01*
X139943593Y-106456018D01*
X139950412Y-106451985D01*
X139950417Y-106451983D01*
X139961028Y-106445707D01*
X139978776Y-106437012D01*
X139997617Y-106429552D01*
X140033387Y-106403564D01*
X140043307Y-106397048D01*
X140074535Y-106378580D01*
X140074538Y-106378578D01*
X140081362Y-106374542D01*
X140095683Y-106360221D01*
X140110717Y-106347380D01*
X140120694Y-106340131D01*
X140127107Y-106335472D01*
X140132157Y-106329368D01*
X140132162Y-106329363D01*
X140155293Y-106301402D01*
X140163283Y-106292621D01*
X140890501Y-105565404D01*
X140952813Y-105531379D01*
X140979596Y-105528500D01*
X141035487Y-105528500D01*
X141041939Y-105527128D01*
X141041944Y-105527128D01*
X141128888Y-105508647D01*
X141222288Y-105488794D01*
X141335015Y-105438605D01*
X141390722Y-105413803D01*
X141390724Y-105413802D01*
X141396752Y-105411118D01*
X141405823Y-105404528D01*
X141490574Y-105342952D01*
X141551253Y-105298866D01*
X141555675Y-105293955D01*
X141674621Y-105161852D01*
X141674622Y-105161851D01*
X141679040Y-105156944D01*
X141774527Y-104991556D01*
X141833542Y-104809928D01*
X141841080Y-104738213D01*
X141852814Y-104626565D01*
X141853504Y-104620000D01*
X141833542Y-104430072D01*
X141774527Y-104248444D01*
X141679040Y-104083056D01*
X141551253Y-103941134D01*
X141396752Y-103828882D01*
X141390724Y-103826198D01*
X141390722Y-103826197D01*
X141228319Y-103753891D01*
X141228318Y-103753891D01*
X141222288Y-103751206D01*
X141128887Y-103731353D01*
X141041944Y-103712872D01*
X141041939Y-103712872D01*
X141035487Y-103711500D01*
X140844513Y-103711500D01*
X140838061Y-103712872D01*
X140838056Y-103712872D01*
X140751113Y-103731353D01*
X140657712Y-103751206D01*
X140651682Y-103753891D01*
X140651681Y-103753891D01*
X140489278Y-103826197D01*
X140489276Y-103826198D01*
X140483248Y-103828882D01*
X140328747Y-103941134D01*
X140200960Y-104083056D01*
X140105473Y-104248444D01*
X140046458Y-104430072D01*
X140045768Y-104436633D01*
X140045768Y-104436635D01*
X140029093Y-104595292D01*
X140002080Y-104660949D01*
X139992878Y-104671218D01*
X139464499Y-105199596D01*
X139402187Y-105233621D01*
X139375404Y-105236500D01*
X137268767Y-105236500D01*
X137257584Y-105235973D01*
X137250091Y-105234298D01*
X137242165Y-105234547D01*
X137242164Y-105234547D01*
X137182014Y-105236438D01*
X137178055Y-105236500D01*
X137150144Y-105236500D01*
X137146210Y-105236997D01*
X137146209Y-105236997D01*
X137146144Y-105237005D01*
X137134307Y-105237938D01*
X137102049Y-105238952D01*
X137098030Y-105239078D01*
X137090111Y-105239327D01*
X137070657Y-105244979D01*
X137051300Y-105248987D01*
X137039070Y-105250532D01*
X137039069Y-105250532D01*
X137031203Y-105251526D01*
X137023832Y-105254445D01*
X137023830Y-105254445D01*
X136990088Y-105267804D01*
X136978858Y-105271649D01*
X136944017Y-105281771D01*
X136944016Y-105281771D01*
X136936407Y-105283982D01*
X136929588Y-105288015D01*
X136929583Y-105288017D01*
X136918972Y-105294293D01*
X136901224Y-105302988D01*
X136882383Y-105310448D01*
X136875967Y-105315110D01*
X136875966Y-105315110D01*
X136846613Y-105336436D01*
X136836693Y-105342952D01*
X136805465Y-105361420D01*
X136805462Y-105361422D01*
X136798638Y-105365458D01*
X136784317Y-105379779D01*
X136769284Y-105392619D01*
X136752893Y-105404528D01*
X136745220Y-105413803D01*
X136724702Y-105438605D01*
X136716712Y-105447384D01*
X133547747Y-108616348D01*
X133539461Y-108623888D01*
X133532982Y-108628000D01*
X133527557Y-108633777D01*
X133486357Y-108677651D01*
X133483602Y-108680493D01*
X133463865Y-108700230D01*
X133461385Y-108703427D01*
X133453682Y-108712447D01*
X133423414Y-108744679D01*
X133419595Y-108751625D01*
X133419593Y-108751628D01*
X133413652Y-108762434D01*
X133402801Y-108778953D01*
X133390386Y-108794959D01*
X133387241Y-108802228D01*
X133387238Y-108802232D01*
X133372826Y-108835537D01*
X133367609Y-108846187D01*
X133346305Y-108884940D01*
X133344334Y-108892615D01*
X133344334Y-108892616D01*
X133341267Y-108904562D01*
X133334863Y-108923266D01*
X133326819Y-108941855D01*
X133325580Y-108949678D01*
X133325577Y-108949688D01*
X133319901Y-108985524D01*
X133317495Y-108997144D01*
X133306500Y-109039970D01*
X133306500Y-109060224D01*
X133304949Y-109079934D01*
X133301780Y-109099943D01*
X133302526Y-109107835D01*
X133305941Y-109143961D01*
X133306500Y-109155819D01*
X133306500Y-114791730D01*
X133305973Y-114802913D01*
X133304298Y-114810406D01*
X133304547Y-114818332D01*
X133304547Y-114818333D01*
X133306438Y-114878483D01*
X133306500Y-114882442D01*
X133306500Y-114910353D01*
X133306997Y-114914287D01*
X133306997Y-114914288D01*
X133307005Y-114914353D01*
X133307938Y-114926190D01*
X133309327Y-114970386D01*
X133314978Y-114989836D01*
X133318987Y-115009197D01*
X133321526Y-115029294D01*
X133324445Y-115036665D01*
X133324445Y-115036667D01*
X133337804Y-115070409D01*
X133341649Y-115081639D01*
X133353982Y-115124090D01*
X133358015Y-115130909D01*
X133358017Y-115130914D01*
X133364293Y-115141525D01*
X133372988Y-115159273D01*
X133380448Y-115178114D01*
X133385110Y-115184530D01*
X133385110Y-115184531D01*
X133406436Y-115213884D01*
X133412952Y-115223804D01*
X133422140Y-115239339D01*
X133435458Y-115261859D01*
X133449779Y-115276180D01*
X133462619Y-115291213D01*
X133474528Y-115307604D01*
X133480636Y-115312657D01*
X133480638Y-115312659D01*
X133484586Y-115315925D01*
X133524324Y-115374759D01*
X133529580Y-115399838D01*
X133533174Y-115434034D01*
X133544387Y-115540717D01*
X133546458Y-115560425D01*
X133605473Y-115742053D01*
X133700960Y-115907441D01*
X133828747Y-116049363D01*
X133983248Y-116161615D01*
X133989276Y-116164299D01*
X133989278Y-116164300D01*
X134151681Y-116236606D01*
X134157712Y-116239291D01*
X134164167Y-116240663D01*
X134164176Y-116240666D01*
X134206738Y-116249713D01*
X134269211Y-116283441D01*
X134303532Y-116345591D01*
X134298804Y-116416430D01*
X134256527Y-116473467D01*
X134206735Y-116496206D01*
X134183212Y-116501206D01*
X134177182Y-116503891D01*
X134177181Y-116503891D01*
X134014778Y-116576197D01*
X134014776Y-116576198D01*
X134008748Y-116578882D01*
X133854247Y-116691134D01*
X133726460Y-116833056D01*
X133723159Y-116838774D01*
X133634546Y-116992256D01*
X133630973Y-116998444D01*
X133571958Y-117180072D01*
X133551996Y-117370000D01*
X133552686Y-117376565D01*
X133569545Y-117536971D01*
X133556773Y-117606809D01*
X133508271Y-117658656D01*
X133439438Y-117676050D01*
X133372128Y-117653469D01*
X133355143Y-117639239D01*
X130610405Y-114894500D01*
X130576379Y-114832188D01*
X130573500Y-114805405D01*
X130573500Y-93934594D01*
X130593502Y-93866473D01*
X130610405Y-93845499D01*
X130640499Y-93815405D01*
X130702811Y-93781379D01*
X130729594Y-93778500D01*
X130785487Y-93778500D01*
X130791939Y-93777128D01*
X130791944Y-93777128D01*
X130878887Y-93758647D01*
X130972288Y-93738794D01*
X130978319Y-93736109D01*
X131140722Y-93663803D01*
X131140724Y-93663802D01*
X131146752Y-93661118D01*
X131154046Y-93655819D01*
X131285620Y-93560224D01*
X131301253Y-93548866D01*
X131347824Y-93497144D01*
X131424621Y-93411852D01*
X131424622Y-93411851D01*
X131429040Y-93406944D01*
X131524527Y-93241556D01*
X131583542Y-93059928D01*
X131603504Y-92870000D01*
X131583542Y-92680072D01*
X131524527Y-92498444D01*
X131429040Y-92333056D01*
X131301253Y-92191134D01*
X131146752Y-92078882D01*
X131140724Y-92076198D01*
X131140722Y-92076197D01*
X130978319Y-92003891D01*
X130978318Y-92003891D01*
X130972288Y-92001206D01*
X130878888Y-91981353D01*
X130791944Y-91962872D01*
X130791939Y-91962872D01*
X130785487Y-91961500D01*
X130594513Y-91961500D01*
X130588061Y-91962872D01*
X130588056Y-91962872D01*
X130501112Y-91981353D01*
X130407712Y-92001206D01*
X130401682Y-92003891D01*
X130401681Y-92003891D01*
X130239278Y-92076197D01*
X130239276Y-92076198D01*
X130233248Y-92078882D01*
X130078747Y-92191134D01*
X129950960Y-92333056D01*
X129855473Y-92498444D01*
X129796458Y-92680072D01*
X129795768Y-92686633D01*
X129795768Y-92686635D01*
X129779093Y-92845292D01*
X129752080Y-92910949D01*
X129742878Y-92921217D01*
X129547747Y-93116348D01*
X129539461Y-93123888D01*
X129532982Y-93128000D01*
X129527557Y-93133777D01*
X129486357Y-93177651D01*
X129483602Y-93180493D01*
X129463865Y-93200230D01*
X129461385Y-93203427D01*
X129453682Y-93212447D01*
X129423414Y-93244679D01*
X129419595Y-93251625D01*
X129419593Y-93251628D01*
X129413652Y-93262434D01*
X129402801Y-93278953D01*
X129390386Y-93294959D01*
X129387241Y-93302228D01*
X129387238Y-93302232D01*
X129372826Y-93335537D01*
X129367609Y-93346187D01*
X129346305Y-93384940D01*
X129344334Y-93392615D01*
X129344334Y-93392616D01*
X129341267Y-93404562D01*
X129334863Y-93423266D01*
X129326819Y-93441855D01*
X129325580Y-93449678D01*
X129325577Y-93449688D01*
X129319901Y-93485524D01*
X129317495Y-93497144D01*
X129306500Y-93539970D01*
X129306500Y-93560224D01*
X129304949Y-93579934D01*
X129301780Y-93599943D01*
X129302526Y-93607835D01*
X129305941Y-93643961D01*
X129306500Y-93655819D01*
X129306500Y-115041233D01*
X129305973Y-115052416D01*
X129304298Y-115059909D01*
X129304547Y-115067835D01*
X129304547Y-115067836D01*
X129306438Y-115127986D01*
X129306500Y-115131945D01*
X129306500Y-115159856D01*
X129306997Y-115163790D01*
X129306997Y-115163791D01*
X129307005Y-115163856D01*
X129307938Y-115175693D01*
X129309327Y-115219889D01*
X129314697Y-115238372D01*
X129314978Y-115239339D01*
X129318987Y-115258700D01*
X129321526Y-115278797D01*
X129324445Y-115286168D01*
X129324445Y-115286170D01*
X129337804Y-115319912D01*
X129341649Y-115331142D01*
X129348456Y-115354571D01*
X129353982Y-115373593D01*
X129358015Y-115380412D01*
X129358017Y-115380417D01*
X129364293Y-115391028D01*
X129372988Y-115408776D01*
X129380448Y-115427617D01*
X129385110Y-115434033D01*
X129385110Y-115434034D01*
X129406436Y-115463387D01*
X129412952Y-115473307D01*
X129435458Y-115511362D01*
X129449779Y-115525683D01*
X129462619Y-115540716D01*
X129474528Y-115557107D01*
X129480634Y-115562158D01*
X129508605Y-115585298D01*
X129517384Y-115593288D01*
X135259450Y-121335354D01*
X135293476Y-121397666D01*
X135295665Y-121437618D01*
X135276496Y-121620000D01*
X135277186Y-121626565D01*
X135293011Y-121777128D01*
X135296458Y-121809928D01*
X135355473Y-121991556D01*
X135450960Y-122156944D01*
X135578747Y-122298866D01*
X135733248Y-122411118D01*
X135739276Y-122413802D01*
X135739278Y-122413803D01*
X135901685Y-122486111D01*
X135901688Y-122486112D01*
X135907712Y-122488794D01*
X135914162Y-122490165D01*
X135914679Y-122490333D01*
X135973284Y-122530408D01*
X136000919Y-122595805D01*
X135988811Y-122665762D01*
X135964835Y-122699260D01*
X132057215Y-126606880D01*
X131994903Y-126640906D01*
X131924088Y-126635841D01*
X131867252Y-126593294D01*
X131842441Y-126526774D01*
X131857532Y-126457400D01*
X131865990Y-126443991D01*
X132057235Y-126179310D01*
X132257695Y-125834192D01*
X132336388Y-125661118D01*
X132421589Y-125473728D01*
X132422888Y-125470871D01*
X132442923Y-125411852D01*
X132550171Y-125095906D01*
X132550172Y-125095903D01*
X132551178Y-125092939D01*
X132551882Y-125089901D01*
X132551885Y-125089891D01*
X132640593Y-124707177D01*
X132640593Y-124707175D01*
X132641298Y-124704135D01*
X132680371Y-124401226D01*
X132691956Y-124311412D01*
X132691956Y-124311409D01*
X132692357Y-124308302D01*
X132703849Y-123909355D01*
X132701528Y-123876565D01*
X132675883Y-123514375D01*
X132675661Y-123511239D01*
X132608071Y-123117892D01*
X132501749Y-122733202D01*
X132500626Y-122730300D01*
X132500623Y-122730290D01*
X132358875Y-122363895D01*
X132357745Y-122360974D01*
X132177483Y-122004889D01*
X132175804Y-122002259D01*
X132175798Y-122002248D01*
X131964427Y-121671102D01*
X131962746Y-121668468D01*
X131960817Y-121666021D01*
X131960812Y-121666014D01*
X131717602Y-121357505D01*
X131715658Y-121355039D01*
X131713483Y-121352783D01*
X131713478Y-121352777D01*
X131581472Y-121215842D01*
X131438662Y-121067699D01*
X131295466Y-120946045D01*
X131136892Y-120811326D01*
X131136883Y-120811319D01*
X131134497Y-120809292D01*
X130955557Y-120685619D01*
X130808743Y-120584149D01*
X130808734Y-120584144D01*
X130806171Y-120582372D01*
X130803436Y-120580859D01*
X130803431Y-120580856D01*
X130497911Y-120411852D01*
X130456931Y-120389183D01*
X130454062Y-120387950D01*
X130454051Y-120387945D01*
X130093098Y-120232868D01*
X130093095Y-120232867D01*
X130090230Y-120231636D01*
X130087253Y-120230695D01*
X130087249Y-120230693D01*
X129956533Y-120189353D01*
X129709695Y-120111289D01*
X129319088Y-120029331D01*
X129315970Y-120028995D01*
X128924724Y-119986837D01*
X128924721Y-119986837D01*
X128922273Y-119986573D01*
X128919810Y-119986502D01*
X128919809Y-119986502D01*
X128916559Y-119986408D01*
X128864437Y-119984907D01*
X128591023Y-119984907D01*
X128589460Y-119984985D01*
X128589452Y-119984985D01*
X128492231Y-119989825D01*
X128292621Y-119999762D01*
X128289536Y-120000226D01*
X128289534Y-120000226D01*
X127937960Y-120053083D01*
X127897944Y-120059099D01*
X127894909Y-120059870D01*
X127894908Y-120059870D01*
X127514155Y-120156569D01*
X127514152Y-120156570D01*
X127511112Y-120157342D01*
X127508165Y-120158412D01*
X127508164Y-120158412D01*
X127138888Y-120292452D01*
X127138878Y-120292456D01*
X127135950Y-120293519D01*
X126776169Y-120466284D01*
X126435325Y-120673928D01*
X126419839Y-120685619D01*
X126233624Y-120826197D01*
X126116789Y-120914398D01*
X126114507Y-120916508D01*
X126114498Y-120916515D01*
X125934336Y-121083056D01*
X125823712Y-121185316D01*
X125821640Y-121187654D01*
X125821635Y-121187659D01*
X125679437Y-121348102D01*
X125558991Y-121484002D01*
X125325245Y-121807504D01*
X125124785Y-122152622D01*
X125123495Y-122155459D01*
X125123493Y-122155463D01*
X124979962Y-122471142D01*
X124959592Y-122515943D01*
X124958584Y-122518912D01*
X124958581Y-122518920D01*
X124839406Y-122870000D01*
X124831302Y-122893875D01*
X124830598Y-122896913D01*
X124830595Y-122896923D01*
X124741887Y-123279637D01*
X124741182Y-123282679D01*
X124690123Y-123678512D01*
X124678631Y-124077459D01*
X124678852Y-124080578D01*
X124678852Y-124080585D01*
X124694975Y-124308302D01*
X124706819Y-124475575D01*
X124774409Y-124868922D01*
X124880731Y-125253612D01*
X124881854Y-125256514D01*
X124881857Y-125256524D01*
X124941949Y-125411852D01*
X125024735Y-125625840D01*
X125026148Y-125628631D01*
X125026151Y-125628638D01*
X125116141Y-125806401D01*
X125204997Y-125981925D01*
X125206676Y-125984555D01*
X125206682Y-125984566D01*
X125332603Y-126181841D01*
X125419734Y-126318346D01*
X125421663Y-126320793D01*
X125421668Y-126320800D01*
X125584046Y-126526774D01*
X125666822Y-126631775D01*
X125668997Y-126634031D01*
X125669002Y-126634037D01*
X125675624Y-126640906D01*
X125943818Y-126919115D01*
X125946211Y-126921148D01*
X126245588Y-127175488D01*
X126245597Y-127175495D01*
X126247983Y-127177522D01*
X126250563Y-127179305D01*
X126573737Y-127402665D01*
X126573746Y-127402670D01*
X126576309Y-127404442D01*
X126579044Y-127405955D01*
X126579049Y-127405958D01*
X126642639Y-127441134D01*
X126925549Y-127597631D01*
X126928418Y-127598864D01*
X126928429Y-127598869D01*
X127276576Y-127748444D01*
X127292250Y-127755178D01*
X127295227Y-127756119D01*
X127295231Y-127756121D01*
X127425947Y-127797461D01*
X127672785Y-127875525D01*
X128063392Y-127957483D01*
X128066509Y-127957819D01*
X128066510Y-127957819D01*
X128457756Y-127999977D01*
X128457759Y-127999977D01*
X128460207Y-128000241D01*
X128462670Y-128000312D01*
X128462671Y-128000312D01*
X128465921Y-128000406D01*
X128518043Y-128001907D01*
X128791457Y-128001907D01*
X128793020Y-128001829D01*
X128793028Y-128001829D01*
X128890249Y-127996989D01*
X129089859Y-127987052D01*
X129092944Y-127986588D01*
X129092946Y-127986588D01*
X129444520Y-127933731D01*
X129484536Y-127927715D01*
X129499975Y-127923794D01*
X129868325Y-127830245D01*
X129868328Y-127830244D01*
X129871368Y-127829472D01*
X129874316Y-127828402D01*
X130243592Y-127694362D01*
X130243602Y-127694358D01*
X130246530Y-127693295D01*
X130606311Y-127520530D01*
X130947155Y-127312886D01*
X131148667Y-127160760D01*
X131215086Y-127135680D01*
X131284520Y-127150491D01*
X131334925Y-127200490D01*
X131350297Y-127269802D01*
X131325756Y-127336422D01*
X131313678Y-127350417D01*
X130214500Y-128449595D01*
X130152188Y-128483621D01*
X130125405Y-128486500D01*
X126768763Y-128486500D01*
X126757579Y-128485973D01*
X126750091Y-128484299D01*
X126742168Y-128484548D01*
X126682033Y-128486438D01*
X126678075Y-128486500D01*
X126650144Y-128486500D01*
X126646229Y-128486995D01*
X126646225Y-128486995D01*
X126646167Y-128487003D01*
X126646138Y-128487006D01*
X126634296Y-128487939D01*
X126590110Y-128489327D01*
X126572744Y-128494372D01*
X126570658Y-128494978D01*
X126551306Y-128498986D01*
X126544235Y-128499880D01*
X126531203Y-128501526D01*
X126523834Y-128504443D01*
X126523832Y-128504444D01*
X126490097Y-128517800D01*
X126478869Y-128521645D01*
X126436407Y-128533982D01*
X126429585Y-128538016D01*
X126429579Y-128538019D01*
X126418968Y-128544294D01*
X126401218Y-128552990D01*
X126389756Y-128557528D01*
X126389751Y-128557531D01*
X126382383Y-128560448D01*
X126375968Y-128565109D01*
X126346625Y-128586427D01*
X126336707Y-128592943D01*
X126318019Y-128603995D01*
X126298637Y-128615458D01*
X126284313Y-128629782D01*
X126269281Y-128642621D01*
X126252893Y-128654528D01*
X126224712Y-128688593D01*
X126216722Y-128697373D01*
X125239500Y-129674595D01*
X125177188Y-129708621D01*
X125150405Y-129711500D01*
X125094513Y-129711500D01*
X125088061Y-129712872D01*
X125088056Y-129712872D01*
X125001112Y-129731353D01*
X124907712Y-129751206D01*
X124901682Y-129753891D01*
X124901681Y-129753891D01*
X124739278Y-129826197D01*
X124739276Y-129826198D01*
X124733248Y-129828882D01*
X124578747Y-129941134D01*
X124450960Y-130083056D01*
X124355473Y-130248444D01*
X124296458Y-130430072D01*
X124295768Y-130436633D01*
X124295768Y-130436635D01*
X124287104Y-130519066D01*
X124276496Y-130620000D01*
X124296458Y-130809928D01*
X124355473Y-130991556D01*
X124358776Y-130997278D01*
X124358777Y-130997279D01*
X124387384Y-131046827D01*
X124450960Y-131156944D01*
X124455378Y-131161851D01*
X124455379Y-131161852D01*
X124540358Y-131256231D01*
X124578747Y-131298866D01*
X124584089Y-131302747D01*
X124584091Y-131302749D01*
X124707023Y-131392064D01*
X124750377Y-131448286D01*
X124756452Y-131519022D01*
X124723321Y-131581814D01*
X124661501Y-131616726D01*
X124632962Y-131620000D01*
X104739500Y-131620000D01*
X104671379Y-131599998D01*
X104624886Y-131546342D01*
X104613500Y-131494000D01*
X104613500Y-130603623D01*
X104613502Y-130602853D01*
X104613800Y-130554102D01*
X104613976Y-130525279D01*
X104605850Y-130496847D01*
X104602272Y-130480085D01*
X104599352Y-130459698D01*
X104598080Y-130450813D01*
X104587451Y-130427436D01*
X104581004Y-130409913D01*
X104576416Y-130393862D01*
X104573949Y-130385229D01*
X104569156Y-130377632D01*
X104558170Y-130360220D01*
X104550030Y-130345135D01*
X104547564Y-130339711D01*
X104537792Y-130318218D01*
X104521030Y-130298765D01*
X104509927Y-130283761D01*
X104496224Y-130262042D01*
X104489499Y-130256103D01*
X104489496Y-130256099D01*
X104474062Y-130242468D01*
X104462018Y-130230276D01*
X104448573Y-130214673D01*
X104448570Y-130214671D01*
X104442713Y-130207873D01*
X104429009Y-130198990D01*
X104421165Y-130193906D01*
X104406291Y-130182615D01*
X104393783Y-130171569D01*
X104393782Y-130171568D01*
X104387049Y-130165622D01*
X104360287Y-130153057D01*
X104345309Y-130144737D01*
X104328017Y-130133529D01*
X104328012Y-130133527D01*
X104320485Y-130128648D01*
X104311892Y-130126078D01*
X104311887Y-130126076D01*
X104295880Y-130121289D01*
X104278436Y-130114628D01*
X104263324Y-130107533D01*
X104263322Y-130107532D01*
X104255200Y-130103719D01*
X104246333Y-130102338D01*
X104246332Y-130102338D01*
X104235478Y-130100648D01*
X104225983Y-130099170D01*
X104209268Y-130095387D01*
X104189534Y-130089485D01*
X104189528Y-130089484D01*
X104180934Y-130086914D01*
X104171963Y-130086859D01*
X104171962Y-130086859D01*
X104161903Y-130086798D01*
X104146494Y-130086704D01*
X104145711Y-130086671D01*
X104144614Y-130086500D01*
X104113623Y-130086500D01*
X104112853Y-130086498D01*
X104039215Y-130086048D01*
X104039214Y-130086048D01*
X104035279Y-130086024D01*
X104033935Y-130086408D01*
X104032590Y-130086500D01*
X103639500Y-130086500D01*
X103571379Y-130066498D01*
X103524886Y-130012842D01*
X103513500Y-129960500D01*
X103513500Y-124870000D01*
X113526496Y-124870000D01*
X113546458Y-125059928D01*
X113605473Y-125241556D01*
X113608776Y-125247278D01*
X113608777Y-125247279D01*
X113614115Y-125256524D01*
X113700960Y-125406944D01*
X113705378Y-125411851D01*
X113705379Y-125411852D01*
X113824325Y-125543955D01*
X113828747Y-125548866D01*
X113983248Y-125661118D01*
X113989276Y-125663802D01*
X113989278Y-125663803D01*
X114151681Y-125736109D01*
X114157712Y-125738794D01*
X114251112Y-125758647D01*
X114338056Y-125777128D01*
X114338061Y-125777128D01*
X114344513Y-125778500D01*
X114535487Y-125778500D01*
X114541939Y-125777128D01*
X114541944Y-125777128D01*
X114628888Y-125758647D01*
X114722288Y-125738794D01*
X114728319Y-125736109D01*
X114890722Y-125663803D01*
X114890724Y-125663802D01*
X114896752Y-125661118D01*
X115051253Y-125548866D01*
X115055675Y-125543955D01*
X115174621Y-125411852D01*
X115174622Y-125411851D01*
X115179040Y-125406944D01*
X115265885Y-125256524D01*
X115271223Y-125247279D01*
X115271224Y-125247278D01*
X115274527Y-125241556D01*
X115333542Y-125059928D01*
X115353504Y-124870000D01*
X115352814Y-124863433D01*
X115346915Y-124807303D01*
X115359688Y-124737465D01*
X115408190Y-124685619D01*
X115477023Y-124668225D01*
X115523471Y-124679026D01*
X115657712Y-124738794D01*
X115751113Y-124758647D01*
X115838056Y-124777128D01*
X115838061Y-124777128D01*
X115844513Y-124778500D01*
X116035487Y-124778500D01*
X116041939Y-124777128D01*
X116041944Y-124777128D01*
X116128887Y-124758647D01*
X116222288Y-124738794D01*
X116228319Y-124736109D01*
X116390722Y-124663803D01*
X116390724Y-124663802D01*
X116396752Y-124661118D01*
X116551253Y-124548866D01*
X116614458Y-124478670D01*
X116674621Y-124411852D01*
X116674622Y-124411851D01*
X116679040Y-124406944D01*
X116774527Y-124241556D01*
X116833542Y-124059928D01*
X116853504Y-123870000D01*
X116852814Y-123863433D01*
X116846915Y-123807303D01*
X116859688Y-123737465D01*
X116908190Y-123685619D01*
X116977023Y-123668225D01*
X117023471Y-123679026D01*
X117157712Y-123738794D01*
X117251112Y-123758647D01*
X117338056Y-123777128D01*
X117338061Y-123777128D01*
X117344513Y-123778500D01*
X117535487Y-123778500D01*
X117541939Y-123777128D01*
X117541944Y-123777128D01*
X117628888Y-123758647D01*
X117722288Y-123738794D01*
X117850643Y-123681647D01*
X117890722Y-123663803D01*
X117890724Y-123663802D01*
X117896752Y-123661118D01*
X118051253Y-123548866D01*
X118082309Y-123514375D01*
X118174621Y-123411852D01*
X118174622Y-123411851D01*
X118179040Y-123406944D01*
X118274527Y-123241556D01*
X118333542Y-123059928D01*
X118353504Y-122870000D01*
X118352814Y-122863433D01*
X118346915Y-122807303D01*
X118359688Y-122737465D01*
X118408190Y-122685619D01*
X118477023Y-122668225D01*
X118523471Y-122679026D01*
X118627179Y-122725200D01*
X118638612Y-122730290D01*
X118657712Y-122738794D01*
X118751112Y-122758647D01*
X118838056Y-122777128D01*
X118838061Y-122777128D01*
X118844513Y-122778500D01*
X119035487Y-122778500D01*
X119041939Y-122777128D01*
X119041944Y-122777128D01*
X119128888Y-122758647D01*
X119222288Y-122738794D01*
X119234848Y-122733202D01*
X119390722Y-122663803D01*
X119390724Y-122663802D01*
X119396752Y-122661118D01*
X119551253Y-122548866D01*
X119569591Y-122528500D01*
X119674621Y-122411852D01*
X119674622Y-122411851D01*
X119679040Y-122406944D01*
X119774527Y-122241556D01*
X119833542Y-122059928D01*
X119853504Y-121870000D01*
X119852814Y-121863433D01*
X119846915Y-121807303D01*
X119859688Y-121737465D01*
X119908190Y-121685619D01*
X119977023Y-121668225D01*
X120023471Y-121679026D01*
X120157712Y-121738794D01*
X120251112Y-121758647D01*
X120338056Y-121777128D01*
X120338061Y-121777128D01*
X120344513Y-121778500D01*
X120535487Y-121778500D01*
X120541939Y-121777128D01*
X120541944Y-121777128D01*
X120628888Y-121758647D01*
X120722288Y-121738794D01*
X120841722Y-121685619D01*
X120890722Y-121663803D01*
X120890724Y-121663802D01*
X120896752Y-121661118D01*
X121051253Y-121548866D01*
X121156222Y-121432286D01*
X121174621Y-121411852D01*
X121174622Y-121411851D01*
X121179040Y-121406944D01*
X121274527Y-121241556D01*
X121333542Y-121059928D01*
X121345512Y-120946045D01*
X121352814Y-120876565D01*
X121353504Y-120870000D01*
X121352814Y-120863433D01*
X121346915Y-120807303D01*
X121359688Y-120737465D01*
X121408190Y-120685619D01*
X121477023Y-120668225D01*
X121523471Y-120679026D01*
X121657712Y-120738794D01*
X121716106Y-120751206D01*
X121838056Y-120777128D01*
X121838061Y-120777128D01*
X121844513Y-120778500D01*
X122035487Y-120778500D01*
X122041939Y-120777128D01*
X122041944Y-120777128D01*
X122163894Y-120751206D01*
X122222288Y-120738794D01*
X122341722Y-120685619D01*
X122390722Y-120663803D01*
X122390724Y-120663802D01*
X122396752Y-120661118D01*
X122551253Y-120548866D01*
X122679040Y-120406944D01*
X122774527Y-120241556D01*
X122833542Y-120059928D01*
X122853504Y-119870000D01*
X122852814Y-119863433D01*
X122846915Y-119807303D01*
X122859688Y-119737465D01*
X122908190Y-119685619D01*
X122977023Y-119668225D01*
X123023471Y-119679026D01*
X123157712Y-119738794D01*
X123251113Y-119758647D01*
X123338056Y-119777128D01*
X123338061Y-119777128D01*
X123344513Y-119778500D01*
X123535487Y-119778500D01*
X123541939Y-119777128D01*
X123541944Y-119777128D01*
X123628887Y-119758647D01*
X123722288Y-119738794D01*
X123841722Y-119685619D01*
X123890722Y-119663803D01*
X123890724Y-119663802D01*
X123896752Y-119661118D01*
X124051253Y-119548866D01*
X124179040Y-119406944D01*
X124274527Y-119241556D01*
X124333542Y-119059928D01*
X124353504Y-118870000D01*
X124333542Y-118680072D01*
X124274527Y-118498444D01*
X124179040Y-118333056D01*
X124105863Y-118251785D01*
X124075147Y-118187779D01*
X124073500Y-118167476D01*
X124073500Y-97288024D01*
X124093502Y-97219903D01*
X124105858Y-97203721D01*
X124179040Y-97122444D01*
X124274527Y-96957056D01*
X124333542Y-96775428D01*
X124353504Y-96585500D01*
X124333542Y-96395572D01*
X124274527Y-96213944D01*
X124179040Y-96048556D01*
X124051253Y-95906634D01*
X123896752Y-95794382D01*
X123890724Y-95791698D01*
X123890722Y-95791697D01*
X123728319Y-95719391D01*
X123728318Y-95719391D01*
X123722288Y-95716706D01*
X123628887Y-95696853D01*
X123541944Y-95678372D01*
X123541939Y-95678372D01*
X123535487Y-95677000D01*
X123344513Y-95677000D01*
X123338061Y-95678372D01*
X123338056Y-95678372D01*
X123251113Y-95696853D01*
X123157712Y-95716706D01*
X123151682Y-95719391D01*
X123151681Y-95719391D01*
X122989278Y-95791697D01*
X122989276Y-95791698D01*
X122983248Y-95794382D01*
X122828747Y-95906634D01*
X122700960Y-96048556D01*
X122605473Y-96213944D01*
X122546458Y-96395572D01*
X122526496Y-96585500D01*
X122546458Y-96775428D01*
X122595787Y-96927246D01*
X122597815Y-96998212D01*
X122561152Y-97059010D01*
X122497440Y-97090335D01*
X122426906Y-97082243D01*
X122407856Y-97071485D01*
X122407811Y-97071564D01*
X122402093Y-97068263D01*
X122396752Y-97064382D01*
X122390724Y-97061698D01*
X122390722Y-97061697D01*
X122228319Y-96989391D01*
X122228318Y-96989391D01*
X122222288Y-96986706D01*
X122103704Y-96961500D01*
X122041944Y-96948372D01*
X122041939Y-96948372D01*
X122035487Y-96947000D01*
X121844513Y-96947000D01*
X121838061Y-96948372D01*
X121838056Y-96948372D01*
X121776296Y-96961500D01*
X121657712Y-96986706D01*
X121651682Y-96989391D01*
X121651681Y-96989391D01*
X121489278Y-97061697D01*
X121489276Y-97061698D01*
X121483248Y-97064382D01*
X121477907Y-97068262D01*
X121477906Y-97068263D01*
X121457949Y-97082763D01*
X121328747Y-97176634D01*
X121324326Y-97181544D01*
X121324325Y-97181545D01*
X121258724Y-97254403D01*
X121200960Y-97318556D01*
X121105473Y-97483944D01*
X121046458Y-97665572D01*
X121026496Y-97855500D01*
X121046458Y-98045428D01*
X121048498Y-98051706D01*
X121093447Y-98190045D01*
X121095475Y-98261012D01*
X121058812Y-98321810D01*
X120995100Y-98353136D01*
X120924566Y-98345043D01*
X120908021Y-98335700D01*
X120907811Y-98336064D01*
X120902093Y-98332763D01*
X120896752Y-98328882D01*
X120890724Y-98326198D01*
X120890722Y-98326197D01*
X120728319Y-98253891D01*
X120728318Y-98253891D01*
X120722288Y-98251206D01*
X120608672Y-98227056D01*
X120541944Y-98212872D01*
X120541939Y-98212872D01*
X120535487Y-98211500D01*
X120344513Y-98211500D01*
X120338061Y-98212872D01*
X120338056Y-98212872D01*
X120271328Y-98227056D01*
X120157712Y-98251206D01*
X120151682Y-98253891D01*
X120151681Y-98253891D01*
X119989278Y-98326197D01*
X119989276Y-98326198D01*
X119983248Y-98328882D01*
X119828747Y-98441134D01*
X119700960Y-98583056D01*
X119605473Y-98748444D01*
X119546458Y-98930072D01*
X119526496Y-99120000D01*
X119546458Y-99309928D01*
X119548498Y-99316206D01*
X119587481Y-99436183D01*
X119589509Y-99507150D01*
X119552846Y-99567948D01*
X119489134Y-99599274D01*
X119418600Y-99591181D01*
X119404645Y-99584236D01*
X119402093Y-99582762D01*
X119396752Y-99578882D01*
X119390722Y-99576197D01*
X119228319Y-99503891D01*
X119228318Y-99503891D01*
X119222288Y-99501206D01*
X119127566Y-99481072D01*
X119041944Y-99462872D01*
X119041939Y-99462872D01*
X119035487Y-99461500D01*
X118844513Y-99461500D01*
X118838061Y-99462872D01*
X118838056Y-99462872D01*
X118752434Y-99481072D01*
X118657712Y-99501206D01*
X118651682Y-99503891D01*
X118651681Y-99503891D01*
X118489278Y-99576197D01*
X118489276Y-99576198D01*
X118483248Y-99578882D01*
X118328747Y-99691134D01*
X118200960Y-99833056D01*
X118105473Y-99998444D01*
X118046458Y-100180072D01*
X118026496Y-100370000D01*
X118046458Y-100559928D01*
X118048498Y-100566206D01*
X118087481Y-100686183D01*
X118089509Y-100757150D01*
X118052846Y-100817948D01*
X117989134Y-100849274D01*
X117918600Y-100841181D01*
X117904645Y-100834236D01*
X117902093Y-100832762D01*
X117896752Y-100828882D01*
X117890722Y-100826197D01*
X117728319Y-100753891D01*
X117728318Y-100753891D01*
X117722288Y-100751206D01*
X117628887Y-100731353D01*
X117541944Y-100712872D01*
X117541939Y-100712872D01*
X117535487Y-100711500D01*
X117344513Y-100711500D01*
X117338061Y-100712872D01*
X117338056Y-100712872D01*
X117251113Y-100731353D01*
X117157712Y-100751206D01*
X117151682Y-100753891D01*
X117151681Y-100753891D01*
X116989278Y-100826197D01*
X116989276Y-100826198D01*
X116983248Y-100828882D01*
X116828747Y-100941134D01*
X116700960Y-101083056D01*
X116605473Y-101248444D01*
X116546458Y-101430072D01*
X116526496Y-101620000D01*
X116546458Y-101809928D01*
X116548498Y-101816206D01*
X116587481Y-101936183D01*
X116589509Y-102007150D01*
X116552846Y-102067948D01*
X116489134Y-102099274D01*
X116418600Y-102091181D01*
X116404645Y-102084236D01*
X116402093Y-102082762D01*
X116396752Y-102078882D01*
X116390722Y-102076197D01*
X116228319Y-102003891D01*
X116228318Y-102003891D01*
X116222288Y-102001206D01*
X116128887Y-101981353D01*
X116041944Y-101962872D01*
X116041939Y-101962872D01*
X116035487Y-101961500D01*
X115844513Y-101961500D01*
X115838061Y-101962872D01*
X115838056Y-101962872D01*
X115751112Y-101981353D01*
X115657712Y-102001206D01*
X115651682Y-102003891D01*
X115651681Y-102003891D01*
X115489278Y-102076197D01*
X115489276Y-102076198D01*
X115483248Y-102078882D01*
X115328747Y-102191134D01*
X115200960Y-102333056D01*
X115105473Y-102498444D01*
X115046458Y-102680072D01*
X115026496Y-102870000D01*
X115046458Y-103059928D01*
X115048498Y-103066206D01*
X115087481Y-103186183D01*
X115089509Y-103257150D01*
X115052846Y-103317948D01*
X114989134Y-103349274D01*
X114918600Y-103341181D01*
X114904645Y-103334236D01*
X114902093Y-103332762D01*
X114896752Y-103328882D01*
X114890722Y-103326197D01*
X114728319Y-103253891D01*
X114728318Y-103253891D01*
X114722288Y-103251206D01*
X114628888Y-103231353D01*
X114541944Y-103212872D01*
X114541939Y-103212872D01*
X114535487Y-103211500D01*
X114344513Y-103211500D01*
X114338061Y-103212872D01*
X114338056Y-103212872D01*
X114251112Y-103231353D01*
X114157712Y-103251206D01*
X114151682Y-103253891D01*
X114151681Y-103253891D01*
X113989278Y-103326197D01*
X113989276Y-103326198D01*
X113983248Y-103328882D01*
X113828747Y-103441134D01*
X113700960Y-103583056D01*
X113697659Y-103588774D01*
X113626011Y-103712872D01*
X113605473Y-103748444D01*
X113546458Y-103930072D01*
X113526496Y-104120000D01*
X113546458Y-104309928D01*
X113605473Y-104491556D01*
X113700960Y-104656944D01*
X113774137Y-104738215D01*
X113804853Y-104802221D01*
X113806500Y-104822524D01*
X113806500Y-124167476D01*
X113786498Y-124235597D01*
X113774142Y-124251779D01*
X113700960Y-124333056D01*
X113697659Y-124338774D01*
X113616890Y-124478670D01*
X113605473Y-124498444D01*
X113546458Y-124680072D01*
X113526496Y-124870000D01*
X103513500Y-124870000D01*
X103513500Y-78829500D01*
X103533502Y-78761379D01*
X103587158Y-78714886D01*
X103639500Y-78703500D01*
X149770500Y-78703500D01*
X149838621Y-78723502D01*
G37*
G04 #@! TD.AperFunction*
M02*
