M48
; DRILL file {KiCad (6.0.6)} date Sun Oct 30 23:00:24 2022
; FORMAT={-:-/ absolute / metric / decimal}
; #@! TF.CreationDate,2022-10-30T23:00:24-04:00
; #@! TF.GenerationSoftware,Kicad,Pcbnew,(6.0.6)
; #@! TF.FileFunction,Plated,1,2,PTH
FMAT,2
METRIC
; #@! TA.AperFunction,Plated,PTH,ViaDrill
T1C0.400
%
G90
G05
T1
X107.94Y-91.62
X114.44Y-103.62
X114.44Y-114.37
X115.929Y-102.3
X115.94Y-114.37
X117.44Y-101.02
X117.44Y-114.37
X118.94Y-99.751
X118.94Y-114.37
X120.44Y-98.37
X120.44Y-114.37
X121.94Y-97.21
X121.94Y-114.37
X123.44Y-95.87
X123.44Y-114.37
X124.69Y-114.37
X130.19Y-93.37
X132.69Y-117.62
X133.69Y-119.12
X134.69Y-121.12
X134.94Y-93.12
X135.44Y-100.62
X135.69Y-122.62
X135.69Y-128.87
X135.69Y-130.37
X136.19Y-93.12
X136.69Y-111.12
X138.94Y-88.62
X139.94Y-103.12
X140.44Y-96.62
X140.69Y-98.12
X141.19Y-101.02
X141.44Y-92.145
X150.19Y-119.87
T0
M30
