G04 #@! TF.GenerationSoftware,KiCad,Pcbnew,(6.0.6)*
G04 #@! TF.CreationDate,2022-10-30T23:00:03-04:00*
G04 #@! TF.ProjectId,isaacCart,69736161-6343-4617-9274-2e6b69636164,rev?*
G04 #@! TF.SameCoordinates,Original*
G04 #@! TF.FileFunction,Legend,Top*
G04 #@! TF.FilePolarity,Positive*
%FSLAX46Y46*%
G04 Gerber Fmt 4.6, Leading zero omitted, Abs format (unit mm)*
G04 Created by KiCad (PCBNEW (6.0.6)) date 2022-10-30 23:00:03*
%MOMM*%
%LPD*%
G01*
G04 APERTURE LIST*
G04 Aperture macros list*
%AMRoundRect*
0 Rectangle with rounded corners*
0 $1 Rounding radius*
0 $2 $3 $4 $5 $6 $7 $8 $9 X,Y pos of 4 corners*
0 Add a 4 corners polygon primitive as box body*
4,1,4,$2,$3,$4,$5,$6,$7,$8,$9,$2,$3,0*
0 Add four circle primitives for the rounded corners*
1,1,$1+$1,$2,$3*
1,1,$1+$1,$4,$5*
1,1,$1+$1,$6,$7*
1,1,$1+$1,$8,$9*
0 Add four rect primitives between the rounded corners*
20,1,$1+$1,$2,$3,$4,$5,0*
20,1,$1+$1,$4,$5,$6,$7,0*
20,1,$1+$1,$6,$7,$8,$9,0*
20,1,$1+$1,$8,$9,$2,$3,0*%
G04 Aperture macros list end*
%ADD10C,0.120000*%
%ADD11C,0.150000*%
%ADD12C,7.000000*%
%ADD13RoundRect,0.250000X0.312500X0.625000X-0.312500X0.625000X-0.312500X-0.625000X0.312500X-0.625000X0*%
%ADD14R,1.300000X6.000000*%
%ADD15R,1.000000X5.500000*%
%ADD16RoundRect,0.250000X-0.450000X-0.425000X0.450000X-0.425000X0.450000X0.425000X-0.450000X0.425000X0*%
%ADD17RoundRect,0.150000X-0.150000X-0.587500X0.150000X-0.587500X0.150000X0.587500X-0.150000X0.587500X0*%
%ADD18RoundRect,0.150000X-0.587500X-0.150000X0.587500X-0.150000X0.587500X0.150000X-0.587500X0.150000X0*%
G04 APERTURE END LIST*
D10*
X105831240Y-131373407D02*
X150916240Y-131373407D01*
D11*
X131803095Y-83697380D02*
X131803095Y-82697380D01*
X132041190Y-82697380D01*
X132184047Y-82745000D01*
X132279285Y-82840238D01*
X132326904Y-82935476D01*
X132374523Y-83125952D01*
X132374523Y-83268809D01*
X132326904Y-83459285D01*
X132279285Y-83554523D01*
X132184047Y-83649761D01*
X132041190Y-83697380D01*
X131803095Y-83697380D01*
X132945952Y-83697380D02*
X132850714Y-83649761D01*
X132803095Y-83602142D01*
X132755476Y-83506904D01*
X132755476Y-83221190D01*
X132803095Y-83125952D01*
X132850714Y-83078333D01*
X132945952Y-83030714D01*
X133088809Y-83030714D01*
X133184047Y-83078333D01*
X133231666Y-83125952D01*
X133279285Y-83221190D01*
X133279285Y-83506904D01*
X133231666Y-83602142D01*
X133184047Y-83649761D01*
X133088809Y-83697380D01*
X132945952Y-83697380D01*
X133850714Y-83697380D02*
X133755476Y-83649761D01*
X133707857Y-83602142D01*
X133660238Y-83506904D01*
X133660238Y-83221190D01*
X133707857Y-83125952D01*
X133755476Y-83078333D01*
X133850714Y-83030714D01*
X133993571Y-83030714D01*
X134088809Y-83078333D01*
X134136428Y-83125952D01*
X134184047Y-83221190D01*
X134184047Y-83506904D01*
X134136428Y-83602142D01*
X134088809Y-83649761D01*
X133993571Y-83697380D01*
X133850714Y-83697380D01*
X135374523Y-83697380D02*
X135374523Y-83030714D01*
X135374523Y-82697380D02*
X135326904Y-82745000D01*
X135374523Y-82792619D01*
X135422142Y-82745000D01*
X135374523Y-82697380D01*
X135374523Y-82792619D01*
X135707857Y-83030714D02*
X136088809Y-83030714D01*
X135850714Y-82697380D02*
X135850714Y-83554523D01*
X135898333Y-83649761D01*
X135993571Y-83697380D01*
X136088809Y-83697380D01*
X137041190Y-83030714D02*
X137422142Y-83030714D01*
X137184047Y-83697380D02*
X137184047Y-82840238D01*
X137231666Y-82745000D01*
X137326904Y-82697380D01*
X137422142Y-82697380D01*
X137898333Y-83697380D02*
X137803095Y-83649761D01*
X137755476Y-83602142D01*
X137707857Y-83506904D01*
X137707857Y-83221190D01*
X137755476Y-83125952D01*
X137803095Y-83078333D01*
X137898333Y-83030714D01*
X138041190Y-83030714D01*
X138136428Y-83078333D01*
X138184047Y-83125952D01*
X138231666Y-83221190D01*
X138231666Y-83506904D01*
X138184047Y-83602142D01*
X138136428Y-83649761D01*
X138041190Y-83697380D01*
X137898333Y-83697380D01*
X138660238Y-83697380D02*
X138660238Y-83030714D01*
X138660238Y-83221190D02*
X138707857Y-83125952D01*
X138755476Y-83078333D01*
X138850714Y-83030714D01*
X138945952Y-83030714D01*
X139898333Y-83030714D02*
X140279285Y-83030714D01*
X140041190Y-82697380D02*
X140041190Y-83554523D01*
X140088809Y-83649761D01*
X140184047Y-83697380D01*
X140279285Y-83697380D01*
X140612619Y-83697380D02*
X140612619Y-82697380D01*
X141041190Y-83697380D02*
X141041190Y-83173571D01*
X140993571Y-83078333D01*
X140898333Y-83030714D01*
X140755476Y-83030714D01*
X140660238Y-83078333D01*
X140612619Y-83125952D01*
X141898333Y-83649761D02*
X141803095Y-83697380D01*
X141612619Y-83697380D01*
X141517380Y-83649761D01*
X141469761Y-83554523D01*
X141469761Y-83173571D01*
X141517380Y-83078333D01*
X141612619Y-83030714D01*
X141803095Y-83030714D01*
X141898333Y-83078333D01*
X141945952Y-83173571D01*
X141945952Y-83268809D01*
X141469761Y-83364047D01*
X143136428Y-83697380D02*
X143136428Y-82697380D01*
X143517380Y-82697380D01*
X143612619Y-82745000D01*
X143660238Y-82792619D01*
X143707857Y-82887857D01*
X143707857Y-83030714D01*
X143660238Y-83125952D01*
X143612619Y-83173571D01*
X143517380Y-83221190D01*
X143136428Y-83221190D01*
X144136428Y-83697380D02*
X144136428Y-83030714D01*
X144136428Y-82697380D02*
X144088809Y-82745000D01*
X144136428Y-82792619D01*
X144184047Y-82745000D01*
X144136428Y-82697380D01*
X144136428Y-82792619D01*
X145041190Y-83030714D02*
X145041190Y-83840238D01*
X144993571Y-83935476D01*
X144945952Y-83983095D01*
X144850714Y-84030714D01*
X144707857Y-84030714D01*
X144612619Y-83983095D01*
X145041190Y-83649761D02*
X144945952Y-83697380D01*
X144755476Y-83697380D01*
X144660238Y-83649761D01*
X144612619Y-83602142D01*
X144565000Y-83506904D01*
X144565000Y-83221190D01*
X144612619Y-83125952D01*
X144660238Y-83078333D01*
X144755476Y-83030714D01*
X144945952Y-83030714D01*
X145041190Y-83078333D01*
X145469761Y-83649761D02*
X145565000Y-83697380D01*
X145755476Y-83697380D01*
X145850714Y-83649761D01*
X145898333Y-83554523D01*
X145898333Y-83506904D01*
X145850714Y-83411666D01*
X145755476Y-83364047D01*
X145612619Y-83364047D01*
X145517380Y-83316428D01*
X145469761Y-83221190D01*
X145469761Y-83173571D01*
X145517380Y-83078333D01*
X145612619Y-83030714D01*
X145755476Y-83030714D01*
X145850714Y-83078333D01*
X146326904Y-83602142D02*
X146374523Y-83649761D01*
X146326904Y-83697380D01*
X146279285Y-83649761D01*
X146326904Y-83602142D01*
X146326904Y-83697380D01*
X146326904Y-83316428D02*
X146279285Y-82745000D01*
X146326904Y-82697380D01*
X146374523Y-82745000D01*
X146326904Y-83316428D01*
X146326904Y-82697380D01*
X113451904Y-82697380D02*
X113690000Y-83697380D01*
X113880476Y-82983095D01*
X114070952Y-83697380D01*
X114309047Y-82697380D01*
X114690000Y-83697380D02*
X114690000Y-83030714D01*
X114690000Y-82697380D02*
X114642380Y-82745000D01*
X114690000Y-82792619D01*
X114737619Y-82745000D01*
X114690000Y-82697380D01*
X114690000Y-82792619D01*
X115309047Y-83697380D02*
X115213809Y-83649761D01*
X115166190Y-83554523D01*
X115166190Y-82697380D01*
X115832857Y-83697380D02*
X115737619Y-83649761D01*
X115690000Y-83554523D01*
X115690000Y-82697380D01*
X116118571Y-83030714D02*
X116356666Y-83697380D01*
X116594761Y-83030714D02*
X116356666Y-83697380D01*
X116261428Y-83935476D01*
X116213809Y-83983095D01*
X116118571Y-84030714D01*
X117737619Y-83697380D02*
X117737619Y-82697380D01*
X117975714Y-82697380D01*
X118118571Y-82745000D01*
X118213809Y-82840238D01*
X118261428Y-82935476D01*
X118309047Y-83125952D01*
X118309047Y-83268809D01*
X118261428Y-83459285D01*
X118213809Y-83554523D01*
X118118571Y-83649761D01*
X117975714Y-83697380D01*
X117737619Y-83697380D01*
X118880476Y-83697380D02*
X118785238Y-83649761D01*
X118737619Y-83602142D01*
X118690000Y-83506904D01*
X118690000Y-83221190D01*
X118737619Y-83125952D01*
X118785238Y-83078333D01*
X118880476Y-83030714D01*
X119023333Y-83030714D01*
X119118571Y-83078333D01*
X119166190Y-83125952D01*
X119213809Y-83221190D01*
X119213809Y-83506904D01*
X119166190Y-83602142D01*
X119118571Y-83649761D01*
X119023333Y-83697380D01*
X118880476Y-83697380D01*
X119785238Y-83697380D02*
X119690000Y-83649761D01*
X119642380Y-83602142D01*
X119594761Y-83506904D01*
X119594761Y-83221190D01*
X119642380Y-83125952D01*
X119690000Y-83078333D01*
X119785238Y-83030714D01*
X119928095Y-83030714D01*
X120023333Y-83078333D01*
X120070952Y-83125952D01*
X120118571Y-83221190D01*
X120118571Y-83506904D01*
X120070952Y-83602142D01*
X120023333Y-83649761D01*
X119928095Y-83697380D01*
X119785238Y-83697380D01*
X121309047Y-83697380D02*
X121309047Y-82697380D01*
X121547142Y-82697380D01*
X121690000Y-82745000D01*
X121785238Y-82840238D01*
X121832857Y-82935476D01*
X121880476Y-83125952D01*
X121880476Y-83268809D01*
X121832857Y-83459285D01*
X121785238Y-83554523D01*
X121690000Y-83649761D01*
X121547142Y-83697380D01*
X121309047Y-83697380D01*
X122309047Y-83697380D02*
X122309047Y-82697380D01*
X122642380Y-83411666D01*
X122975714Y-82697380D01*
X122975714Y-83697380D01*
X123975714Y-82745000D02*
X123880476Y-82697380D01*
X123737619Y-82697380D01*
X123594761Y-82745000D01*
X123499523Y-82840238D01*
X123451904Y-82935476D01*
X123404285Y-83125952D01*
X123404285Y-83268809D01*
X123451904Y-83459285D01*
X123499523Y-83554523D01*
X123594761Y-83649761D01*
X123737619Y-83697380D01*
X123832857Y-83697380D01*
X123975714Y-83649761D01*
X124023333Y-83602142D01*
X124023333Y-83268809D01*
X123832857Y-83268809D01*
X125785238Y-83602142D02*
X125737619Y-83649761D01*
X125594761Y-83697380D01*
X125499523Y-83697380D01*
X125356666Y-83649761D01*
X125261428Y-83554523D01*
X125213809Y-83459285D01*
X125166190Y-83268809D01*
X125166190Y-83125952D01*
X125213809Y-82935476D01*
X125261428Y-82840238D01*
X125356666Y-82745000D01*
X125499523Y-82697380D01*
X125594761Y-82697380D01*
X125737619Y-82745000D01*
X125785238Y-82792619D01*
X126642380Y-83697380D02*
X126642380Y-83173571D01*
X126594761Y-83078333D01*
X126499523Y-83030714D01*
X126309047Y-83030714D01*
X126213809Y-83078333D01*
X126642380Y-83649761D02*
X126547142Y-83697380D01*
X126309047Y-83697380D01*
X126213809Y-83649761D01*
X126166190Y-83554523D01*
X126166190Y-83459285D01*
X126213809Y-83364047D01*
X126309047Y-83316428D01*
X126547142Y-83316428D01*
X126642380Y-83268809D01*
X127118571Y-83697380D02*
X127118571Y-83030714D01*
X127118571Y-83221190D02*
X127166190Y-83125952D01*
X127213809Y-83078333D01*
X127309047Y-83030714D01*
X127404285Y-83030714D01*
X127594761Y-83030714D02*
X127975714Y-83030714D01*
X127737619Y-82697380D02*
X127737619Y-83554523D01*
X127785238Y-83649761D01*
X127880476Y-83697380D01*
X127975714Y-83697380D01*
X111148333Y-94072380D02*
X110815000Y-93596190D01*
X110576904Y-94072380D02*
X110576904Y-93072380D01*
X110957857Y-93072380D01*
X111053095Y-93120000D01*
X111100714Y-93167619D01*
X111148333Y-93262857D01*
X111148333Y-93405714D01*
X111100714Y-93500952D01*
X111053095Y-93548571D01*
X110957857Y-93596190D01*
X110576904Y-93596190D01*
X112100714Y-94072380D02*
X111529285Y-94072380D01*
X111815000Y-94072380D02*
X111815000Y-93072380D01*
X111719761Y-93215238D01*
X111624523Y-93310476D01*
X111529285Y-93358095D01*
X105276954Y-131135787D02*
X104705525Y-131135787D01*
X104991240Y-131135787D02*
X104991240Y-130135787D01*
X104896001Y-130278645D01*
X104800763Y-130373883D01*
X104705525Y-130421502D01*
X151081716Y-130135787D02*
X151700763Y-130135787D01*
X151367430Y-130516740D01*
X151510287Y-130516740D01*
X151605525Y-130564359D01*
X151653144Y-130611978D01*
X151700763Y-130707216D01*
X151700763Y-130945311D01*
X151653144Y-131040549D01*
X151605525Y-131088168D01*
X151510287Y-131135787D01*
X151224573Y-131135787D01*
X151129335Y-131088168D01*
X151081716Y-131040549D01*
X152081716Y-130231026D02*
X152129335Y-130183407D01*
X152224573Y-130135787D01*
X152462668Y-130135787D01*
X152557906Y-130183407D01*
X152605525Y-130231026D01*
X152653144Y-130326264D01*
X152653144Y-130421502D01*
X152605525Y-130564359D01*
X152034097Y-131135787D01*
X152653144Y-131135787D01*
X111273333Y-87727142D02*
X111225714Y-87774761D01*
X111082857Y-87822380D01*
X110987619Y-87822380D01*
X110844761Y-87774761D01*
X110749523Y-87679523D01*
X110701904Y-87584285D01*
X110654285Y-87393809D01*
X110654285Y-87250952D01*
X110701904Y-87060476D01*
X110749523Y-86965238D01*
X110844761Y-86870000D01*
X110987619Y-86822380D01*
X111082857Y-86822380D01*
X111225714Y-86870000D01*
X111273333Y-86917619D01*
X112225714Y-87822380D02*
X111654285Y-87822380D01*
X111940000Y-87822380D02*
X111940000Y-86822380D01*
X111844761Y-86965238D01*
X111749523Y-87060476D01*
X111654285Y-87108095D01*
X136803095Y-92677380D02*
X136803095Y-93486904D01*
X136850714Y-93582142D01*
X136898333Y-93629761D01*
X136993571Y-93677380D01*
X137184047Y-93677380D01*
X137279285Y-93629761D01*
X137326904Y-93582142D01*
X137374523Y-93486904D01*
X137374523Y-92677380D01*
X138374523Y-93677380D02*
X137803095Y-93677380D01*
X138088809Y-93677380D02*
X138088809Y-92677380D01*
X137993571Y-92820238D01*
X137898333Y-92915476D01*
X137803095Y-92963095D01*
D10*
X112167064Y-94460000D02*
X110712936Y-94460000D01*
X112167064Y-96280000D02*
X110712936Y-96280000D01*
X109130000Y-90055000D02*
X113040000Y-90055000D01*
X109130000Y-88185000D02*
X109130000Y-90055000D01*
X113040000Y-88185000D02*
X109130000Y-88185000D01*
X128675000Y-91585000D02*
X146455000Y-91585000D01*
X131740000Y-108840000D02*
X131740000Y-107385000D01*
X141935000Y-94650000D02*
X143390000Y-94650000D01*
X133195000Y-108840000D02*
X131740000Y-108840000D01*
X128675000Y-111905000D02*
X128675000Y-91585000D01*
X146455000Y-111905000D02*
X128675000Y-111905000D01*
X143390000Y-108840000D02*
X143390000Y-107385000D01*
X131740000Y-95822218D02*
X131740000Y-96105000D01*
X146455000Y-91585000D02*
X146455000Y-111905000D01*
X141935000Y-108840000D02*
X143390000Y-108840000D01*
X143390000Y-94650000D02*
X143390000Y-96105000D01*
X133195000Y-94650000D02*
X132912218Y-94650000D01*
X132912218Y-94650000D02*
X131740000Y-95822218D01*
%LPC*%
D12*
X128691240Y-123993407D03*
D13*
X112902500Y-95370000D03*
X109977500Y-95370000D03*
D14*
X105291240Y-135183407D03*
D15*
X106941240Y-134933407D03*
X108441240Y-134933407D03*
X109941240Y-134933407D03*
X111441240Y-134933407D03*
X112941240Y-134933407D03*
X114441240Y-134933407D03*
X115941240Y-134933407D03*
X117441240Y-134933407D03*
X118941240Y-134933407D03*
X120441240Y-134933407D03*
X121941240Y-134933407D03*
X123441240Y-134933407D03*
X124941240Y-134933407D03*
X126441240Y-134933407D03*
X127941240Y-134933407D03*
X129441240Y-134933407D03*
X130941240Y-134933407D03*
X132441240Y-134933407D03*
X133941240Y-134933407D03*
X135441240Y-134933407D03*
X136941240Y-134933407D03*
X138441240Y-134933407D03*
X139941240Y-134933407D03*
X141441240Y-134933407D03*
X142941240Y-134933407D03*
X144441240Y-134933407D03*
X145941240Y-134933407D03*
X147441240Y-134933407D03*
X148941240Y-134933407D03*
X150441240Y-134933407D03*
D14*
X152091240Y-135183407D03*
D16*
X110090000Y-89120000D03*
X112790000Y-89120000D03*
D17*
X137565000Y-94907500D03*
X136295000Y-94907500D03*
X135025000Y-94907500D03*
X133755000Y-94907500D03*
D18*
X132002500Y-96665000D03*
X132002500Y-97935000D03*
X132002500Y-99205000D03*
X132002500Y-100475000D03*
X132002500Y-101745000D03*
X132002500Y-103015000D03*
X132002500Y-104285000D03*
X132002500Y-105555000D03*
X132002500Y-106825000D03*
D17*
X133755000Y-108582500D03*
X135025000Y-108582500D03*
X136295000Y-108582500D03*
X137565000Y-108582500D03*
X138835000Y-108582500D03*
X140105000Y-108582500D03*
X141375000Y-108582500D03*
D18*
X143127500Y-106825000D03*
X143127500Y-105555000D03*
X143127500Y-104285000D03*
X143127500Y-103015000D03*
X143127500Y-101745000D03*
X143127500Y-100475000D03*
X143127500Y-99205000D03*
X143127500Y-97935000D03*
X143127500Y-96665000D03*
D17*
X141375000Y-94907500D03*
X140105000Y-94907500D03*
X138835000Y-94907500D03*
M02*
