<svg version="1.1" xmlns="http://www.w3.org/2000/svg" xmlns:xlink="http://www.w3.org/1999/xlink" stroke-linecap="round" stroke-linejoin="round" stroke-width="0" fill-rule="evenodd" clip-rule="evenodd" id="P82OxhQsCQfkmswdxv9p_bottom" viewBox="103005 -139195 51400 61000" width="51.4mm" height="61mm" class="w-100 h-100"><defs><style>.P82OxhQsCQfkmswdxv9p_fr4 {color: #666666;}
.P82OxhQsCQfkmswdxv9p_cu {color: #cccccc;}
.P82OxhQsCQfkmswdxv9p_cf {color: #cc9933;}
.P82OxhQsCQfkmswdxv9p_sm {color: #004200; opacity: 0.75;}
.P82OxhQsCQfkmswdxv9p_ss {color: #ffffff;}
.P82OxhQsCQfkmswdxv9p_sp {color: #999999;}
.P82OxhQsCQfkmswdxv9p_out {color: #000000;}</style><circle cx="0" cy="0" r="3500" id="HgOjUtIdmA1nneKo1wlk_pad-10"/><circle cx="0" cy="0" r="400" id="nJtfKOoX8WtWP76hGg0y_pad-10"/><circle cx="0" cy="0" r="3500" id="pWMoywOpLYDoO4pvaK85_pad-11"/><mask id="pWMoywOpLYDoO4pvaK85_clear-1" fill="#000" stroke="#000"><g><rect x="131870.952" y="-85077.38" width="19388.095" height="2760" fill="#fff"/><use xlink:href="#pWMoywOpLYDoO4pvaK85_pad-11" x="128691.24" y="-123993.407"/></g></mask><circle cx="0" cy="0" r="3500" id="sykJNG5iHLCmqrjWIfYm_pad-1"/><circle cx="0" cy="0" r="200" id="w5P2NZdVDMfVy2qzJvUI_pad-1"/><g id="P82OxhQsCQfkmswdxv9p_bottom_soldermask"><use xlink:href="#HgOjUtIdmA1nneKo1wlk_pad-10" x="128691.24" y="-123993.407"/></g><g id="P82OxhQsCQfkmswdxv9p_bottom_copper"><use xlink:href="#nJtfKOoX8WtWP76hGg0y_pad-10" x="138940" y="-88620"/><use xlink:href="#nJtfKOoX8WtWP76hGg0y_pad-10" x="107940" y="-91620"/><use xlink:href="#nJtfKOoX8WtWP76hGg0y_pad-10" x="135440" y="-100620"/><use xlink:href="#nJtfKOoX8WtWP76hGg0y_pad-10" x="130190" y="-93370"/><use xlink:href="#nJtfKOoX8WtWP76hGg0y_pad-10" x="114440" y="-103620"/><use xlink:href="#nJtfKOoX8WtWP76hGg0y_pad-10" x="114440" y="-114370"/><use xlink:href="#nJtfKOoX8WtWP76hGg0y_pad-10" x="115928.59" y="-102299.913"/><use xlink:href="#nJtfKOoX8WtWP76hGg0y_pad-10" x="115940" y="-114370"/><use xlink:href="#nJtfKOoX8WtWP76hGg0y_pad-10" x="117440" y="-101020.5"/><use xlink:href="#nJtfKOoX8WtWP76hGg0y_pad-10" x="117440" y="-114370"/><use xlink:href="#nJtfKOoX8WtWP76hGg0y_pad-10" x="118940" y="-114370"/><use xlink:href="#nJtfKOoX8WtWP76hGg0y_pad-10" x="118940" y="-99750.5"/><use xlink:href="#nJtfKOoX8WtWP76hGg0y_pad-10" x="120440" y="-98370"/><use xlink:href="#nJtfKOoX8WtWP76hGg0y_pad-10" x="120440" y="-114370"/><use xlink:href="#nJtfKOoX8WtWP76hGg0y_pad-10" x="121940" y="-97210.5"/><use xlink:href="#nJtfKOoX8WtWP76hGg0y_pad-10" x="121940" y="-114370"/><use xlink:href="#nJtfKOoX8WtWP76hGg0y_pad-10" x="123440" y="-114370"/><use xlink:href="#nJtfKOoX8WtWP76hGg0y_pad-10" x="123440" y="-95870"/><use xlink:href="#nJtfKOoX8WtWP76hGg0y_pad-10" x="124690" y="-114370"/><use xlink:href="#nJtfKOoX8WtWP76hGg0y_pad-10" x="140440" y="-96620"/><use xlink:href="#nJtfKOoX8WtWP76hGg0y_pad-10" x="132690" y="-117620"/><use xlink:href="#nJtfKOoX8WtWP76hGg0y_pad-10" x="140690" y="-98120"/><use xlink:href="#nJtfKOoX8WtWP76hGg0y_pad-10" x="139940" y="-103120"/><use xlink:href="#nJtfKOoX8WtWP76hGg0y_pad-10" x="133690" y="-119120"/><use xlink:href="#nJtfKOoX8WtWP76hGg0y_pad-10" x="141190" y="-101020.5"/><use xlink:href="#nJtfKOoX8WtWP76hGg0y_pad-10" x="134690" y="-121120"/><use xlink:href="#nJtfKOoX8WtWP76hGg0y_pad-10" x="134940" y="-93120"/><use xlink:href="#nJtfKOoX8WtWP76hGg0y_pad-10" x="135690" y="-122620"/><use xlink:href="#nJtfKOoX8WtWP76hGg0y_pad-10" x="141440" y="-92145.5"/><use xlink:href="#nJtfKOoX8WtWP76hGg0y_pad-10" x="135690" y="-128870"/><use xlink:href="#nJtfKOoX8WtWP76hGg0y_pad-10" x="135690" y="-130370"/><use xlink:href="#nJtfKOoX8WtWP76hGg0y_pad-10" x="136190" y="-93120"/><use xlink:href="#nJtfKOoX8WtWP76hGg0y_pad-10" x="136690" y="-111120"/><use xlink:href="#nJtfKOoX8WtWP76hGg0y_pad-10" x="150190" y="-119870"/><path d="M 122190 -91620 125940 -87870 M 138190 -87870 138940 -88620 M 107940 -91620 122190 -91620 M 125940 -87870 138190 -87870 M 130190 -93370 130190 -96620 M 134190 -99370 135440 -100620 M 132940 -99370 134190 -99370 M 130190 -96620 132940 -99370 M 114440 -103620 114440 -114370 M 115928.59 -114108.59 115940 -114120 115940 -114370 M 115928.59 -102299.913 115928.59 -114108.59 M 117440 -114370 117440 -101020.5 M 118940 -99750.5 118940 -113620 118940 -114370 M 120440 -98370 120440 -114120 120440 -114370 M 121940 -113870 121940 -114370 M 121940 -97210.5 121940 -113870 M 123440 -95870 123440 -114120 123440 -114370 M 139940 -99120 139940 -97120 140440 -96620 M 124690 -114370 139940 -99120 M 140690 -99870 140690 -98120 M 132690 -117620 132690 -107870 140690 -99870 M 139440 -103120 139940 -103120 M 133690 -119120 133690 -108870 139440 -103120 M 134690 -109620 134690 -121120 M 140940 -101270.5 140940 -103370 134690 -109620 M 141190 -101020.5 140940 -101270.5 M 134440 -92620 134940 -93120 M 110440 -106370 124190 -92620 134440 -92620 M 110440 -116870 110440 -106370 M 127644.076 -116870 110440 -116870 M 133394.076 -122620 127644.076 -116870 M 135690 -122620 133394.076 -122620 M 141440 -92145.5 140164.5 -90870 124690 -90870 M 135190 -128370 135690 -128870 M 124690 -90870 108440 -107120 M 108440 -128370 135190 -128370 M 108440 -107120 108440 -128370 M 143190 -102370 135758.198 -109801.802 M 141440 -92870 143190 -94620 M 139190 -127370 136190 -130370 M 136190 -93120 136440 -92870 M 143190 -94620 143190 -102370 M 136440 -92870 141440 -92870 M 136190 -130370 135690 -130370 M 135758.198 -109801.802 135758.198 -111213.503 M 139190 -114645.305 139190 -127370 M 135758.198 -111213.503 139190 -114645.305 M 136690 -111120 137190 -111120 M 145940 -119870 150190 -119870 M 137190 -111120 145940 -119870" fill="none" stroke-width="250"/><path d="M 149838.621 -78723.502 149885.114 -78777.158 149896.5 -78829.5 149896.5 -80786.377 149896.498 -80787.147 149896.024 -80864.721 149898.491 -80873.352 149904.15 -80893.153 149907.728 -80909.915 149911.92 -80939.187 149915.634 -80947.355 149915.634 -80947.356 149922.548 -80962.562 149928.996 -80980.086 149936.051 -81004.771 149940.843 -81012.365 149940.844 -81012.368 149951.83 -81029.78 149959.969 -81044.863 149972.208 -81071.782 149978.069 -81078.584 149988.97 -81091.235 150000.073 -81106.239 150013.776 -81127.958 150020.501 -81133.897 150020.504 -81133.901 150035.938 -81147.532 150047.982 -81159.724 150061.427 -81175.327 150061.43 -81175.329 150067.287 -81182.127 150074.816 -81187.007 150074.817 -81187.008 150088.835 -81196.094 150103.709 -81207.385 150116.217 -81218.431 150122.951 -81224.378 150149.711 -81236.942 150164.691 -81245.263 150181.983 -81256.471 150181.988 -81256.473 150189.515 -81261.352 150198.108 -81263.922 150198.113 -81263.924 150214.12 -81268.711 150231.564 -81275.372 150246.676 -81282.467 150246.678 -81282.468 150254.8 -81286.281 150263.667 -81287.662 150263.668 -81287.662 150273.31 -81289.163 150284.017 -81290.83 150300.732 -81294.613 150320.466 -81300.515 150320.472 -81300.516 150329.066 -81303.086 150338.037 -81303.141 150338.038 -81303.141 150348.097 -81303.202 150363.506 -81303.296 150364.289 -81303.329 150365.386 -81303.5 150396.377 -81303.5 150397.147 -81303.502 150470.785 -81303.952 150470.786 -81303.952 150474.721 -81303.976 150476.065 -81303.592 150477.41 -81303.5 153770.5 -81303.5 153838.621 -81323.502 153885.114 -81377.158 153896.5 -81429.5 153896.5 -129960.5 153876.498 -130028.621 153822.842 -130075.114 153770.5 -130086.5 153313.623 -130086.5 153312.853 -130086.498 153312.037 -130086.493 153235.279 -130086.024 153212.918 -130092.415 153206.847 -130094.15 153190.085 -130097.728 153160.813 -130101.92 153152.645 -130105.634 153152.644 -130105.634 153137.438 -130112.548 153119.914 -130118.996 153095.229 -130126.051 153087.635 -130130.843 153087.632 -130130.844 153070.22 -130141.83 153055.137 -130149.969 153028.218 -130162.208 153021.416 -130168.069 153008.765 -130178.97 152993.761 -130190.073 152972.042 -130203.776 152966.103 -130210.501 152966.099 -130210.504 152952.468 -130225.938 152940.276 -130237.982 152924.673 -130251.427 152924.671 -130251.43 152917.873 -130257.287 152912.993 -130264.816 152912.992 -130264.817 152903.906 -130278.835 152892.615 -130293.709 152881.569 -130306.217 152875.622 -130312.951 152869.312 -130326.391 152863.058 -130339.711 152854.737 -130354.691 152843.529 -130371.983 152843.527 -130371.988 152838.648 -130379.515 152836.078 -130388.108 152836.076 -130388.113 152831.289 -130404.12 152824.628 -130421.564 152817.533 -130436.676 152813.719 -130444.8 152812.338 -130453.667 152812.338 -130453.668 152809.17 -130474.015 152805.387 -130490.732 152799.485 -130510.466 152799.484 -130510.472 152796.914 -130519.066 152796.748 -130546.342 152796.704 -130553.497 152796.671 -130554.289 152796.5 -130555.386 152796.5 -130586.377 152796.498 -130587.147 152796.024 -130664.721 152796.408 -130666.065 152796.5 -130667.41 152796.5 -132494 152776.498 -132562.121 152722.842 -132608.614 152670.5 -132620 151566 -132620 151497.879 -132599.998 151451.386 -132546.342 151440 -132494 151440 -131120 136626.894 -131120 136558.773 -131099.998 136512.28 -131046.342 136502.176 -130976.068 136531.67 -130911.488 136562.754 -130885.547 136574.534 -130878.58 136581.362 -130874.542 136595.683 -130860.221 136610.717 -130847.38 136620.694 -130840.131 136627.107 -130835.472 136655.298 -130801.395 136663.288 -130792.616 139582.247 -127873.657 139590.537 -127866.113 139597.018 -127862 139643.659 -127812.332 139646.413 -127809.491 139666.135 -127789.769 139668.619 -127786.567 139676.317 -127777.555 139701.161 -127751.098 139706.586 -127745.321 139716.347 -127727.566 139727.198 -127711.047 139739.614 -127695.041 139757.174 -127654.463 139762.391 -127643.813 139783.695 -127605.06 139788.733 -127585.437 139795.137 -127566.734 139800.033 -127555.42 139800.033 -127555.419 139803.181 -127548.145 139804.42 -127540.322 139804.423 -127540.312 139810.099 -127504.476 139812.505 -127492.856 139821.528 -127457.711 139821.528 -127457.71 139823.5 -127450.03 139823.5 -127429.776 139825.051 -127410.065 139825.702 -127405.958 139828.22 -127390.057 139824.059 -127346.038 139823.5 -127334.181 139823.5 -114724.072 139824.027 -114712.889 139825.702 -114705.396 139823.562 -114637.305 139823.5 -114633.348 139823.5 -114605.449 139822.996 -114601.458 139822.063 -114589.616 139821.328 -114566.206 139820.674 -114545.416 139818.462 -114537.802 139818.461 -114537.797 139815.023 -114525.964 139811.012 -114506.6 139809.467 -114494.369 139808.474 -114486.508 139805.557 -114479.141 139805.556 -114479.136 139792.198 -114445.397 139788.354 -114434.17 139778.23 -114399.327 139776.018 -114391.712 139765.707 -114374.277 139757.012 -114356.529 139749.552 -114337.688 139723.564 -114301.918 139717.048 -114291.998 139698.58 -114260.77 139698.578 -114260.767 139694.542 -114253.943 139680.221 -114239.622 139667.38 -114224.588 139660.131 -114214.611 139655.472 -114208.198 139621.395 -114180.007 139612.616 -114172.017 136428.603 -110988.003 136394.577 -110925.691 136391.698 -110898.908 136391.698 -110116.396 136411.7 -110048.275 136428.603 -110027.301 143582.247 -102873.657 143590.537 -102866.113 143597.018 -102862 143643.659 -102812.332 143646.413 -102809.491 143666.134 -102789.77 143668.612 -102786.575 143676.318 -102777.553 143701.158 -102751.101 143706.586 -102745.321 143716.346 -102727.568 143727.199 -102711.045 143734.753 -102701.306 143739.613 -102695.041 143757.176 -102654.457 143762.383 -102643.827 143783.695 -102605.06 143785.666 -102597.383 143785.668 -102597.378 143788.732 -102585.442 143795.138 -102566.73 143800.033 -102555.419 143803.181 -102548.145 143804.421 -102540.317 143804.423 -102540.31 143810.099 -102504.476 143812.505 -102492.856 143821.528 -102457.711 143821.528 -102457.71 143823.5 -102450.03 143823.5 -102429.776 143825.051 -102410.065 143826.98 -102397.886 143828.22 -102390.057 143824.059 -102346.038 143823.5 -102334.181 143823.5 -94698.768 143824.027 -94687.585 143825.702 -94680.092 143823.562 -94612.001 143823.5 -94608.044 143823.5 -94580.144 143822.996 -94576.153 143822.063 -94564.311 143820.923 -94528.036 143820.674 -94520.111 143818.462 -94512.497 143818.461 -94512.492 143815.023 -94500.659 143811.012 -94481.295 143809.467 -94469.064 143808.474 -94461.203 143805.557 -94453.836 143805.556 -94453.831 143792.198 -94420.092 143788.354 -94408.865 143778.23 -94374.022 143776.018 -94366.407 143765.707 -94348.972 143757.012 -94331.224 143749.552 -94312.383 143723.564 -94276.613 143717.048 -94266.693 143698.58 -94235.465 143698.578 -94235.462 143694.542 -94228.638 143680.221 -94214.317 143667.38 -94199.283 143660.131 -94189.306 143655.472 -94182.893 143621.395 -94154.702 143612.616 -94146.712 142236.172 -92770.267 142202.146 -92707.955 142207.211 -92637.139 142216.148 -92618.172 142271.223 -92522.779 142271.224 -92522.778 142274.527 -92517.056 142333.542 -92335.428 142341.922 -92255.702 142352.814 -92152.065 142353.504 -92145.5 142345.609 -92070.386 142334.232 -91962.135 142334.232 -91962.133 142333.542 -91955.572 142274.527 -91773.944 142179.04 -91608.556 142051.253 -91466.634 141896.752 -91354.382 141890.724 -91351.698 141890.722 -91351.697 141728.319 -91279.391 141728.318 -91279.391 141722.288 -91276.706 141618.895 -91254.729 141541.944 -91238.372 141541.939 -91238.372 141535.487 -91237 141479.595 -91237 141411.474 -91216.998 141390.5 -91200.095 140668.152 -90477.747 140660.612 -90469.461 140656.5 -90462.982 140606.848 -90416.356 140604.007 -90413.602 140584.27 -90393.865 140581.073 -90391.385 140572.051 -90383.68 140545.6 -90358.841 140539.821 -90353.414 140532.875 -90349.595 140532.872 -90349.593 140522.066 -90343.652 140505.547 -90332.801 140505.083 -90332.441 140489.541 -90320.386 140482.272 -90317.241 140482.268 -90317.238 140448.963 -90302.826 140438.313 -90297.609 140399.56 -90276.305 140379.937 -90271.267 140361.234 -90264.863 140349.92 -90259.967 140349.919 -90259.967 140342.645 -90256.819 140334.822 -90255.58 140334.812 -90255.577 140298.976 -90249.901 140287.356 -90247.495 140252.211 -90238.472 140252.21 -90238.472 140244.53 -90236.5 140224.276 -90236.5 140204.565 -90234.949 140192.386 -90233.02 140184.557 -90231.78 140176.665 -90232.526 140140.539 -90235.941 140128.681 -90236.5 124773.594 -90236.5 124705.473 -90216.498 124658.98 -90162.842 124648.876 -90092.568 124678.37 -90027.988 124684.499 -90021.405 125403.156 -89302.749 126165.5 -88540.405 126227.812 -88506.379 126254.595 -88503.5 137875.406 -88503.5 137943.527 -88523.502 137964.501 -88540.405 137992.878 -88568.782 138026.904 -88631.094 138029.092 -88644.703 138046.458 -88809.928 138105.473 -88991.556 138200.96 -89156.944 138328.747 -89298.866 138483.248 -89411.118 138489.276 -89413.802 138489.278 -89413.803 138651.681 -89486.109 138657.712 -89488.794 138751.113 -89508.647 138838.056 -89527.128 138838.061 -89527.128 138844.513 -89528.5 139035.487 -89528.5 139041.939 -89527.128 139041.944 -89527.128 139128.887 -89508.647 139222.288 -89488.794 139228.319 -89486.109 139390.722 -89413.803 139390.724 -89413.802 139396.752 -89411.118 139551.253 -89298.866 139679.04 -89156.944 139774.527 -88991.556 139833.542 -88809.928 139853.504 -88620 139833.542 -88430.072 139774.527 -88248.444 139679.04 -88083.056 139551.253 -87941.134 139396.752 -87828.882 139390.724 -87826.198 139390.722 -87826.197 139228.319 -87753.891 139228.318 -87753.891 139222.288 -87751.206 139128.887 -87731.353 139041.944 -87712.872 139041.939 -87712.872 139035.487 -87711.5 138979.595 -87711.5 138911.474 -87691.498 138890.5 -87674.595 138693.652 -87477.747 138686.112 -87469.461 138682 -87462.982 138632.348 -87416.356 138629.507 -87413.602 138609.77 -87393.865 138606.573 -87391.385 138597.551 -87383.68 138584.122 -87371.069 138565.321 -87353.414 138558.375 -87349.595 138558.372 -87349.593 138547.566 -87343.652 138531.047 -87332.801 138530.583 -87332.441 138515.041 -87320.386 138507.772 -87317.241 138507.768 -87317.238 138474.463 -87302.826 138463.813 -87297.609 138425.06 -87276.305 138405.437 -87271.267 138386.734 -87264.863 138375.42 -87259.967 138375.419 -87259.967 138368.145 -87256.819 138360.322 -87255.58 138360.312 -87255.577 138324.476 -87249.901 138312.856 -87247.495 138277.711 -87238.472 138277.71 -87238.472 138270.03 -87236.5 138249.776 -87236.5 138230.065 -87234.949 138217.886 -87233.02 138210.057 -87231.78 138180.786 -87234.547 138166.039 -87235.941 138154.181 -87236.5 126018.767 -87236.5 126007.584 -87235.973 126000.091 -87234.298 125992.165 -87234.547 125992.164 -87234.547 125932.001 -87236.438 125928.043 -87236.5 125900.144 -87236.5 125896.154 -87237.004 125884.32 -87237.936 125840.111 -87239.326 125832.497 -87241.538 125832.492 -87241.539 125820.659 -87244.977 125801.296 -87248.988 125781.203 -87251.526 125773.836 -87254.443 125773.831 -87254.444 125740.092 -87267.802 125728.865 -87271.646 125686.407 -87283.982 125679.581 -87288.019 125668.972 -87294.293 125651.224 -87302.988 125632.383 -87310.448 125625.967 -87315.11 125625.966 -87315.11 125596.613 -87336.436 125586.693 -87342.952 125555.465 -87361.42 125555.462 -87361.422 125548.638 -87365.458 125534.317 -87379.779 125519.284 -87392.619 125502.893 -87404.528 125494.217 -87415.016 125474.702 -87438.605 125466.712 -87447.384 121964.5 -90949.595 121902.188 -90983.621 121875.405 -90986.5 108648.2 -90986.5 108580.079 -90966.498 108560.853 -90950.157 108560.58 -90950.46 108555.668 -90946.037 108551.253 -90941.134 108396.752 -90828.882 108390.724 -90826.198 108390.722 -90826.197 108228.319 -90753.891 108228.318 -90753.891 108222.288 -90751.206 108128.887 -90731.353 108041.944 -90712.872 108041.939 -90712.872 108035.487 -90711.5 107844.513 -90711.5 107838.061 -90712.872 107838.056 -90712.872 107751.113 -90731.353 107657.712 -90751.206 107651.682 -90753.891 107651.681 -90753.891 107489.278 -90826.197 107489.276 -90826.198 107483.248 -90828.882 107328.747 -90941.134 107324.326 -90946.044 107324.325 -90946.045 107290.492 -90983.621 107200.96 -91083.056 107105.473 -91248.444 107046.458 -91430.072 107026.496 -91620 107027.186 -91626.565 107043.337 -91780.229 107046.458 -91809.928 107105.473 -91991.556 107108.776 -91997.278 107108.777 -91997.279 107137.832 -92047.604 107200.96 -92156.944 107205.378 -92161.851 107205.379 -92161.852 107272.592 -92236.5 107328.747 -92298.866 107375.402 -92332.763 107474.953 -92405.091 107483.248 -92411.118 107489.276 -92413.802 107489.278 -92413.803 107550.665 -92441.134 107657.712 -92488.794 107751.113 -92508.647 107838.056 -92527.128 107838.061 -92527.128 107844.513 -92528.5 108035.487 -92528.5 108041.939 -92527.128 108041.944 -92527.128 108128.887 -92508.647 108222.288 -92488.794 108329.335 -92441.134 108390.722 -92413.803 108390.724 -92413.802 108396.752 -92411.118 108405.048 -92405.091 108529.671 -92314.546 108551.253 -92298.866 108555.668 -92293.963 108560.58 -92289.54 108561.705 -92290.789 108615.014 -92257.949 108648.2 -92253.5 122106.405 -92253.5 122174.526 -92273.502 122221.019 -92327.158 122231.123 -92397.432 122201.629 -92462.012 122195.5 -92468.595 108047.747 -106616.348 108039.461 -106623.888 108032.982 -106628 108027.557 -106633.777 107986.357 -106677.651 107983.602 -106680.493 107963.865 -106700.23 107961.385 -106703.427 107953.682 -106712.447 107923.414 -106744.679 107919.595 -106751.625 107919.593 -106751.628 107913.652 -106762.434 107902.801 -106778.953 107890.386 -106794.959 107887.241 -106802.228 107887.238 -106802.232 107872.826 -106835.537 107867.609 -106846.187 107846.305 -106884.94 107844.334 -106892.615 107844.334 -106892.616 107841.267 -106904.562 107834.863 -106923.266 107826.819 -106941.855 107825.58 -106949.678 107825.577 -106949.688 107819.901 -106985.524 107817.495 -106997.144 107806.5 -107039.97 107806.5 -107060.224 107804.949 -107079.934 107801.78 -107099.943 107802.526 -107107.835 107805.941 -107143.961 107806.5 -107155.819 107806.5 -128298.207 107804.268 -128321.816 107802.725 -128329.906 107803.223 -128337.817 107806.251 -128385.951 107806.5 -128393.862 107806.5 -128409.856 107808.506 -128425.73 107809.248 -128433.59 107812.775 -128489.65 107815.225 -128497.191 107815.321 -128497.487 107820.494 -128520.631 107820.532 -128520.935 107820.533 -128520.94 107821.526 -128528.797 107824.442 -128536.162 107824.443 -128536.166 107842.199 -128581.011 107844.871 -128588.43 107862.236 -128641.875 107866.486 -128648.571 107866.486 -128648.572 107866.65 -128648.831 107877.415 -128669.958 107877.529 -128670.246 107877.532 -128670.251 107880.448 -128677.617 107885.104 -128684.025 107885.107 -128684.031 107913.458 -128723.052 107917.901 -128729.589 107948 -128777.018 107953.778 -128782.444 107953.779 -128782.445 107954.007 -128782.659 107969.688 -128800.446 107974.528 -128807.107 107980.637 -128812.161 107980.638 -128812.162 108017.796 -128842.903 108023.73 -128848.134 108058.898 -128881.158 108058.901 -128881.16 108064.679 -128886.586 108071.903 -128890.558 108091.506 -128903.881 108091.746 -128904.08 108091.753 -128904.084 108097.856 -128909.133 108137.4 -128927.741 108148.676 -128933.047 108155.708 -128936.629 108204.94 -128963.695 108212.615 -128965.665 108212.621 -128965.668 108212.919 -128965.744 108235.228 -128973.776 108235.503 -128973.906 108235.511 -128973.909 108242.682 -128977.283 108297.849 -128987.806 108305.558 -128989.529 108339.551 -128998.257 108352.293 -129001.529 108352.294 -129001.529 108359.97 -129003.5 108368.207 -129003.5 108391.816 -129005.732 108392.119 -129005.79 108392.123 -129005.79 108399.906 -129007.275 108455.951 -129003.749 108463.862 -129003.5 134686.579 -129003.5 134754.7 -129023.502 134801.193 -129077.158 134806.412 -129090.563 134855.473 -129241.556 134950.96 -129406.944 134955.378 -129411.851 134955.379 -129411.852 135066.883 -129535.69 135097.601 -129599.697 135088.836 -129670.151 135066.883 -129704.31 134950.96 -129833.056 134855.473 -129998.444 134796.458 -130180.072 134795.768 -130186.633 134795.768 -130186.635 134790.371 -130237.982 134776.496 -130370 134777.186 -130376.565 134788.321 -130482.504 134796.458 -130559.928 134855.473 -130741.556 134950.96 -130906.944 134955.38 -130911.852 134959.259 -130917.192 134957.607 -130918.392 134984.148 -130973.685 134975.391 -131044.139 134929.934 -131098.675 134859.797 -131120 106066 -131120 105997.879 -131099.998 105951.386 -131046.342 105940 -130994 105940 -130620 104735.583 -130620 104667.462 -130599.998 104620.969 -130546.342 104614.794 -130525.045 104613.976 -130525.279 104605.85 -130496.847 104602.272 -130480.085 104599.352 -130459.698 104598.08 -130450.813 104587.451 -130427.436 104581.004 -130409.913 104576.416 -130393.862 104573.949 -130385.229 104569.156 -130377.632 104558.17 -130360.22 104550.03 -130345.135 104547.564 -130339.711 104537.792 -130318.218 104521.03 -130298.765 104509.927 -130283.761 104496.224 -130262.042 104489.499 -130256.103 104489.496 -130256.099 104474.062 -130242.468 104462.018 -130230.276 104448.573 -130214.673 104448.57 -130214.671 104442.713 -130207.873 104429.009 -130198.99 104421.165 -130193.906 104406.291 -130182.615 104393.783 -130171.569 104393.782 -130171.568 104387.049 -130165.622 104360.287 -130153.057 104345.309 -130144.737 104328.017 -130133.529 104328.012 -130133.527 104320.485 -130128.648 104311.892 -130126.078 104311.887 -130126.076 104295.88 -130121.289 104278.436 -130114.628 104263.324 -130107.533 104263.322 -130107.532 104255.2 -130103.719 104246.333 -130102.338 104246.332 -130102.338 104235.478 -130100.648 104225.983 -130099.17 104209.268 -130095.387 104189.534 -130089.485 104189.528 -130089.484 104180.934 -130086.914 104171.963 -130086.859 104171.962 -130086.859 104161.903 -130086.798 104146.494 -130086.704 104145.711 -130086.671 104144.614 -130086.5 104113.623 -130086.5 104112.853 -130086.498 104039.215 -130086.048 104039.214 -130086.048 104035.279 -130086.024 104033.935 -130086.408 104032.59 -130086.5 103639.5 -130086.5 103571.379 -130066.498 103524.886 -130012.842 103513.5 -129960.5 103513.5 -78829.5 103533.502 -78761.379 103587.158 -78714.886 103639.5 -78703.5 149770.5 -78703.5 149838.621 -78723.502"/></g><g id="P82OxhQsCQfkmswdxv9p_bottom_silkscreen"><g mask="url(#pWMoywOpLYDoO4pvaK85_clear-1)"><path d="M 151184.047 -83392.38 151184.047 -82392.38 150945.952 -82392.38 150803.095 -82440 150707.857 -82535.238 150660.238 -82630.476 150612.619 -82820.952 150612.619 -82963.809 150660.238 -83154.285 150707.857 -83249.523 150803.095 -83344.761 150945.952 -83392.38 151184.047 -83392.38 M 149803.095 -83344.761 149898.333 -83392.38 150088.809 -83392.38 150184.047 -83344.761 150231.666 -83249.523 150231.666 -82868.571 150184.047 -82773.333 150088.809 -82725.714 149898.333 -82725.714 149803.095 -82773.333 149755.476 -82868.571 149755.476 -82963.809 150231.666 -83059.047 M 149374.523 -83344.761 149279.285 -83392.38 149088.809 -83392.38 148993.571 -83344.761 148945.952 -83249.523 148945.952 -83201.904 148993.571 -83106.666 149088.809 -83059.047 149231.666 -83059.047 149326.904 -83011.428 149374.523 -82916.19 149374.523 -82868.571 149326.904 -82773.333 149231.666 -82725.714 149088.809 -82725.714 148993.571 -82773.333 M 148517.38 -83392.38 148517.38 -82725.714 M 148517.38 -82392.38 148565 -82440 148517.38 -82487.619 148469.761 -82440 148517.38 -82392.38 148517.38 -82487.619 M 147612.619 -82725.714 147612.619 -83535.238 147660.238 -83630.476 147707.857 -83678.095 147803.095 -83725.714 147945.952 -83725.714 148041.19 -83678.095 M 147612.619 -83344.761 147707.857 -83392.38 147898.333 -83392.38 147993.571 -83344.761 148041.19 -83297.142 148088.809 -83201.904 148088.809 -82916.19 148041.19 -82820.952 147993.571 -82773.333 147898.333 -82725.714 147707.857 -82725.714 147612.619 -82773.333 M 147136.428 -82725.714 147136.428 -83392.38 M 147136.428 -82820.952 147088.809 -82773.333 146993.571 -82725.714 146850.714 -82725.714 146755.476 -82773.333 146707.857 -82868.571 146707.857 -83392.38 M 145850.714 -83344.761 145945.952 -83392.38 146136.428 -83392.38 146231.666 -83344.761 146279.285 -83249.523 146279.285 -82868.571 146231.666 -82773.333 146136.428 -82725.714 145945.952 -82725.714 145850.714 -82773.333 145803.095 -82868.571 145803.095 -82963.809 146279.285 -83059.047 M 144945.952 -83392.38 144945.952 -82392.38 M 144945.952 -83344.761 145041.19 -83392.38 145231.666 -83392.38 145326.904 -83344.761 145374.523 -83297.142 145422.142 -83201.904 145422.142 -82916.19 145374.523 -82820.952 145326.904 -82773.333 145231.666 -82725.714 145041.19 -82725.714 144945.952 -82773.333 M 143374.523 -82868.571 143231.666 -82916.19 143184.047 -82963.809 143136.428 -83059.047 143136.428 -83201.904 143184.047 -83297.142 143231.666 -83344.761 143326.904 -83392.38 143707.857 -83392.38 143707.857 -82392.38 143374.523 -82392.38 143279.285 -82440 143231.666 -82487.619 143184.047 -82582.857 143184.047 -82678.095 143231.666 -82773.333 143279.285 -82820.952 143374.523 -82868.571 143707.857 -82868.571 M 142803.095 -82725.714 142565 -83392.38 M 142326.904 -82725.714 142565 -83392.38 142660.238 -83630.476 142707.857 -83678.095 142803.095 -83725.714 M 141945.952 -83297.142 141898.333 -83344.761 141945.952 -83392.38 141993.571 -83344.761 141945.952 -83297.142 141945.952 -83392.38 M 141945.952 -82773.333 141898.333 -82820.952 141945.952 -82868.571 141993.571 -82820.952 141945.952 -82773.333 141945.952 -82868.571 M 140707.857 -83392.38 140707.857 -82392.38 M 140279.285 -83344.761 140184.047 -83392.38 139993.571 -83392.38 139898.333 -83344.761 139850.714 -83249.523 139850.714 -83201.904 139898.333 -83106.666 139993.571 -83059.047 140136.428 -83059.047 140231.666 -83011.428 140279.285 -82916.19 140279.285 -82868.571 140231.666 -82773.333 140136.428 -82725.714 139993.571 -82725.714 139898.333 -82773.333 M 138993.571 -83392.38 138993.571 -82868.571 139041.19 -82773.333 139136.428 -82725.714 139326.904 -82725.714 139422.142 -82773.333 M 138993.571 -83344.761 139088.809 -83392.38 139326.904 -83392.38 139422.142 -83344.761 139469.761 -83249.523 139469.761 -83154.285 139422.142 -83059.047 139326.904 -83011.428 139088.809 -83011.428 138993.571 -82963.809 M 138088.809 -83392.38 138088.809 -82868.571 138136.428 -82773.333 138231.666 -82725.714 138422.142 -82725.714 138517.38 -82773.333 M 138088.809 -83344.761 138184.047 -83392.38 138422.142 -83392.38 138517.38 -83344.761 138565 -83249.523 138565 -83154.285 138517.38 -83059.047 138422.142 -83011.428 138184.047 -83011.428 138088.809 -82963.809 M 137184.047 -83344.761 137279.285 -83392.38 137469.761 -83392.38 137565 -83344.761 137612.619 -83297.142 137660.238 -83201.904 137660.238 -82916.19 137612.619 -82820.952 137565 -82773.333 137469.761 -82725.714 137279.285 -82725.714 137184.047 -82773.333 M 135660.238 -82868.571 135993.571 -82868.571 M 135993.571 -83392.38 135993.571 -82392.38 135517.38 -82392.38 M 134993.571 -83392.38 135088.809 -83344.761 135136.428 -83249.523 135136.428 -82392.38 M 134184.047 -83392.38 134184.047 -82868.571 134231.666 -82773.333 134326.904 -82725.714 134517.38 -82725.714 134612.619 -82773.333 M 134184.047 -83344.761 134279.285 -83392.38 134517.38 -83392.38 134612.619 -83344.761 134660.238 -83249.523 134660.238 -83154.285 134612.619 -83059.047 134517.38 -83011.428 134279.285 -83011.428 134184.047 -82963.809 M 133279.285 -82725.714 133279.285 -83392.38 M 133707.857 -82725.714 133707.857 -83249.523 133660.238 -83344.761 133565 -83392.38 133422.142 -83392.38 133326.904 -83344.761 133279.285 -83297.142 M 132803.095 -83392.38 132803.095 -82725.714 M 132803.095 -82820.952 132755.476 -82773.333 132660.238 -82725.714 132517.38 -82725.714 132422.142 -82773.333 132374.523 -82868.571 132374.523 -83392.38 M 132374.523 -82868.571 132326.904 -82773.333 132231.666 -82725.714 132088.809 -82725.714 131993.571 -82773.333 131945.952 -82868.571 131945.952 -83392.38 M 143874.523 -85002.38 144207.857 -84526.19 M 144445.952 -85002.38 144445.952 -84002.38 144065 -84002.38 143969.761 -84050 143922.142 -84097.619 143874.523 -84192.857 143874.523 -84335.714 143922.142 -84430.952 143969.761 -84478.571 144065 -84526.19 144445.952 -84526.19 M 143065 -84954.761 143160.238 -85002.38 143350.714 -85002.38 143445.952 -84954.761 143493.571 -84859.523 143493.571 -84478.571 143445.952 -84383.333 143350.714 -84335.714 143160.238 -84335.714 143065 -84383.333 143017.38 -84478.571 143017.38 -84573.809 143493.571 -84669.047 M 142684.047 -84335.714 142445.952 -85002.38 142207.857 -84335.714 M 141826.904 -84907.142 141779.285 -84954.761 141826.904 -85002.38 141874.523 -84954.761 141826.904 -84907.142 141826.904 -85002.38 M 140065 -85002.38 140636.428 -85002.38 M 140350.714 -85002.38 140350.714 -84002.38 140445.952 -84145.238 140541.19 -84240.476 140636.428 -84288.095 M 139636.428 -84907.142 139588.809 -84954.761 139636.428 -85002.38 139684.047 -84954.761 139636.428 -84907.142 139636.428 -85002.38 M 138969.761 -84002.38 138874.523 -84002.38 138779.285 -84050 138731.666 -84097.619 138684.047 -84192.857 138636.428 -84383.333 138636.428 -84621.428 138684.047 -84811.904 138731.666 -84907.142 138779.285 -84954.761 138874.523 -85002.38 138969.761 -85002.38 139065 -84954.761 139112.619 -84907.142 139160.238 -84811.904 139207.857 -84621.428 139207.857 -84383.333 139160.238 -84192.857 139112.619 -84097.619 139065 -84050 138969.761 -84002.38" fill="none" stroke-width="150"/></g></g><g id="P82OxhQsCQfkmswdxv9p_bottom_drill1"><use xlink:href="#sykJNG5iHLCmqrjWIfYm_pad-1" x="128691" y="-123993"/></g><g id="P82OxhQsCQfkmswdxv9p_bottom_drill2"><use xlink:href="#w5P2NZdVDMfVy2qzJvUI_pad-1" x="107940" y="-91620"/><use xlink:href="#w5P2NZdVDMfVy2qzJvUI_pad-1" x="114440" y="-103620"/><use xlink:href="#w5P2NZdVDMfVy2qzJvUI_pad-1" x="114440" y="-114370"/><use xlink:href="#w5P2NZdVDMfVy2qzJvUI_pad-1" x="115929" y="-102300"/><use xlink:href="#w5P2NZdVDMfVy2qzJvUI_pad-1" x="115940" y="-114370"/><use xlink:href="#w5P2NZdVDMfVy2qzJvUI_pad-1" x="117440" y="-101020"/><use xlink:href="#w5P2NZdVDMfVy2qzJvUI_pad-1" x="117440" y="-114370"/><use xlink:href="#w5P2NZdVDMfVy2qzJvUI_pad-1" x="118940" y="-99751"/><use xlink:href="#w5P2NZdVDMfVy2qzJvUI_pad-1" x="118940" y="-114370"/><use xlink:href="#w5P2NZdVDMfVy2qzJvUI_pad-1" x="120440" y="-98370"/><use xlink:href="#w5P2NZdVDMfVy2qzJvUI_pad-1" x="120440" y="-114370"/><use xlink:href="#w5P2NZdVDMfVy2qzJvUI_pad-1" x="121940" y="-97210"/><use xlink:href="#w5P2NZdVDMfVy2qzJvUI_pad-1" x="121940" y="-114370"/><use xlink:href="#w5P2NZdVDMfVy2qzJvUI_pad-1" x="123440" y="-95870"/><use xlink:href="#w5P2NZdVDMfVy2qzJvUI_pad-1" x="123440" y="-114370"/><use xlink:href="#w5P2NZdVDMfVy2qzJvUI_pad-1" x="124690" y="-114370"/><use xlink:href="#w5P2NZdVDMfVy2qzJvUI_pad-1" x="130190" y="-93370"/><use xlink:href="#w5P2NZdVDMfVy2qzJvUI_pad-1" x="132690" y="-117620"/><use xlink:href="#w5P2NZdVDMfVy2qzJvUI_pad-1" x="133690" y="-119120"/><use xlink:href="#w5P2NZdVDMfVy2qzJvUI_pad-1" x="134690" y="-121120"/><use xlink:href="#w5P2NZdVDMfVy2qzJvUI_pad-1" x="134940" y="-93120"/><use xlink:href="#w5P2NZdVDMfVy2qzJvUI_pad-1" x="135440" y="-100620"/><use xlink:href="#w5P2NZdVDMfVy2qzJvUI_pad-1" x="135690" y="-122620"/><use xlink:href="#w5P2NZdVDMfVy2qzJvUI_pad-1" x="135690" y="-128870"/><use xlink:href="#w5P2NZdVDMfVy2qzJvUI_pad-1" x="135690" y="-130370"/><use xlink:href="#w5P2NZdVDMfVy2qzJvUI_pad-1" x="136190" y="-93120"/><use xlink:href="#w5P2NZdVDMfVy2qzJvUI_pad-1" x="136690" y="-111120"/><use xlink:href="#w5P2NZdVDMfVy2qzJvUI_pad-1" x="138940" y="-88620"/><use xlink:href="#w5P2NZdVDMfVy2qzJvUI_pad-1" x="139940" y="-103120"/><use xlink:href="#w5P2NZdVDMfVy2qzJvUI_pad-1" x="140440" y="-96620"/><use xlink:href="#w5P2NZdVDMfVy2qzJvUI_pad-1" x="140690" y="-98120"/><use xlink:href="#w5P2NZdVDMfVy2qzJvUI_pad-1" x="141190" y="-101020"/><use xlink:href="#w5P2NZdVDMfVy2qzJvUI_pad-1" x="141440" y="-92145"/><use xlink:href="#w5P2NZdVDMfVy2qzJvUI_pad-1" x="150190" y="-119870"/></g><clipPath id="P82OxhQsCQfkmswdxv9p_bottom_outline"><path d="M 103505 -78195 149905 -78195 A 500 500 0 0 0 150405 -78695 L 150405 -80795 153905 -80795 A 500 500 0 0 0 154405 -81295 L 154405 -130095 A 500 500 0 0 0 153905 -130595 L 153305 -130595 153305 -138295 A 900 900 0 0 0 152405 -139195 L 105005 -139195 A 900 900 0 0 0 104105 -138295 L 104105 -130595 103505 -130595 A 500 500 0 0 0 103005 -130095 L 103005 -78695 A 500 500 0 0 0 103505 -78195" fill="none" stroke-width="150"/></clipPath><mask id="P82OxhQsCQfkmswdxv9p_bottom_mech-mask"><g fill="#000" stroke="#000"><rect x="103005" y="-139195" width="51400" height="61000" fill="#fff"/><use xlink:href="#P82OxhQsCQfkmswdxv9p_bottom_drill1"/><use xlink:href="#P82OxhQsCQfkmswdxv9p_bottom_drill2"/></g></mask><mask id="P82OxhQsCQfkmswdxv9p_bottom_cf-mask"><g fill="#fff" stroke="#fff"><use xlink:href="#P82OxhQsCQfkmswdxv9p_bottom_soldermask"/></g></mask><mask id="P82OxhQsCQfkmswdxv9p_bottom_sm-mask"><g fill="#000" stroke="#000"><rect x="103005" y="-139195" width="51400" height="61000" fill="#fff"/><use xlink:href="#P82OxhQsCQfkmswdxv9p_bottom_soldermask"/></g></mask></defs><g transform="translate(0,-217390) scale(1,-1)"><g mask="url(#P82OxhQsCQfkmswdxv9p_bottom_mech-mask)" clip-path="url(#P82OxhQsCQfkmswdxv9p_bottom_outline)" transform="translate(257410,0) scale(-1,1)"><rect x="103005" y="-139195" width="51400" height="61000" fill="currentColor" class="P82OxhQsCQfkmswdxv9p_fr4"/><use xlink:href="#P82OxhQsCQfkmswdxv9p_bottom_copper" fill="currentColor" stroke="currentColor" class="P82OxhQsCQfkmswdxv9p_cu"/><use xlink:href="#P82OxhQsCQfkmswdxv9p_bottom_copper" fill="currentColor" stroke="currentColor" class="P82OxhQsCQfkmswdxv9p_cf" mask="url(#P82OxhQsCQfkmswdxv9p_bottom_cf-mask)"/><g mask="url(#P82OxhQsCQfkmswdxv9p_bottom_sm-mask)"><rect x="103005" y="-139195" width="51400" height="61000" fill="currentColor" class="P82OxhQsCQfkmswdxv9p_sm"/><use xlink:href="#P82OxhQsCQfkmswdxv9p_bottom_silkscreen" fill="currentColor" stroke="currentColor" class="P82OxhQsCQfkmswdxv9p_ss"/></g></g></g></svg>