<svg version="1.1" xmlns="http://www.w3.org/2000/svg" xmlns:xlink="http://www.w3.org/1999/xlink" stroke-linecap="round" stroke-linejoin="round" stroke-width="0" fill-rule="evenodd" clip-rule="evenodd" id="P82OxhQsCQfkmswdxv9p_top" viewBox="103005 -139195 51400 61000" width="51.4mm" height="61mm" class="w-100 h-100"><defs><style>.P82OxhQsCQfkmswdxv9p_fr4 {color: #666666;}
.P82OxhQsCQfkmswdxv9p_cu {color: #cccccc;}
.P82OxhQsCQfkmswdxv9p_cf {color: #cc9933;}
.P82OxhQsCQfkmswdxv9p_sm {color: #004200; opacity: 0.75;}
.P82OxhQsCQfkmswdxv9p_ss {color: #ffffff;}
.P82OxhQsCQfkmswdxv9p_sp {color: #999999;}
.P82OxhQsCQfkmswdxv9p_out {color: #000000;}</style><g id="LcGsAJangeNraJombHjw_pad-10"><polygon points="312.5,625 -312.5,625 -312.5,-625 312.5,-625"/><circle cx="312.5" cy="625" r="250"/><circle cx="-312.5" cy="625" r="250"/><circle cx="-312.5" cy="-625" r="250"/><circle cx="312.5" cy="-625" r="250"/><polygon points="312.5,375 -312.5,375 -312.5,875 312.5,875"/><polygon points="-62.5,625 -62.5,-625 -562.5,-625 -562.5,625"/><polygon points="-312.5,-875 312.5,-875 312.5,-375 -312.5,-375"/><polygon points="562.5,-625 562.5,625 62.5,625 62.5,-625"/></g><rect x="-650" y="-3000" width="1300" height="6000" id="LcGsAJangeNraJombHjw_pad-11"/><rect x="-500" y="-2750" width="1000" height="5500" id="LcGsAJangeNraJombHjw_pad-12"/><g id="LcGsAJangeNraJombHjw_pad-13"><polygon points="-450,-425 450,-425 450,425 -450,425"/><circle cx="-450" cy="-425" r="250"/><circle cx="450" cy="-425" r="250"/><circle cx="450" cy="425" r="250"/><circle cx="-450" cy="425" r="250"/><polygon points="-450,-675 450,-675 450,-175 -450,-175"/><polygon points="700,-425 700,425 200,425 200,-425"/><polygon points="450,175 -450,175 -450,675 450,675"/><polygon points="-200,425 -200,-425 -700,-425 -700,425"/></g><g id="LcGsAJangeNraJombHjw_pad-14"><polygon points="-150,-587.5 150,-587.5 150,587.5 -150,587.5"/><circle cx="-150" cy="-587.5" r="150"/><circle cx="150" cy="-587.5" r="150"/><circle cx="150" cy="587.5" r="150"/><circle cx="-150" cy="587.5" r="150"/><polygon points="-150,-737.5 150,-737.5 150,-437.5 -150,-437.5"/><polygon points="300,-587.5 300,587.5 0,587.5 0,-587.5"/><polygon points="150,437.5 -150,437.5 -150,737.5 150,737.5"/><polygon points="0,587.5 0,-587.5 -300,-587.5 -300,587.5"/></g><g id="LcGsAJangeNraJombHjw_pad-15"><polygon points="-587.5,-150 587.5,-150 587.5,150 -587.5,150"/><circle cx="-587.5" cy="-150" r="150"/><circle cx="587.5" cy="-150" r="150"/><circle cx="587.5" cy="150" r="150"/><circle cx="-587.5" cy="150" r="150"/><polygon points="-587.5,-300 587.5,-300 587.5,0 -587.5,0"/><polygon points="737.5,-150 737.5,150 437.5,150 437.5,-150"/><polygon points="587.5,0 -587.5,0 -587.5,300 587.5,300"/><polygon points="-437.5,150 -437.5,-150 -737.5,-150 -737.5,150"/></g><circle cx="0" cy="0" r="400" id="LcGsAJangeNraJombHjw_pad-16"/><g id="RI76HZESKl_StvxXB5bG_pad-10"><polygon points="312.5,625 -312.5,625 -312.5,-625 312.5,-625"/><circle cx="312.5" cy="625" r="250"/><circle cx="-312.5" cy="625" r="250"/><circle cx="-312.5" cy="-625" r="250"/><circle cx="312.5" cy="-625" r="250"/><polygon points="312.5,375 -312.5,375 -312.5,875 312.5,875"/><polygon points="-62.5,625 -62.5,-625 -562.5,-625 -562.5,625"/><polygon points="-312.5,-875 312.5,-875 312.5,-375 -312.5,-375"/><polygon points="562.5,-625 562.5,625 62.5,625 62.5,-625"/></g><g id="RI76HZESKl_StvxXB5bG_pad-11"><polygon points="-450,-425 450,-425 450,425 -450,425"/><circle cx="-450" cy="-425" r="250"/><circle cx="450" cy="-425" r="250"/><circle cx="450" cy="425" r="250"/><circle cx="-450" cy="425" r="250"/><polygon points="-450,-675 450,-675 450,-175 -450,-175"/><polygon points="700,-425 700,425 200,425 200,-425"/><polygon points="450,175 -450,175 -450,675 450,675"/><polygon points="-200,425 -200,-425 -700,-425 -700,425"/></g><g id="RI76HZESKl_StvxXB5bG_pad-12"><polygon points="-150,-587.5 150,-587.5 150,587.5 -150,587.5"/><circle cx="-150" cy="-587.5" r="150"/><circle cx="150" cy="-587.5" r="150"/><circle cx="150" cy="587.5" r="150"/><circle cx="-150" cy="587.5" r="150"/><polygon points="-150,-737.5 150,-737.5 150,-437.5 -150,-437.5"/><polygon points="300,-587.5 300,587.5 0,587.5 0,-587.5"/><polygon points="150,437.5 -150,437.5 -150,737.5 150,737.5"/><polygon points="0,587.5 0,-587.5 -300,-587.5 -300,587.5"/></g><g id="RI76HZESKl_StvxXB5bG_pad-13"><polygon points="-587.5,-150 587.5,-150 587.5,150 -587.5,150"/><circle cx="-587.5" cy="-150" r="150"/><circle cx="587.5" cy="-150" r="150"/><circle cx="587.5" cy="150" r="150"/><circle cx="-587.5" cy="150" r="150"/><polygon points="-587.5,-300 587.5,-300 587.5,0 -587.5,0"/><polygon points="737.5,-150 737.5,150 437.5,150 437.5,-150"/><polygon points="587.5,0 -587.5,0 -587.5,300 587.5,300"/><polygon points="-437.5,150 -437.5,-150 -737.5,-150 -737.5,150"/></g><circle cx="0" cy="0" r="3500" id="pr6-HR2G_pHJ7JTvoeHa_pad-10"/><g id="pr6-HR2G_pHJ7JTvoeHa_pad-11"><polygon points="312.5,625 -312.5,625 -312.5,-625 312.5,-625"/><circle cx="312.5" cy="625" r="250"/><circle cx="-312.5" cy="625" r="250"/><circle cx="-312.5" cy="-625" r="250"/><circle cx="312.5" cy="-625" r="250"/><polygon points="312.5,375 -312.5,375 -312.5,875 312.5,875"/><polygon points="-62.5,625 -62.5,-625 -562.5,-625 -562.5,625"/><polygon points="-312.5,-875 312.5,-875 312.5,-375 -312.5,-375"/><polygon points="562.5,-625 562.5,625 62.5,625 62.5,-625"/></g><rect x="-650" y="-3000" width="1300" height="6000" id="pr6-HR2G_pHJ7JTvoeHa_pad-12"/><rect x="-500" y="-2750" width="1000" height="5500" id="pr6-HR2G_pHJ7JTvoeHa_pad-13"/><g id="pr6-HR2G_pHJ7JTvoeHa_pad-14"><polygon points="-450,-425 450,-425 450,425 -450,425"/><circle cx="-450" cy="-425" r="250"/><circle cx="450" cy="-425" r="250"/><circle cx="450" cy="425" r="250"/><circle cx="-450" cy="425" r="250"/><polygon points="-450,-675 450,-675 450,-175 -450,-175"/><polygon points="700,-425 700,425 200,425 200,-425"/><polygon points="450,175 -450,175 -450,675 450,675"/><polygon points="-200,425 -200,-425 -700,-425 -700,425"/></g><g id="pr6-HR2G_pHJ7JTvoeHa_pad-15"><polygon points="-150,-587.5 150,-587.5 150,587.5 -150,587.5"/><circle cx="-150" cy="-587.5" r="150"/><circle cx="150" cy="-587.5" r="150"/><circle cx="150" cy="587.5" r="150"/><circle cx="-150" cy="587.5" r="150"/><polygon points="-150,-737.5 150,-737.5 150,-437.5 -150,-437.5"/><polygon points="300,-587.5 300,587.5 0,587.5 0,-587.5"/><polygon points="150,437.5 -150,437.5 -150,737.5 150,737.5"/><polygon points="0,587.5 0,-587.5 -300,-587.5 -300,587.5"/></g><g id="pr6-HR2G_pHJ7JTvoeHa_pad-16"><polygon points="-587.5,-150 587.5,-150 587.5,150 -587.5,150"/><circle cx="-587.5" cy="-150" r="150"/><circle cx="587.5" cy="-150" r="150"/><circle cx="587.5" cy="150" r="150"/><circle cx="-587.5" cy="150" r="150"/><polygon points="-587.5,-300 587.5,-300 587.5,0 -587.5,0"/><polygon points="737.5,-150 737.5,150 437.5,150 437.5,-150"/><polygon points="587.5,0 -587.5,0 -587.5,300 587.5,300"/><polygon points="-437.5,150 -437.5,-150 -737.5,-150 -737.5,150"/></g><circle cx="0" cy="0" r="3500" id="ryCletDWbBGYFdRxWWfl_pad-12"/><g id="ryCletDWbBGYFdRxWWfl_pad-13"><polygon points="312.5,625 -312.5,625 -312.5,-625 312.5,-625"/><circle cx="312.5" cy="625" r="250"/><circle cx="-312.5" cy="625" r="250"/><circle cx="-312.5" cy="-625" r="250"/><circle cx="312.5" cy="-625" r="250"/><polygon points="312.5,375 -312.5,375 -312.5,875 312.5,875"/><polygon points="-62.5,625 -62.5,-625 -562.5,-625 -562.5,625"/><polygon points="-312.5,-875 312.5,-875 312.5,-375 -312.5,-375"/><polygon points="562.5,-625 562.5,625 62.5,625 62.5,-625"/></g><rect x="-650" y="-3000" width="1300" height="6000" id="ryCletDWbBGYFdRxWWfl_pad-14"/><rect x="-500" y="-2750" width="1000" height="5500" id="ryCletDWbBGYFdRxWWfl_pad-15"/><g id="ryCletDWbBGYFdRxWWfl_pad-16"><polygon points="-450,-425 450,-425 450,425 -450,425"/><circle cx="-450" cy="-425" r="250"/><circle cx="450" cy="-425" r="250"/><circle cx="450" cy="425" r="250"/><circle cx="-450" cy="425" r="250"/><polygon points="-450,-675 450,-675 450,-175 -450,-175"/><polygon points="700,-425 700,425 200,425 200,-425"/><polygon points="450,175 -450,175 -450,675 450,675"/><polygon points="-200,425 -200,-425 -700,-425 -700,425"/></g><g id="ryCletDWbBGYFdRxWWfl_pad-17"><polygon points="-150,-587.5 150,-587.5 150,587.5 -150,587.5"/><circle cx="-150" cy="-587.5" r="150"/><circle cx="150" cy="-587.5" r="150"/><circle cx="150" cy="587.5" r="150"/><circle cx="-150" cy="587.5" r="150"/><polygon points="-150,-737.5 150,-737.5 150,-437.5 -150,-437.5"/><polygon points="300,-587.5 300,587.5 0,587.5 0,-587.5"/><polygon points="150,437.5 -150,437.5 -150,737.5 150,737.5"/><polygon points="0,587.5 0,-587.5 -300,-587.5 -300,587.5"/></g><g id="ryCletDWbBGYFdRxWWfl_pad-18"><polygon points="-587.5,-150 587.5,-150 587.5,150 -587.5,150"/><circle cx="-587.5" cy="-150" r="150"/><circle cx="587.5" cy="-150" r="150"/><circle cx="587.5" cy="150" r="150"/><circle cx="-587.5" cy="150" r="150"/><polygon points="-587.5,-300 587.5,-300 587.5,0 -587.5,0"/><polygon points="737.5,-150 737.5,150 437.5,150 437.5,-150"/><polygon points="587.5,0 -587.5,0 -587.5,300 587.5,300"/><polygon points="-437.5,150 -437.5,-150 -737.5,-150 -737.5,150"/></g><mask id="ryCletDWbBGYFdRxWWfl_clear-1" fill="#000" stroke="#000"><g><rect x="104630.525" y="-131433.407" width="48097.619" height="48811.027" fill="#fff"/><use xlink:href="#ryCletDWbBGYFdRxWWfl_pad-12" x="128691.24" y="-123993.407"/><use xlink:href="#ryCletDWbBGYFdRxWWfl_pad-13" x="112902.5" y="-95370"/><use xlink:href="#ryCletDWbBGYFdRxWWfl_pad-13" x="109977.5" y="-95370"/><use xlink:href="#ryCletDWbBGYFdRxWWfl_pad-14" x="105291.24" y="-135183.407"/><use xlink:href="#ryCletDWbBGYFdRxWWfl_pad-15" x="106941.24" y="-134933.407"/><use xlink:href="#ryCletDWbBGYFdRxWWfl_pad-15" x="108441.24" y="-134933.407"/><use xlink:href="#ryCletDWbBGYFdRxWWfl_pad-15" x="109941.24" y="-134933.407"/><use xlink:href="#ryCletDWbBGYFdRxWWfl_pad-15" x="111441.24" y="-134933.407"/><use xlink:href="#ryCletDWbBGYFdRxWWfl_pad-15" x="112941.24" y="-134933.407"/><use xlink:href="#ryCletDWbBGYFdRxWWfl_pad-15" x="114441.24" y="-134933.407"/><use xlink:href="#ryCletDWbBGYFdRxWWfl_pad-15" x="115941.24" y="-134933.407"/><use xlink:href="#ryCletDWbBGYFdRxWWfl_pad-15" x="117441.24" y="-134933.407"/><use xlink:href="#ryCletDWbBGYFdRxWWfl_pad-15" x="118941.24" y="-134933.407"/><use xlink:href="#ryCletDWbBGYFdRxWWfl_pad-15" x="120441.24" y="-134933.407"/><use xlink:href="#ryCletDWbBGYFdRxWWfl_pad-15" x="121941.24" y="-134933.407"/><use xlink:href="#ryCletDWbBGYFdRxWWfl_pad-15" x="123441.24" y="-134933.407"/><use xlink:href="#ryCletDWbBGYFdRxWWfl_pad-15" x="124941.24" y="-134933.407"/><use xlink:href="#ryCletDWbBGYFdRxWWfl_pad-15" x="126441.24" y="-134933.407"/><use xlink:href="#ryCletDWbBGYFdRxWWfl_pad-15" x="127941.24" y="-134933.407"/><use xlink:href="#ryCletDWbBGYFdRxWWfl_pad-15" x="129441.24" y="-134933.407"/><use xlink:href="#ryCletDWbBGYFdRxWWfl_pad-15" x="130941.24" y="-134933.407"/><use xlink:href="#ryCletDWbBGYFdRxWWfl_pad-15" x="132441.24" y="-134933.407"/><use xlink:href="#ryCletDWbBGYFdRxWWfl_pad-15" x="133941.24" y="-134933.407"/><use xlink:href="#ryCletDWbBGYFdRxWWfl_pad-15" x="135441.24" y="-134933.407"/><use xlink:href="#ryCletDWbBGYFdRxWWfl_pad-15" x="136941.24" y="-134933.407"/><use xlink:href="#ryCletDWbBGYFdRxWWfl_pad-15" x="138441.24" y="-134933.407"/><use xlink:href="#ryCletDWbBGYFdRxWWfl_pad-15" x="139941.24" y="-134933.407"/><use xlink:href="#ryCletDWbBGYFdRxWWfl_pad-15" x="141441.24" y="-134933.407"/><use xlink:href="#ryCletDWbBGYFdRxWWfl_pad-15" x="142941.24" y="-134933.407"/><use xlink:href="#ryCletDWbBGYFdRxWWfl_pad-15" x="144441.24" y="-134933.407"/><use xlink:href="#ryCletDWbBGYFdRxWWfl_pad-15" x="145941.24" y="-134933.407"/><use xlink:href="#ryCletDWbBGYFdRxWWfl_pad-15" x="147441.24" y="-134933.407"/><use xlink:href="#ryCletDWbBGYFdRxWWfl_pad-15" x="148941.24" y="-134933.407"/><use xlink:href="#ryCletDWbBGYFdRxWWfl_pad-15" x="150441.24" y="-134933.407"/><use xlink:href="#ryCletDWbBGYFdRxWWfl_pad-14" x="152091.24" y="-135183.407"/><use xlink:href="#ryCletDWbBGYFdRxWWfl_pad-16" x="110090" y="-89120"/><use xlink:href="#ryCletDWbBGYFdRxWWfl_pad-16" x="112790" y="-89120"/><use xlink:href="#ryCletDWbBGYFdRxWWfl_pad-17" x="137565" y="-94907.5"/><use xlink:href="#ryCletDWbBGYFdRxWWfl_pad-17" x="136295" y="-94907.5"/><use xlink:href="#ryCletDWbBGYFdRxWWfl_pad-17" x="135025" y="-94907.5"/><use xlink:href="#ryCletDWbBGYFdRxWWfl_pad-17" x="133755" y="-94907.5"/><use xlink:href="#ryCletDWbBGYFdRxWWfl_pad-18" x="132002.5" y="-96665"/><use xlink:href="#ryCletDWbBGYFdRxWWfl_pad-18" x="132002.5" y="-97935"/><use xlink:href="#ryCletDWbBGYFdRxWWfl_pad-18" x="132002.5" y="-99205"/><use xlink:href="#ryCletDWbBGYFdRxWWfl_pad-18" x="132002.5" y="-100475"/><use xlink:href="#ryCletDWbBGYFdRxWWfl_pad-18" x="132002.5" y="-101745"/><use xlink:href="#ryCletDWbBGYFdRxWWfl_pad-18" x="132002.5" y="-103015"/><use xlink:href="#ryCletDWbBGYFdRxWWfl_pad-18" x="132002.5" y="-104285"/><use xlink:href="#ryCletDWbBGYFdRxWWfl_pad-18" x="132002.5" y="-105555"/><use xlink:href="#ryCletDWbBGYFdRxWWfl_pad-18" x="132002.5" y="-106825"/><use xlink:href="#ryCletDWbBGYFdRxWWfl_pad-17" x="133755" y="-108582.5"/><use xlink:href="#ryCletDWbBGYFdRxWWfl_pad-17" x="135025" y="-108582.5"/><use xlink:href="#ryCletDWbBGYFdRxWWfl_pad-17" x="136295" y="-108582.5"/><use xlink:href="#ryCletDWbBGYFdRxWWfl_pad-17" x="137565" y="-108582.5"/><use xlink:href="#ryCletDWbBGYFdRxWWfl_pad-17" x="138835" y="-108582.5"/><use xlink:href="#ryCletDWbBGYFdRxWWfl_pad-17" x="140105" y="-108582.5"/><use xlink:href="#ryCletDWbBGYFdRxWWfl_pad-17" x="141375" y="-108582.5"/><use xlink:href="#ryCletDWbBGYFdRxWWfl_pad-18" x="143127.5" y="-106825"/><use xlink:href="#ryCletDWbBGYFdRxWWfl_pad-18" x="143127.5" y="-105555"/><use xlink:href="#ryCletDWbBGYFdRxWWfl_pad-18" x="143127.5" y="-104285"/><use xlink:href="#ryCletDWbBGYFdRxWWfl_pad-18" x="143127.5" y="-103015"/><use xlink:href="#ryCletDWbBGYFdRxWWfl_pad-18" x="143127.5" y="-101745"/><use xlink:href="#ryCletDWbBGYFdRxWWfl_pad-18" x="143127.5" y="-100475"/><use xlink:href="#ryCletDWbBGYFdRxWWfl_pad-18" x="143127.5" y="-99205"/><use xlink:href="#ryCletDWbBGYFdRxWWfl_pad-18" x="143127.5" y="-97935"/><use xlink:href="#ryCletDWbBGYFdRxWWfl_pad-18" x="143127.5" y="-96665"/><use xlink:href="#ryCletDWbBGYFdRxWWfl_pad-17" x="141375" y="-94907.5"/><use xlink:href="#ryCletDWbBGYFdRxWWfl_pad-17" x="140105" y="-94907.5"/><use xlink:href="#ryCletDWbBGYFdRxWWfl_pad-17" x="138835" y="-94907.5"/></g></mask><circle cx="0" cy="0" r="3500" id="sykJNG5iHLCmqrjWIfYm_pad-1"/><circle cx="0" cy="0" r="200" id="w5P2NZdVDMfVy2qzJvUI_pad-1"/><g id="P82OxhQsCQfkmswdxv9p_top_copper"><use xlink:href="#LcGsAJangeNraJombHjw_pad-10" x="112902.5" y="-95370"/><use xlink:href="#LcGsAJangeNraJombHjw_pad-10" x="109977.5" y="-95370"/><use xlink:href="#LcGsAJangeNraJombHjw_pad-11" x="105291.24" y="-135183.407"/><use xlink:href="#LcGsAJangeNraJombHjw_pad-12" x="106941.24" y="-134933.407"/><use xlink:href="#LcGsAJangeNraJombHjw_pad-12" x="108441.24" y="-134933.407"/><use xlink:href="#LcGsAJangeNraJombHjw_pad-12" x="109941.24" y="-134933.407"/><use xlink:href="#LcGsAJangeNraJombHjw_pad-12" x="111441.24" y="-134933.407"/><use xlink:href="#LcGsAJangeNraJombHjw_pad-12" x="112941.24" y="-134933.407"/><use xlink:href="#LcGsAJangeNraJombHjw_pad-12" x="114441.24" y="-134933.407"/><use xlink:href="#LcGsAJangeNraJombHjw_pad-12" x="115941.24" y="-134933.407"/><use xlink:href="#LcGsAJangeNraJombHjw_pad-12" x="117441.24" y="-134933.407"/><use xlink:href="#LcGsAJangeNraJombHjw_pad-12" x="118941.24" y="-134933.407"/><use xlink:href="#LcGsAJangeNraJombHjw_pad-12" x="120441.24" y="-134933.407"/><use xlink:href="#LcGsAJangeNraJombHjw_pad-12" x="121941.24" y="-134933.407"/><use xlink:href="#LcGsAJangeNraJombHjw_pad-12" x="123441.24" y="-134933.407"/><use xlink:href="#LcGsAJangeNraJombHjw_pad-12" x="124941.24" y="-134933.407"/><use xlink:href="#LcGsAJangeNraJombHjw_pad-12" x="126441.24" y="-134933.407"/><use xlink:href="#LcGsAJangeNraJombHjw_pad-12" x="127941.24" y="-134933.407"/><use xlink:href="#LcGsAJangeNraJombHjw_pad-12" x="129441.24" y="-134933.407"/><use xlink:href="#LcGsAJangeNraJombHjw_pad-12" x="130941.24" y="-134933.407"/><use xlink:href="#LcGsAJangeNraJombHjw_pad-12" x="132441.24" y="-134933.407"/><use xlink:href="#LcGsAJangeNraJombHjw_pad-12" x="133941.24" y="-134933.407"/><use xlink:href="#LcGsAJangeNraJombHjw_pad-12" x="135441.24" y="-134933.407"/><use xlink:href="#LcGsAJangeNraJombHjw_pad-12" x="136941.24" y="-134933.407"/><use xlink:href="#LcGsAJangeNraJombHjw_pad-12" x="138441.24" y="-134933.407"/><use xlink:href="#LcGsAJangeNraJombHjw_pad-12" x="139941.24" y="-134933.407"/><use xlink:href="#LcGsAJangeNraJombHjw_pad-12" x="141441.24" y="-134933.407"/><use xlink:href="#LcGsAJangeNraJombHjw_pad-12" x="142941.24" y="-134933.407"/><use xlink:href="#LcGsAJangeNraJombHjw_pad-12" x="144441.24" y="-134933.407"/><use xlink:href="#LcGsAJangeNraJombHjw_pad-12" x="145941.24" y="-134933.407"/><use xlink:href="#LcGsAJangeNraJombHjw_pad-12" x="147441.24" y="-134933.407"/><use xlink:href="#LcGsAJangeNraJombHjw_pad-12" x="148941.24" y="-134933.407"/><use xlink:href="#LcGsAJangeNraJombHjw_pad-12" x="150441.24" y="-134933.407"/><use xlink:href="#LcGsAJangeNraJombHjw_pad-11" x="152091.24" y="-135183.407"/><use xlink:href="#LcGsAJangeNraJombHjw_pad-13" x="110090" y="-89120"/><use xlink:href="#LcGsAJangeNraJombHjw_pad-13" x="112790" y="-89120"/><use xlink:href="#LcGsAJangeNraJombHjw_pad-14" x="137565" y="-94907.5"/><use xlink:href="#LcGsAJangeNraJombHjw_pad-14" x="136295" y="-94907.5"/><use xlink:href="#LcGsAJangeNraJombHjw_pad-14" x="135025" y="-94907.5"/><use xlink:href="#LcGsAJangeNraJombHjw_pad-14" x="133755" y="-94907.5"/><use xlink:href="#LcGsAJangeNraJombHjw_pad-15" x="132002.5" y="-96665"/><use xlink:href="#LcGsAJangeNraJombHjw_pad-15" x="132002.5" y="-97935"/><use xlink:href="#LcGsAJangeNraJombHjw_pad-15" x="132002.5" y="-99205"/><use xlink:href="#LcGsAJangeNraJombHjw_pad-15" x="132002.5" y="-100475"/><use xlink:href="#LcGsAJangeNraJombHjw_pad-15" x="132002.5" y="-101745"/><use xlink:href="#LcGsAJangeNraJombHjw_pad-15" x="132002.5" y="-103015"/><use xlink:href="#LcGsAJangeNraJombHjw_pad-15" x="132002.5" y="-104285"/><use xlink:href="#LcGsAJangeNraJombHjw_pad-15" x="132002.5" y="-105555"/><use xlink:href="#LcGsAJangeNraJombHjw_pad-15" x="132002.5" y="-106825"/><use xlink:href="#LcGsAJangeNraJombHjw_pad-14" x="133755" y="-108582.5"/><use xlink:href="#LcGsAJangeNraJombHjw_pad-14" x="135025" y="-108582.5"/><use xlink:href="#LcGsAJangeNraJombHjw_pad-14" x="136295" y="-108582.5"/><use xlink:href="#LcGsAJangeNraJombHjw_pad-14" x="137565" y="-108582.5"/><use xlink:href="#LcGsAJangeNraJombHjw_pad-14" x="138835" y="-108582.5"/><use xlink:href="#LcGsAJangeNraJombHjw_pad-14" x="140105" y="-108582.5"/><use xlink:href="#LcGsAJangeNraJombHjw_pad-14" x="141375" y="-108582.5"/><use xlink:href="#LcGsAJangeNraJombHjw_pad-15" x="143127.5" y="-106825"/><use xlink:href="#LcGsAJangeNraJombHjw_pad-15" x="143127.5" y="-105555"/><use xlink:href="#LcGsAJangeNraJombHjw_pad-15" x="143127.5" y="-104285"/><use xlink:href="#LcGsAJangeNraJombHjw_pad-15" x="143127.5" y="-103015"/><use xlink:href="#LcGsAJangeNraJombHjw_pad-15" x="143127.5" y="-101745"/><use xlink:href="#LcGsAJangeNraJombHjw_pad-15" x="143127.5" y="-100475"/><use xlink:href="#LcGsAJangeNraJombHjw_pad-15" x="143127.5" y="-99205"/><use xlink:href="#LcGsAJangeNraJombHjw_pad-15" x="143127.5" y="-97935"/><use xlink:href="#LcGsAJangeNraJombHjw_pad-15" x="143127.5" y="-96665"/><use xlink:href="#LcGsAJangeNraJombHjw_pad-14" x="141375" y="-94907.5"/><use xlink:href="#LcGsAJangeNraJombHjw_pad-14" x="140105" y="-94907.5"/><use xlink:href="#LcGsAJangeNraJombHjw_pad-14" x="138835" y="-94907.5"/><use xlink:href="#LcGsAJangeNraJombHjw_pad-16" x="138940" y="-88620"/><use xlink:href="#LcGsAJangeNraJombHjw_pad-16" x="107940" y="-91620"/><use xlink:href="#LcGsAJangeNraJombHjw_pad-16" x="135440" y="-100620"/><use xlink:href="#LcGsAJangeNraJombHjw_pad-16" x="130190" y="-93370"/><use xlink:href="#LcGsAJangeNraJombHjw_pad-16" x="114440" y="-103620"/><use xlink:href="#LcGsAJangeNraJombHjw_pad-16" x="114440" y="-114370"/><use xlink:href="#LcGsAJangeNraJombHjw_pad-16" x="115928.59" y="-102299.913"/><use xlink:href="#LcGsAJangeNraJombHjw_pad-16" x="115940" y="-114370"/><use xlink:href="#LcGsAJangeNraJombHjw_pad-16" x="117440" y="-101020.5"/><use xlink:href="#LcGsAJangeNraJombHjw_pad-16" x="117440" y="-114370"/><use xlink:href="#LcGsAJangeNraJombHjw_pad-16" x="118940" y="-114370"/><use xlink:href="#LcGsAJangeNraJombHjw_pad-16" x="118940" y="-99750.5"/><use xlink:href="#LcGsAJangeNraJombHjw_pad-16" x="120440" y="-98370"/><use xlink:href="#LcGsAJangeNraJombHjw_pad-16" x="120440" y="-114370"/><use xlink:href="#LcGsAJangeNraJombHjw_pad-16" x="121940" y="-97210.5"/><use xlink:href="#LcGsAJangeNraJombHjw_pad-16" x="121940" y="-114370"/><use xlink:href="#LcGsAJangeNraJombHjw_pad-16" x="123440" y="-114370"/><use xlink:href="#LcGsAJangeNraJombHjw_pad-16" x="123440" y="-95870"/><use xlink:href="#LcGsAJangeNraJombHjw_pad-16" x="124690" y="-114370"/><use xlink:href="#LcGsAJangeNraJombHjw_pad-16" x="140440" y="-96620"/><use xlink:href="#LcGsAJangeNraJombHjw_pad-16" x="132690" y="-117620"/><use xlink:href="#LcGsAJangeNraJombHjw_pad-16" x="140690" y="-98120"/><use xlink:href="#LcGsAJangeNraJombHjw_pad-16" x="139940" y="-103120"/><use xlink:href="#LcGsAJangeNraJombHjw_pad-16" x="133690" y="-119120"/><use xlink:href="#LcGsAJangeNraJombHjw_pad-16" x="141190" y="-101020.5"/><use xlink:href="#LcGsAJangeNraJombHjw_pad-16" x="134690" y="-121120"/><use xlink:href="#LcGsAJangeNraJombHjw_pad-16" x="134940" y="-93120"/><use xlink:href="#LcGsAJangeNraJombHjw_pad-16" x="135690" y="-122620"/><use xlink:href="#LcGsAJangeNraJombHjw_pad-16" x="141440" y="-92145.5"/><use xlink:href="#LcGsAJangeNraJombHjw_pad-16" x="135690" y="-128870"/><use xlink:href="#LcGsAJangeNraJombHjw_pad-16" x="135690" y="-130370"/><use xlink:href="#LcGsAJangeNraJombHjw_pad-16" x="136190" y="-93120"/><use xlink:href="#LcGsAJangeNraJombHjw_pad-16" x="136690" y="-111120"/><use xlink:href="#LcGsAJangeNraJombHjw_pad-16" x="150190" y="-119870"/><path d="M 138940 -88620 138940 -94802.5 138835 -94907.5 M 130190 -93370 123690 -93370 119190 -97870 M 135440 -100620 136565 -101745 M 109941.24 -105618.76 109941.24 -134933.407 M 119190 -97870 117690 -97870 M 136565 -101745 143127.5 -101745 M 117690 -97870 109941.24 -105618.76 M 131778.249 -104370 121190 -104370 M 132002.5 -104285 131863.249 -104285 131778.249 -104370 M 112941.24 -112618.76 112941.24 -134933.407 M 121190 -104370 112941.24 -112618.76 M 114441.24 -114371.24 114441.24 -134933.407 M 116795 -103015 132002.5 -103015 M 116190 -103620 116795 -103015 M 114440 -103620 116190 -103620 M 114440 -114370 114441.24 -114371.24 M 115940 -101870 115940 -102288.503 M 132002.5 -101745 116065 -101745 M 115940 -102288.503 115928.59 -102299.913 M 116065 -101745 115940 -101870 M 115941.24 -114371.24 115941.24 -134933.407 M 115940 -114370 115941.24 -114371.24 M 117440 -100620 117440 -101020.5 M 117585 -100475 117440 -100620 M 132002.5 -100475 117585 -100475 M 117440 -114370 117441.24 -114371.24 117441.24 -134933.407 M 119105 -99205 118940 -99370 M 118940 -114370 118941.24 -114371.24 118941.24 -134933.407 M 118940 -99370 118940 -99750.5 M 132002.5 -99205 119105 -99205 M 120441.24 -114371.24 120441.24 -134933.407 M 132002.5 -97935 120875 -97935 120440 -98370 M 120440 -114370 120441.24 -114371.24 M 122145 -96665 121940 -96870 M 121941.24 -114371.24 121941.24 -134933.407 M 121940 -114370 121941.24 -114371.24 M 121940 -96870 121940 -97210.5 M 132002.5 -96665 122145 -96665 M 123902.5 -94907.5 123440 -95370 M 133755 -94907.5 123902.5 -94907.5 M 123441.24 -114371.24 123441.24 -134933.407 M 123440 -114370 123441.24 -114371.24 M 123440 -95370 123440 -95870 M 124941.24 -134933.407 124941.24 -132683.407 M 140440 -96620 143082.5 -96620 M 124941.24 -132683.407 124690 -132432.167 124690 -114870 M 143082.5 -96620 143127.5 -96665 M 124690 -114870 124690 -114370 M 132566.241 -117743.759 132690 -117620 M 142942.5 -98120 143127.5 -97935 M 140690 -98120 142942.5 -98120 M 126441.24 -134933.407 126441.24 -132683.407 M 132566.241 -126558.406 132566.241 -117870 M 126441.24 -132683.407 132566.241 -126558.406 M 132566.241 -117870 132566.241 -117743.759 M 127941.24 -132683.407 127941.24 -134933.407 M 139940 -103120 143022.5 -103120 143127.5 -103015 M 133440 -127184.647 127941.24 -132683.407 M 133440 -119370 133440 -127184.647 M 133690 -119120 133440 -119370 M 129441.24 -132368.76 129441.24 -134933.407 M 141190 -101020.5 141190 -99870 M 134690 -121120 134440 -121370 134440 -127370 M 141190 -99870 141855 -99205 M 134440 -127370 129441.24 -132368.76 M 141855 -99205 143127.5 -99205 M 135690 -122620 135465 -122845 135465 -127595 M 134940 -94822.5 135025 -94907.5 M 130941.24 -132118.76 130941.24 -134933.407 M 134940 -93120 134940 -94822.5 M 135465 -127595 130941.24 -132118.76 M 141440 -94842.5 141375 -94907.5 M 135690 -128870 132441.24 -132118.76 132441.24 -134933.407 M 141440 -92145.5 141440 -94842.5 M 136295 -93225 136295 -94907.5 M 136190 -93120 136295 -93225 M 133941.24 -132118.76 133941.24 -134933.407 M 135690 -130370 133941.24 -132118.76 M 131235 -106825 130440 -107620 M 132002.5 -106825 131235 -106825 M 130440 -109370 131940 -110870 M 131940 -113870 136941.24 -118871.24 M 130440 -107620 130440 -109370 M 131940 -110870 131940 -113870 M 136941.24 -118871.24 136941.24 -134933.407 M 133755 -108582.5 133755 -113185 138441.24 -117871.24 138441.24 -134933.407 M 139941.24 -130871.24 139941.24 -134933.407 M 135025 -111705 139940 -116620 M 135025 -108582.5 135025 -111705 M 139940 -116620 139940 -130870 139941.24 -130871.24 M 138835 -108582.5 138835 -113015 141441.24 -115621.24 141441.24 -134933.407 M 140105 -108582.5 140105 -111535 142941.24 -114371.24 142941.24 -134933.407 M 144441.24 -111648.74 144441.24 -134933.407 M 141375 -108582.5 144441.24 -111648.74 M 143127.5 -106825 145941.24 -109638.74 145941.24 -134933.407 M 143127.5 -105555 143266.751 -105555 147441.24 -109729.489 147441.24 -134933.407 M 140105 -87785 139690 -87370 127440 -87370 M 119440 -95370 112902.5 -95370 M 127440 -87370 119440 -95370 M 140105 -94907.5 140105 -87785" fill="none" stroke-width="250"/><path d="M 110882.121 -78723.502 110928.614 -78777.158 110940 -78829.5 110940 -87854.496 110919.998 -87922.617 110866.342 -87969.11 110796.068 -87979.214 110774.333 -87974.089 110701.293 -87949.863 110687.914 -87946.995 110593.562 -87937.328 110587.145 -87937 110362.115 -87937 110346.876 -87941.475 110345.671 -87942.865 110344 -87950.548 110344 -90284.884 110348.475 -90300.123 110349.865 -90301.328 110357.548 -90302.999 110587.095 -90302.999 110593.614 -90302.662 110689.206 -90292.743 110702.6 -90289.851 110774.124 -90265.989 110845.074 -90263.405 110906.158 -90299.589 110937.982 -90363.053 110940 -90385.513 110940 -94029.518 110919.998 -94097.639 110866.342 -94144.132 110796.068 -94154.236 110747.884 -94136.778 110618.757 -94057.184 110605.576 -94051.037 110451.29 -93999.862 110437.914 -93996.995 110343.562 -93987.328 110337.145 -93987 110249.615 -93987 110234.376 -93991.475 110233.171 -93992.865 110231.5 -94000.548 110231.5 -96734.884 110235.975 -96750.123 110237.365 -96751.328 110245.048 -96752.999 110337.095 -96752.999 110343.614 -96752.662 110439.206 -96742.743 110452.6 -96739.851 110606.784 -96688.412 110619.962 -96682.239 110747.697 -96603.193 110816.148 -96584.355 110883.918 -96605.516 110929.489 -96659.957 110940 -96710.337 110940 -100067.81 110919.998 -100135.931 110903.095 -100156.905 105940 -105120 105940 -131549.407 105919.998 -131617.528 105866.342 -131664.021 105814 -131675.407 105563.355 -131675.407 105548.116 -131679.882 105546.911 -131681.272 105545.24 -131688.955 105545.24 -135311.407 105525.238 -135379.528 105471.582 -135426.021 105419.24 -135437.407 105163.24 -135437.407 105095.119 -135417.405 105048.626 -135363.749 105037.24 -135311.407 105037.24 -131693.523 105032.765 -131678.284 105031.375 -131677.079 105023.692 -131675.408 104816 -131675.408 104747.879 -131655.406 104701.386 -131601.75 104690 -131549.408 104690 -130620 104682.206 -130620 104659.83 -130600.611 104660.287 -130600.083 104647.882 -130593.308 104613.94 -130531.139 104613.976 -130525.279 104605.85 -130496.847 104602.272 -130480.085 104599.352 -130459.698 104598.08 -130450.813 104587.451 -130427.436 104581.004 -130409.913 104576.416 -130393.862 104573.949 -130385.229 104569.156 -130377.632 104558.17 -130360.22 104550.03 -130345.135 104537.792 -130318.218 104521.03 -130298.765 104509.927 -130283.761 104496.224 -130262.042 104489.499 -130256.103 104489.496 -130256.099 104474.062 -130242.468 104462.018 -130230.276 104448.573 -130214.673 104448.57 -130214.671 104442.713 -130207.873 104421.165 -130193.906 104406.291 -130182.615 104393.783 -130171.569 104393.782 -130171.568 104387.049 -130165.622 104360.287 -130153.057 104345.309 -130144.737 104328.017 -130133.529 104328.012 -130133.527 104320.485 -130128.648 104311.892 -130126.078 104311.887 -130126.076 104295.88 -130121.289 104278.436 -130114.628 104263.324 -130107.533 104263.322 -130107.532 104255.2 -130103.719 104246.333 -130102.338 104246.332 -130102.338 104236.69 -130100.837 104225.983 -130099.17 104209.268 -130095.387 104189.534 -130089.485 104189.528 -130089.484 104180.934 -130086.914 104171.963 -130086.859 104171.962 -130086.859 104161.903 -130086.798 104146.494 -130086.704 104145.711 -130086.671 104144.614 -130086.5 104113.623 -130086.5 104112.853 -130086.498 104039.215 -130086.048 104039.214 -130086.048 104035.279 -130086.024 104033.935 -130086.408 104032.59 -130086.5 103639.5 -130086.5 103571.379 -130066.498 103524.886 -130012.842 103513.5 -129960.5 103513.5 -96042.095 108907.001 -96042.095 108907.338 -96048.614 108917.257 -96144.206 108920.149 -96157.6 108971.588 -96311.784 108977.761 -96324.962 109063.063 -96462.807 109072.099 -96474.208 109186.829 -96588.739 109198.24 -96597.751 109336.243 -96682.816 109349.424 -96688.963 109503.71 -96740.138 109517.086 -96743.005 109611.438 -96752.672 109617.854 -96753 109705.385 -96753 109720.624 -96748.525 109721.829 -96747.135 109723.5 -96739.452 109723.5 -95642.115 109719.025 -95626.876 109717.635 -95625.671 109709.952 -95624 108925.116 -95624 108909.877 -95628.475 108908.672 -95629.865 108907.001 -95637.548 108907.001 -96042.095 103513.5 -96042.095 103513.5 -95097.885 108907 -95097.885 108911.475 -95113.124 108912.865 -95114.329 108920.548 -95116 109705.385 -95116 109720.624 -95111.525 109721.829 -95110.135 109723.5 -95102.452 109723.5 -94005.116 109719.025 -93989.877 109717.635 -93988.672 109709.952 -93987.001 109617.905 -93987.001 109611.386 -93987.338 109515.794 -93997.257 109502.4 -94000.149 109348.216 -94051.588 109335.038 -94057.761 109197.193 -94143.063 109185.792 -94152.099 109071.261 -94266.829 109062.249 -94278.24 108977.184 -94416.243 108971.037 -94429.424 108919.862 -94583.71 108916.995 -94597.086 108907.328 -94691.438 108907 -94697.854 108907 -95097.885 103513.5 -95097.885 103513.5 -89592.095 108882.001 -89592.095 108882.338 -89598.614 108892.257 -89694.206 108895.149 -89707.6 108946.588 -89861.784 108952.761 -89874.962 109038.063 -90012.807 109047.099 -90024.208 109161.829 -90138.739 109173.24 -90147.751 109311.243 -90232.816 109324.424 -90238.963 109478.71 -90290.138 109492.086 -90293.005 109586.438 -90302.672 109592.854 -90303 109817.885 -90303 109833.124 -90298.525 109834.329 -90297.135 109836 -90289.452 109836 -89392.115 109831.525 -89376.876 109830.135 -89375.671 109822.452 -89374 108900.116 -89374 108884.877 -89378.475 108883.672 -89379.865 108882.001 -89387.548 108882.001 -89592.095 103513.5 -89592.095 103513.5 -88847.885 108882 -88847.885 108886.475 -88863.124 108887.865 -88864.329 108895.548 -88866 109817.885 -88866 109833.124 -88861.525 109834.329 -88860.135 109836 -88852.452 109836 -87955.116 109831.525 -87939.877 109830.135 -87938.672 109822.452 -87937.001 109592.905 -87937.001 109586.386 -87937.338 109490.794 -87947.257 109477.4 -87950.149 109323.216 -88001.588 109310.038 -88007.761 109172.193 -88093.063 109160.792 -88102.099 109046.261 -88216.829 109037.249 -88228.24 108952.184 -88366.243 108946.037 -88379.424 108894.862 -88533.71 108891.995 -88547.086 108882.328 -88641.438 108882 -88647.855 108882 -88847.885 103513.5 -88847.885 103513.5 -78829.5 103533.502 -78761.379 103587.158 -78714.886 103639.5 -78703.5 110814 -78703.5 110882.121 -78723.502"/><path d="M 149838.621 -78723.502 149885.114 -78777.158 149896.5 -78829.5 149896.5 -80786.377 149896.498 -80787.147 149896.024 -80864.721 149898.491 -80873.352 149904.15 -80893.153 149907.728 -80909.915 149911.92 -80939.187 149915.634 -80947.355 149915.634 -80947.356 149922.548 -80962.562 149928.996 -80980.086 149936.051 -81004.771 149940.843 -81012.365 149940.844 -81012.368 149951.83 -81029.78 149959.969 -81044.863 149972.208 -81071.782 149978.069 -81078.584 149988.97 -81091.235 150000.073 -81106.239 150013.776 -81127.958 150020.501 -81133.897 150020.504 -81133.901 150035.938 -81147.532 150047.982 -81159.724 150061.427 -81175.327 150061.43 -81175.329 150067.287 -81182.127 150074.816 -81187.007 150074.817 -81187.008 150088.835 -81196.094 150103.709 -81207.385 150116.217 -81218.431 150122.951 -81224.378 150149.711 -81236.942 150164.691 -81245.263 150181.983 -81256.471 150181.988 -81256.473 150189.515 -81261.352 150198.108 -81263.922 150198.113 -81263.924 150214.12 -81268.711 150231.564 -81275.372 150246.676 -81282.467 150246.678 -81282.468 150254.8 -81286.281 150263.667 -81287.662 150263.668 -81287.662 150273.31 -81289.163 150284.017 -81290.83 150300.732 -81294.613 150320.466 -81300.515 150320.472 -81300.516 150329.066 -81303.086 150338.037 -81303.141 150338.038 -81303.141 150348.097 -81303.202 150363.506 -81303.296 150364.289 -81303.329 150365.386 -81303.5 150396.377 -81303.5 150397.147 -81303.502 150470.785 -81303.952 150470.786 -81303.952 150474.721 -81303.976 150476.065 -81303.592 150477.41 -81303.5 153770.5 -81303.5 153838.621 -81323.502 153885.114 -81377.158 153896.5 -81429.5 153896.5 -129960.5 153876.498 -130028.621 153822.842 -130075.114 153770.5 -130086.5 153313.623 -130086.5 153312.853 -130086.498 153312.037 -130086.493 153235.279 -130086.024 153212.918 -130092.415 153206.847 -130094.15 153190.085 -130097.728 153160.813 -130101.92 153152.645 -130105.634 153152.644 -130105.634 153137.438 -130112.548 153119.914 -130118.996 153095.229 -130126.051 153087.635 -130130.843 153087.632 -130130.844 153070.22 -130141.83 153055.137 -130149.969 153028.218 -130162.208 153021.416 -130168.069 153008.765 -130178.97 152993.761 -130190.073 152972.042 -130203.776 152966.103 -130210.501 152966.099 -130210.504 152952.468 -130225.938 152940.276 -130237.982 152924.673 -130251.427 152924.671 -130251.43 152917.873 -130257.287 152912.993 -130264.816 152912.992 -130264.817 152903.906 -130278.835 152892.615 -130293.709 152881.569 -130306.217 152875.622 -130312.951 152863.058 -130339.711 152854.737 -130354.691 152843.529 -130371.983 152843.527 -130371.988 152838.648 -130379.515 152836.078 -130388.108 152836.076 -130388.113 152831.289 -130404.12 152824.628 -130421.564 152813.719 -130444.8 152812.338 -130453.667 152812.338 -130453.668 152809.17 -130474.015 152805.387 -130490.732 152799.485 -130510.466 152799.484 -130510.472 152796.914 -130519.066 152796.859 -130528.037 152796.859 -130528.038 152796.704 -130553.497 152796.671 -130554.289 152796.5 -130555.386 152796.5 -130586.377 152796.498 -130587.147 152796.024 -130664.721 152796.408 -130666.065 152796.5 -130667.41 152796.5 -131549.407 152776.498 -131617.528 152722.842 -131664.021 152670.5 -131675.407 152363.355 -131675.407 152348.116 -131679.882 152346.911 -131681.272 152345.24 -131688.955 152345.24 -132620 151837.24 -132620 151837.24 -131693.523 151832.765 -131678.284 151831.375 -131677.079 151823.692 -131675.408 151566 -131675.408 151497.879 -131655.406 151451.386 -131601.75 151440 -131549.408 151440 -131120 151426.446 -131120.003 151426.445 -131120.003 148200.77 -131120.761 148132.644 -131100.775 148086.139 -131047.13 148074.74 -130994.761 148074.74 -109808.256 148075.267 -109797.073 148076.942 -109789.58 148076.232 -109766.973 148074.802 -109721.49 148074.74 -109717.532 148074.74 -109689.633 148074.236 -109685.642 148073.303 -109673.8 148073.192 -109670.246 148071.914 -109629.6 148069.702 -109621.986 148069.701 -109621.981 148066.263 -109610.148 148062.252 -109590.784 148060.707 -109578.553 148059.714 -109570.692 148056.797 -109563.325 148056.796 -109563.32 148043.438 -109529.581 148039.594 -109518.354 148033.93 -109498.861 148027.258 -109475.896 148016.947 -109458.461 148008.252 -109440.713 148000.792 -109421.872 147974.804 -109386.102 147968.288 -109376.182 147949.82 -109344.954 147949.818 -109344.951 147945.782 -109338.127 147931.461 -109323.806 147918.62 -109308.772 147911.371 -109298.795 147906.712 -109292.382 147872.635 -109264.191 147863.856 -109256.201 144410.405 -105802.749 144376.379 -105740.437 144373.5 -105713.654 144373.5 -105338.498 144373.307 -105336.042 144371.067 -105307.579 144371.066 -105307.574 144370.562 -105301.169 144340.062 -105196.186 144326.357 -105149.012 144326.356 -105149.01 144324.145 -105141.399 144239.453 -104998.193 144236.513 -104995.253 144211.18 -104930.734 144225.079 -104861.111 144237.126 -104842.364 144243.09 -104834.676 144319.648 -104705.221 144325.893 -104690.79 144364.939 -104556.395 144364.899 -104542.294 144357.63 -104539 141903.122 -104539 141889.591 -104542.973 141888.456 -104550.871 141929.107 -104690.79 141935.352 -104705.221 142011.911 -104834.677 142017.871 -104842.36 142043.82 -104908.444 142029.922 -104978.067 142019.579 -104994.161 142015.547 -104998.193 141930.855 -105141.399 141928.644 -105149.01 141928.643 -105149.012 141914.938 -105196.186 141884.438 -105301.169 141883.934 -105307.574 141883.933 -105307.579 141881.693 -105336.042 141881.5 -105338.498 141881.5 -105771.502 141884.438 -105808.831 141930.855 -105968.601 142015.547 -106111.807 142018.229 -106114.489 142043.502 -106178.861 142029.6 -106248.484 142019.428 -106264.312 142015.547 -106268.193 141930.855 -106411.399 141884.438 -106571.169 141881.5 -106608.498 141881.5 -107041.502 141884.438 -107078.831 141886.232 -107085.007 141886.233 -107085.011 141926.751 -107224.477 141926.548 -107295.473 141887.994 -107355.089 141823.329 -107384.397 141770.603 -107380.626 141712.077 -107363.623 141635.008 -107341.232 141635.003 -107341.231 141628.831 -107339.438 141622.426 -107338.934 141622.421 -107338.933 141593.958 -107336.693 141593.95 -107336.693 141591.502 -107336.5 141158.498 -107336.5 141156.05 -107336.693 141156.042 -107336.693 141127.579 -107338.933 141127.574 -107338.934 141121.169 -107339.438 141056.858 -107358.122 140969.012 -107383.643 140969.01 -107383.644 140961.399 -107385.855 140818.193 -107470.547 140815.511 -107473.229 140751.139 -107498.502 140681.516 -107484.6 140665.688 -107474.428 140661.807 -107470.547 140518.601 -107385.855 140510.99 -107383.644 140510.988 -107383.643 140423.142 -107358.122 140358.831 -107339.438 140352.426 -107338.934 140352.421 -107338.933 140323.958 -107336.693 140323.95 -107336.693 140321.502 -107336.5 139888.498 -107336.5 139886.05 -107336.693 139886.042 -107336.693 139857.579 -107338.933 139857.574 -107338.934 139851.169 -107339.438 139786.858 -107358.122 139699.012 -107383.643 139699.01 -107383.644 139691.399 -107385.855 139548.193 -107470.547 139545.511 -107473.229 139481.139 -107498.502 139411.516 -107484.6 139395.688 -107474.428 139391.807 -107470.547 139248.601 -107385.855 139240.99 -107383.644 139240.988 -107383.643 139153.142 -107358.122 139088.831 -107339.438 139082.426 -107338.934 139082.421 -107338.933 139053.958 -107336.693 139053.95 -107336.693 139051.502 -107336.5 138618.498 -107336.5 138616.05 -107336.693 138616.042 -107336.693 138587.579 -107338.933 138587.574 -107338.934 138581.169 -107339.438 138516.858 -107358.122 138429.012 -107383.643 138429.01 -107383.644 138421.399 -107385.855 138278.193 -107470.547 138275.511 -107473.229 138211.139 -107498.502 138141.516 -107484.6 138125.688 -107474.428 138121.807 -107470.547 137978.601 -107385.855 137970.99 -107383.644 137970.988 -107383.643 137883.142 -107358.122 137818.831 -107339.438 137812.426 -107338.934 137812.421 -107338.933 137783.958 -107336.693 137783.95 -107336.693 137781.502 -107336.5 137348.498 -107336.5 137346.05 -107336.693 137346.042 -107336.693 137317.579 -107338.933 137317.574 -107338.934 137311.169 -107339.438 137246.858 -107358.122 137159.012 -107383.643 137159.01 -107383.644 137151.399 -107385.855 137008.193 -107470.547 137005.253 -107473.487 136940.729 -107498.821 136871.106 -107484.92 136852.36 -107472.871 136844.677 -107466.911 136715.221 -107390.352 136700.79 -107384.107 136566.395 -107345.061 136552.294 -107345.101 136549 -107352.37 136549 -109806.878 136552.973 -109820.409 136560.871 -109821.544 136700.79 -109780.893 136715.221 -109774.648 136844.676 -109698.09 136852.364 -109692.126 136918.449 -109666.179 136988.072 -109680.08 137004.158 -109690.418 137008.193 -109694.453 137015.023 -109698.492 137015.024 -109698.493 137047.217 -109717.532 137151.399 -109779.145 137159.01 -109781.356 137159.012 -109781.357 137191.23 -109790.717 137311.169 -109825.562 137317.574 -109826.066 137317.579 -109826.067 137346.042 -109828.307 137346.05 -109828.307 137348.498 -109828.5 137781.502 -109828.5 137783.95 -109828.307 137783.958 -109828.307 137812.421 -109826.067 137812.426 -109826.066 137818.831 -109825.562 137938.77 -109790.717 137970.988 -109781.357 137970.99 -109781.356 137978.601 -109779.145 138011.363 -109759.769 138080.178 -109742.311 138147.509 -109764.828 138191.978 -109820.173 138201.5 -109868.224 138201.5 -112936.233 138200.973 -112947.416 138199.298 -112954.909 138199.547 -112962.835 138199.547 -112962.836 138201.438 -113022.986 138201.5 -113026.945 138201.5 -113054.856 138201.997 -113058.79 138201.997 -113058.791 138202.005 -113058.856 138202.938 -113070.693 138204.327 -113114.889 138209.541 -113132.836 138209.978 -113134.339 138213.987 -113153.7 138216.526 -113173.797 138219.445 -113181.168 138219.445 -113181.17 138232.804 -113214.912 138236.649 -113226.142 138239.153 -113234.76 138248.982 -113268.593 138253.015 -113275.412 138253.017 -113275.417 138259.293 -113286.028 138267.988 -113303.776 138275.448 -113322.617 138280.11 -113329.033 138280.11 -113329.034 138301.436 -113358.387 138307.952 -113368.307 138324.414 -113396.142 138330.458 -113406.362 138344.779 -113420.683 138357.619 -113435.716 138369.528 -113452.107 138375.634 -113457.158 138403.605 -113480.298 138412.384 -113488.288 140770.835 -115846.74 140804.861 -115909.052 140807.74 -115935.835 140807.74 -116438.634 140787.738 -116506.755 140734.082 -116553.248 140663.808 -116563.352 140599.228 -116533.858 140559.698 -116469.966 140559.468 -116469.069 140558.474 -116461.203 140555.558 -116453.837 140555.556 -116453.831 140542.2 -116420.098 140538.355 -116408.868 140528.23 -116374.017 140528.23 -116374.016 140526.019 -116366.407 140515.705 -116348.966 140507.008 -116331.213 140502.472 -116319.758 140499.552 -116312.383 140473.563 -116276.612 140467.047 -116266.692 140448.578 -116235.463 140444.542 -116228.638 140430.221 -116214.317 140417.38 -116199.283 140410.131 -116189.306 140405.472 -116182.893 140371.395 -116154.702 140362.616 -116146.712 135695.405 -111479.5 135661.379 -111417.188 135658.5 -111390.405 135658.5 -109867.643 135678.502 -109799.522 135732.158 -109753.029 135802.432 -109742.925 135848.639 -109759.189 135874.779 -109774.648 135889.21 -109780.893 136023.605 -109819.939 136037.706 -109819.899 136041 -109812.63 136041 -107358.122 136037.027 -107344.591 136029.129 -107343.456 135889.21 -107384.107 135874.779 -107390.352 135745.324 -107466.91 135737.636 -107472.874 135671.551 -107498.821 135601.928 -107484.92 135585.842 -107474.582 135581.807 -107470.547 135546.537 -107449.688 135445.427 -107389.892 135445.428 -107389.892 135438.601 -107385.855 135430.99 -107383.644 135430.988 -107383.643 135343.142 -107358.122 135278.831 -107339.438 135272.426 -107338.934 135272.421 -107338.933 135243.958 -107336.693 135243.95 -107336.693 135241.502 -107336.5 134808.498 -107336.5 134806.05 -107336.693 134806.042 -107336.693 134777.579 -107338.933 134777.574 -107338.934 134771.169 -107339.438 134706.858 -107358.122 134619.012 -107383.643 134619.01 -107383.644 134611.399 -107385.855 134468.193 -107470.547 134465.511 -107473.229 134401.139 -107498.502 134331.516 -107484.6 134315.688 -107474.428 134311.807 -107470.547 134168.601 -107385.855 134160.99 -107383.644 134160.988 -107383.643 134073.142 -107358.122 134008.831 -107339.438 134002.426 -107338.934 134002.421 -107338.933 133973.958 -107336.693 133973.95 -107336.693 133971.502 -107336.5 133538.498 -107336.5 133536.05 -107336.693 133536.042 -107336.693 133507.579 -107338.933 133507.574 -107338.934 133501.169 -107339.438 133494.997 -107341.231 133494.992 -107341.232 133417.923 -107363.623 133359.398 -107380.626 133288.403 -107380.423 133228.786 -107341.869 133199.478 -107277.204 133203.249 -107224.477 133243.767 -107085.011 133243.768 -107085.007 133245.562 -107078.831 133248.5 -107041.502 133248.5 -106608.498 133245.562 -106571.169 133199.145 -106411.399 133114.453 -106268.193 133111.771 -106265.511 133086.498 -106201.139 133100.4 -106131.516 133110.572 -106115.688 133114.453 -106111.807 133199.145 -105968.601 133245.562 -105808.831 133248.5 -105771.502 133248.5 -105338.498 133248.307 -105336.042 133246.067 -105307.579 133246.066 -105307.574 133245.562 -105301.169 133215.062 -105196.186 133201.357 -105149.012 133201.356 -105149.01 133199.145 -105141.399 133114.453 -104998.193 133111.771 -104995.511 133086.498 -104931.139 133100.4 -104861.516 133110.572 -104845.688 133114.453 -104841.807 133199.145 -104698.601 133201.415 -104690.79 133243.767 -104545.008 133245.562 -104538.831 133246.376 -104528.5 133248.307 -104503.958 133248.307 -104503.95 133248.5 -104501.502 133248.5 -104068.498 133247.154 -104051.395 133246.067 -104037.579 133246.066 -104037.574 133245.562 -104031.169 133206.708 -103897.432 133201.357 -103879.012 133201.356 -103879.01 133199.145 -103871.399 133114.453 -103728.193 133111.771 -103725.511 133086.498 -103661.139 133100.4 -103591.516 133110.572 -103575.688 133114.453 -103571.807 133199.145 -103428.601 133245.562 -103268.831 133248.5 -103231.502 133248.5 -102798.498 133245.562 -102761.169 133199.145 -102601.399 133114.453 -102458.193 133111.771 -102455.511 133086.498 -102391.139 133100.4 -102321.516 133110.572 -102305.688 133114.453 -102301.807 133199.145 -102158.601 133202.799 -102146.026 133243.767 -102005.008 133245.562 -101998.831 133248.5 -101961.502 133248.5 -101528.498 133247.236 -101512.434 133246.067 -101497.579 133246.066 -101497.574 133245.562 -101491.169 133216.528 -101391.231 133201.357 -101339.012 133201.356 -101339.01 133199.145 -101331.399 133114.453 -101188.193 133111.771 -101185.511 133086.498 -101121.139 133100.4 -101051.516 133110.572 -101035.688 133114.453 -101031.807 133199.145 -100888.601 133245.562 -100728.831 133248.5 -100691.502 133248.5 -100258.498 133248.307 -100256.042 133246.067 -100227.579 133246.066 -100227.574 133245.562 -100221.169 133199.145 -100061.399 133114.453 -99918.193 133111.771 -99915.511 133086.498 -99851.139 133100.4 -99781.516 133110.572 -99765.688 133114.453 -99761.807 133199.145 -99618.601 133245.562 -99458.831 133247.793 -99430.493 133248.307 -99423.958 133248.307 -99423.95 133248.5 -99421.502 133248.5 -98988.498 133246.45 -98962.449 133246.067 -98957.579 133246.066 -98957.574 133245.562 -98951.169 133216.528 -98851.231 133201.357 -98799.012 133201.356 -98799.01 133199.145 -98791.399 133114.453 -98648.193 133111.771 -98645.511 133086.498 -98581.139 133100.4 -98511.516 133110.572 -98495.688 133114.453 -98491.807 133199.145 -98348.601 133210.381 -98309.928 133243.767 -98195.008 133245.562 -98188.831 133248.5 -98151.502 133248.5 -97718.498 133245.562 -97681.169 133199.145 -97521.399 133114.453 -97378.193 133111.771 -97375.511 133086.498 -97311.139 133100.4 -97241.516 133110.572 -97225.688 133114.453 -97221.807 133199.145 -97078.601 133245.562 -96918.831 133248.5 -96881.502 133248.5 -96448.498 133248.307 -96446.042 133246.067 -96417.579 133246.066 -96417.574 133245.562 -96411.169 133243.768 -96404.993 133243.767 -96404.989 133203.249 -96265.523 133203.452 -96194.527 133242.006 -96134.911 133306.671 -96105.603 133359.397 -96109.374 133417.923 -96126.377 133494.992 -96148.768 133494.997 -96148.769 133501.169 -96150.562 133507.574 -96151.066 133507.579 -96151.067 133536.042 -96153.307 133536.05 -96153.307 133538.498 -96153.5 133971.502 -96153.5 133973.95 -96153.307 133973.958 -96153.307 134002.421 -96151.067 134002.426 -96151.066 134008.831 -96150.562 134131.169 -96115.02 134160.988 -96106.357 134160.99 -96106.356 134168.601 -96104.145 134311.807 -96019.453 134314.489 -96016.771 134378.861 -95991.498 134448.484 -96005.4 134464.312 -96015.572 134468.193 -96019.453 134611.399 -96104.145 134619.01 -96106.356 134619.012 -96106.357 134648.831 -96115.02 134771.169 -96150.562 134777.574 -96151.066 134777.579 -96151.067 134806.042 -96153.307 134806.05 -96153.307 134808.498 -96153.5 135241.502 -96153.5 135243.95 -96153.307 135243.958 -96153.307 135272.421 -96151.067 135272.426 -96151.066 135278.831 -96150.562 135401.169 -96115.02 135430.988 -96106.357 135430.99 -96106.356 135438.601 -96104.145 135581.807 -96019.453 135584.489 -96016.771 135648.861 -95991.498 135718.484 -96005.4 135734.312 -96015.572 135738.193 -96019.453 135881.399 -96104.145 135889.01 -96106.356 135889.012 -96106.357 135918.831 -96115.02 136041.169 -96150.562 136047.574 -96151.066 136047.579 -96151.067 136076.042 -96153.307 136076.05 -96153.307 136078.498 -96153.5 136511.502 -96153.5 136513.95 -96153.307 136513.958 -96153.307 136542.421 -96151.067 136542.426 -96151.066 136548.831 -96150.562 136671.169 -96115.02 136700.988 -96106.357 136700.99 -96106.356 136708.601 -96104.145 136851.807 -96019.453 136854.489 -96016.771 136918.861 -95991.498 136988.484 -96005.4 137004.312 -96015.572 137008.193 -96019.453 137151.399 -96104.145 137159.01 -96106.356 137159.012 -96106.357 137188.831 -96115.02 137311.169 -96150.562 137317.574 -96151.066 137317.579 -96151.067 137346.042 -96153.307 137346.05 -96153.307 137348.498 -96153.5 137781.502 -96153.5 137783.95 -96153.307 137783.958 -96153.307 137812.421 -96151.067 137812.426 -96151.066 137818.831 -96150.562 137941.169 -96115.02 137970.988 -96106.357 137970.99 -96106.356 137978.601 -96104.145 138121.807 -96019.453 138124.489 -96016.771 138188.861 -95991.498 138258.484 -96005.4 138274.312 -96015.572 138278.193 -96019.453 138421.399 -96104.145 138429.01 -96106.356 138429.012 -96106.357 138458.831 -96115.02 138581.169 -96150.562 138587.574 -96151.066 138587.579 -96151.067 138616.042 -96153.307 138616.05 -96153.307 138618.498 -96153.5 139051.502 -96153.5 139053.95 -96153.307 139053.958 -96153.307 139082.421 -96151.067 139082.426 -96151.066 139088.831 -96150.562 139211.169 -96115.02 139240.988 -96106.357 139240.99 -96106.356 139248.601 -96104.145 139391.807 -96019.453 139394.489 -96016.771 139458.861 -95991.498 139528.484 -96005.4 139544.315 -96015.575 139548.193 -96019.453 139555.013 -96023.486 139555.019 -96023.491 139582.126 -96039.522 139630.579 -96091.415 139643.284 -96161.265 139627.107 -96210.973 139605.473 -96248.444 139546.458 -96430.072 139545.768 -96436.633 139545.768 -96436.635 139544.521 -96448.498 139526.496 -96620 139527.186 -96626.565 139539.145 -96740.345 139546.458 -96809.928 139605.473 -96991.556 139700.96 -97156.944 139705.378 -97161.851 139705.379 -97161.852 139820.711 -97289.941 139828.747 -97298.866 139834.089 -97302.747 139834.091 -97302.749 139870.06 -97328.882 139936.599 -97377.225 139944.107 -97382.68 139987.461 -97438.902 139993.536 -97509.638 139963.686 -97568.923 139950.96 -97583.056 139855.473 -97748.444 139796.458 -97930.072 139776.496 -98120 139777.186 -98126.565 139784.38 -98195.008 139796.458 -98309.928 139855.473 -98491.556 139858.776 -98497.278 139858.777 -98497.279 139862.369 -98503.5 139950.96 -98656.944 139955.378 -98661.851 139955.379 -98661.852 140072.024 -98791.399 140078.747 -98798.866 140171.628 -98866.348 140182.624 -98874.337 140233.248 -98911.118 140239.276 -98913.802 140239.278 -98913.803 140401.531 -98986.042 140407.712 -98988.794 140499.438 -99008.291 140588.056 -99027.128 140588.061 -99027.128 140594.513 -99028.5 140785.487 -99028.5 140791.944 -99027.128 140791.949 -99027.127 140814.029 -99022.434 140884.819 -99027.837 140941.451 -99070.654 140965.944 -99137.292 140950.522 -99206.593 140929.321 -99234.774 140797.742 -99366.353 140789.463 -99373.887 140782.982 -99378 140776.194 -99385.229 140736.357 -99427.651 140733.602 -99430.493 140713.865 -99450.23 140711.385 -99453.427 140703.682 -99462.447 140673.414 -99494.679 140669.595 -99501.625 140669.593 -99501.628 140663.652 -99512.434 140652.801 -99528.953 140640.386 -99544.959 140637.241 -99552.228 140637.238 -99552.232 140622.826 -99585.537 140617.609 -99596.187 140596.305 -99634.94 140594.334 -99642.615 140594.334 -99642.616 140591.267 -99654.562 140584.863 -99673.266 140576.819 -99691.855 140575.58 -99699.678 140575.577 -99699.688 140569.901 -99735.524 140567.495 -99747.144 140558.472 -99782.289 140556.5 -99789.97 140556.5 -99810.224 140554.949 -99829.934 140551.78 -99849.943 140552.526 -99857.835 140555.941 -99893.961 140556.5 -99905.819 140556.5 -100317.976 140536.498 -100386.097 140524.142 -100402.279 140450.96 -100483.556 140447.659 -100489.274 140362.99 -100635.925 140355.473 -100648.944 140296.458 -100830.572 140295.768 -100837.133 140295.768 -100837.135 140278.79 -100998.671 140251.777 -101064.327 140193.555 -101104.957 140153.48 -101111.5 136879.595 -101111.5 136811.474 -101091.498 136790.5 -101074.595 136387.122 -100671.217 136353.096 -100608.905 136350.907 -100595.292 136334.232 -100436.635 136334.232 -100436.633 136333.542 -100430.072 136274.527 -100248.444 136255.214 -100214.992 136233.655 -100177.652 136179.04 -100083.056 136151.418 -100052.378 136055.675 -99946.045 136055.674 -99946.044 136051.253 -99941.134 135931.307 -99853.988 135902.094 -99832.763 135902.093 -99832.762 135896.752 -99828.882 135890.724 -99826.198 135890.722 -99826.197 135728.319 -99753.891 135728.318 -99753.891 135722.288 -99751.206 135616.27 -99728.671 135541.944 -99712.872 135541.939 -99712.872 135535.487 -99711.5 135344.513 -99711.5 135338.061 -99712.872 135338.056 -99712.872 135263.73 -99728.671 135157.712 -99751.206 135151.682 -99753.891 135151.681 -99753.891 134989.278 -99826.197 134989.276 -99826.198 134983.248 -99828.882 134977.907 -99832.762 134977.906 -99832.763 134948.693 -99853.988 134828.747 -99941.134 134824.326 -99946.044 134824.325 -99946.045 134728.583 -100052.378 134700.96 -100083.056 134646.345 -100177.652 134624.787 -100214.992 134605.473 -100248.444 134546.458 -100430.072 134545.768 -100436.633 134545.768 -100436.635 134541.352 -100478.653 134526.496 -100620 134527.186 -100626.565 134533.752 -100689.033 134546.458 -100809.928 134605.473 -100991.556 134700.96 -101156.944 134705.378 -101161.851 134705.379 -101161.852 134807.141 -101274.87 134828.747 -101298.866 134864.13 -101324.573 134932.624 -101374.337 134983.248 -101411.118 134989.276 -101413.802 134989.278 -101413.803 135151.681 -101486.109 135157.712 -101488.794 135251.112 -101508.647 135338.056 -101527.128 135338.061 -101527.128 135344.513 -101528.5 135400.406 -101528.5 135468.527 -101548.502 135489.501 -101565.405 136061.343 -102137.247 136068.887 -102145.537 136073 -102152.018 136078.777 -102157.443 136122.667 -102198.658 136125.509 -102201.413 136145.23 -102221.134 136148.425 -102223.612 136157.447 -102231.318 136189.679 -102261.586 136196.628 -102265.406 136207.432 -102271.346 136223.956 -102282.199 136239.959 -102294.613 136280.543 -102312.176 136291.173 -102317.383 136329.94 -102338.695 136337.617 -102340.666 136337.622 -102340.668 136349.558 -102343.732 136368.266 -102350.137 136386.855 -102358.181 136394.683 -102359.421 136394.69 -102359.423 136430.524 -102365.099 136442.144 -102367.505 136477.289 -102376.528 136484.97 -102378.5 136505.224 -102378.5 136524.934 -102380.051 136544.943 -102383.22 136552.835 -102382.474 136579.007 -102380 136588.962 -102379.059 136600.819 -102378.5 139103.143 -102378.5 139171.264 -102398.502 139217.757 -102452.158 139227.861 -102522.432 139205.138 -102578.416 139200.96 -102583.056 139197.659 -102588.774 139197.658 -102588.775 139120.984 -102721.579 139105.473 -102748.444 139046.458 -102930.072 139045.768 -102936.633 139045.768 -102936.635 139041.339 -102978.779 139026.496 -103120 139027.186 -103126.565 139042.139 -103268.831 139046.458 -103309.928 139105.473 -103491.556 139200.96 -103656.944 139205.378 -103661.851 139205.379 -103661.852 139286.122 -103751.526 139328.747 -103798.866 139385.26 -103839.925 139474.178 -103904.528 139483.248 -103911.118 139489.276 -103913.802 139489.278 -103913.803 139564.678 -103947.373 139657.712 -103988.794 139751.112 -104008.647 139838.056 -104027.128 139838.061 -104027.128 139844.513 -104028.5 140035.487 -104028.5 140041.939 -104027.128 140041.944 -104027.128 140128.888 -104008.647 140222.288 -103988.794 140315.322 -103947.373 140390.722 -103913.803 140390.724 -103913.802 140396.752 -103911.118 140405.823 -103904.528 140545.061 -103803.365 140551.253 -103798.866 140555.668 -103793.963 140560.58 -103789.54 140561.705 -103790.789 140615.014 -103757.949 140648.2 -103753.5 141797.812 -103753.5 141865.933 -103773.502 141912.426 -103827.158 141922.53 -103897.432 141918.809 -103914.653 141890.061 -104013.604 141890.101 -104027.706 141897.37 -104031 144351.878 -104031 144365.409 -104027.027 144366.544 -104019.129 144325.893 -103879.21 144319.648 -103864.779 144243.089 -103735.323 144237.129 -103727.64 144211.18 -103661.556 144225.078 -103591.933 144235.421 -103575.839 144239.453 -103571.807 144324.145 -103428.601 144370.562 -103268.831 144373.5 -103231.502 144373.5 -102798.498 144370.562 -102761.169 144324.145 -102601.399 144239.453 -102458.193 144236.771 -102455.511 144211.498 -102391.139 144225.4 -102321.516 144235.572 -102305.688 144239.453 -102301.807 144324.145 -102158.601 144327.799 -102146.026 144368.767 -102005.008 144370.562 -101998.831 144373.5 -101961.502 144373.5 -101528.498 144372.236 -101512.434 144371.067 -101497.579 144371.066 -101497.574 144370.562 -101491.169 144341.528 -101391.231 144326.357 -101339.012 144326.356 -101339.01 144324.145 -101331.399 144239.453 -101188.193 144236.771 -101185.511 144211.498 -101121.139 144225.4 -101051.516 144235.572 -101035.688 144239.453 -101031.807 144324.145 -100888.601 144370.562 -100728.831 144373.5 -100691.502 144373.5 -100258.498 144373.307 -100256.042 144371.067 -100227.579 144371.066 -100227.574 144370.562 -100221.169 144324.145 -100061.399 144239.453 -99918.193 144236.771 -99915.511 144211.498 -99851.139 144225.4 -99781.516 144235.572 -99765.688 144239.453 -99761.807 144324.145 -99618.601 144370.562 -99458.831 144372.793 -99430.493 144373.307 -99423.958 144373.307 -99423.95 144373.5 -99421.502 144373.5 -98988.498 144371.45 -98962.449 144371.067 -98957.579 144371.066 -98957.574 144370.562 -98951.169 144341.528 -98851.231 144326.357 -98799.012 144326.356 -98799.01 144324.145 -98791.399 144239.453 -98648.193 144236.771 -98645.511 144211.498 -98581.139 144225.4 -98511.516 144235.572 -98495.688 144239.453 -98491.807 144324.145 -98348.601 144335.381 -98309.928 144368.767 -98195.008 144370.562 -98188.831 144373.5 -98151.502 144373.5 -97718.498 144370.562 -97681.169 144324.145 -97521.399 144239.453 -97378.193 144236.771 -97375.511 144211.498 -97311.139 144225.4 -97241.516 144235.572 -97225.688 144239.453 -97221.807 144324.145 -97078.601 144370.562 -96918.831 144373.5 -96881.502 144373.5 -96448.498 144373.307 -96446.042 144371.067 -96417.579 144371.066 -96417.574 144370.562 -96411.169 144341.4 -96310.791 144326.357 -96259.012 144326.356 -96259.01 144324.145 -96251.399 144266.248 -96153.5 144243.491 -96115.02 144243.489 -96115.017 144239.453 -96108.193 144121.807 -95990.547 144114.983 -95986.511 144114.98 -95986.509 143985.427 -95909.892 143985.428 -95909.892 143978.601 -95905.855 143970.99 -95903.644 143970.988 -95903.643 143915.656 -95887.568 143818.831 -95859.438 143812.426 -95858.934 143812.421 -95858.933 143783.958 -95856.693 143783.95 -95856.693 143781.502 -95856.5 142473.498 -95856.5 142471.05 -95856.693 142471.042 -95856.693 142442.579 -95858.933 142442.574 -95858.934 142436.169 -95859.438 142429.997 -95861.231 142429.992 -95861.232 142382.297 -95875.089 142294.398 -95900.626 142223.403 -95900.423 142163.786 -95861.869 142134.478 -95797.204 142138.249 -95744.477 142178.767 -95605.011 142178.768 -95605.007 142180.562 -95598.831 142183.5 -95561.502 142183.5 -94253.498 142180.562 -94216.169 142136.786 -94065.488 142136.357 -94064.012 142136.356 -94064.01 142134.145 -94056.399 142091.045 -93983.521 142073.5 -93919.385 142073.5 -92848.024 142093.502 -92779.903 142105.858 -92763.721 142179.04 -92682.444 142274.527 -92517.056 142333.542 -92335.428 142353.504 -92145.5 142333.542 -91955.572 142274.527 -91773.944 142179.04 -91608.556 142141.501 -91566.864 142055.675 -91471.545 142055.674 -91471.544 142051.253 -91466.634 141896.752 -91354.382 141890.724 -91351.698 141890.722 -91351.697 141728.319 -91279.391 141728.318 -91279.391 141722.288 -91276.706 141628.888 -91256.853 141541.944 -91238.372 141541.939 -91238.372 141535.487 -91237 141344.513 -91237 141338.061 -91238.372 141338.056 -91238.372 141251.113 -91256.853 141157.712 -91276.706 141151.682 -91279.391 141151.681 -91279.391 140989.278 -91351.697 140989.276 -91351.698 140983.248 -91354.382 140977.907 -91358.262 140977.906 -91358.263 140938.561 -91386.849 140871.693 -91410.708 140802.542 -91394.627 140753.061 -91343.713 140738.5 -91284.913 140738.5 -87863.768 140739.027 -87852.585 140740.702 -87845.092 140739.904 -87819.683 140738.562 -87777.002 140738.5 -87773.044 140738.5 -87745.144 140737.996 -87741.153 140737.063 -87729.311 140735.923 -87693.036 140735.674 -87685.111 140730.021 -87665.652 140726.012 -87646.293 140725.846 -87644.983 140723.474 -87626.203 140720.558 -87618.837 140720.556 -87618.831 140707.2 -87585.098 140703.355 -87573.868 140693.23 -87539.017 140693.23 -87539.016 140691.019 -87531.407 140680.705 -87513.966 140672.008 -87496.213 140667.472 -87484.758 140664.552 -87477.383 140638.563 -87441.612 140632.047 -87431.692 140609.542 -87393.638 140603.938 -87388.033 140595.22 -87379.315 140582.379 -87364.281 140575.131 -87354.305 140575.13 -87354.304 140570.472 -87347.893 140536.407 -87319.712 140527.626 -87311.722 140193.647 -86977.742 140186.113 -86969.463 140182 -86962.982 140132.347 -86916.355 140129.506 -86913.601 140109.77 -86893.865 140106.573 -86891.385 140097.551 -86883.68 140084.116 -86871.064 140065.321 -86853.414 140058.375 -86849.595 140058.372 -86849.593 140047.566 -86843.652 140031.047 -86832.801 140030.583 -86832.441 140015.041 -86820.386 140007.772 -86817.241 140007.768 -86817.238 139974.463 -86802.826 139963.813 -86797.609 139925.06 -86776.305 139905.437 -86771.267 139886.734 -86764.863 139875.42 -86759.967 139875.419 -86759.967 139868.145 -86756.819 139860.322 -86755.58 139860.312 -86755.577 139824.476 -86749.901 139812.856 -86747.495 139777.711 -86738.472 139777.71 -86738.472 139770.03 -86736.5 139749.776 -86736.5 139730.065 -86734.949 139727.534 -86734.548 139710.057 -86731.78 139702.165 -86732.526 139666.039 -86735.941 139654.181 -86736.5 127518.763 -86736.5 127507.579 -86735.973 127500.091 -86734.299 127492.168 -86734.548 127432.033 -86736.438 127428.075 -86736.5 127400.144 -86736.5 127396.229 -86736.995 127396.225 -86736.995 127396.167 -86737.003 127396.138 -86737.006 127384.296 -86737.939 127340.11 -86739.327 127322.744 -86744.372 127320.658 -86744.978 127301.306 -86748.986 127289.068 -86750.532 127289.066 -86750.533 127281.203 -86751.526 127240.086 -86767.806 127228.885 -86771.641 127186.406 -86783.982 127179.587 -86788.015 127179.582 -86788.017 127168.971 -86794.293 127151.221 -86802.99 127132.383 -86810.448 127125.967 -86815.109 127125.966 -86815.11 127096.625 -86836.428 127086.701 -86842.947 127055.46 -86861.422 127055.455 -86861.426 127048.637 -86865.458 127034.313 -86879.782 127019.281 -86892.621 127002.893 -86904.528 126974.712 -86938.593 126966.722 -86947.373 119214.5 -94699.595 119152.188 -94733.621 119125.405 -94736.5 114091.45 -94736.5 114023.329 -94716.498 113976.836 -94662.842 113966.123 -94623.503 113963.238 -94595.692 113963.237 -94595.688 113962.526 -94588.834 113906.55 -94421.054 113813.478 -94270.652 113688.303 -94145.695 113682.072 -94141.854 113543.968 -94056.725 113543.966 -94056.724 113537.738 -94052.885 113450.773 -94024.04 113376.389 -93999.368 113376.387 -93999.368 113369.861 -93997.203 113363.025 -93996.503 113363.022 -93996.502 113319.969 -93992.091 113265.4 -93986.5 112539.6 -93986.5 112536.354 -93986.837 112536.35 -93986.837 112440.692 -93996.762 112440.688 -93996.763 112433.834 -93997.474 112427.3 -93999.654 112427.295 -93999.655 112354.205 -94024.04 112283.255 -94026.624 112222.171 -93990.44 112190.347 -93926.976 112188.346 -93906.507 112146.372 -91238.372 112133.633 -90428.566 112152.561 -90360.139 112205.478 -90312.808 112272.459 -90301.24 112286.438 -90302.672 112292.854 -90303 112517.885 -90303 112533.124 -90298.525 112534.329 -90297.135 112536 -90289.452 112536 -90284.884 113044 -90284.884 113048.475 -90300.123 113049.865 -90301.328 113057.548 -90302.999 113287.095 -90302.999 113293.614 -90302.662 113389.206 -90292.743 113402.6 -90289.851 113556.784 -90238.412 113569.962 -90232.239 113707.807 -90146.937 113719.208 -90137.901 113833.739 -90023.171 113842.751 -90011.76 113927.816 -89873.757 113933.963 -89860.576 113985.138 -89706.29 113988.005 -89692.914 113997.672 -89598.562 113998 -89592.146 113998 -89392.115 113993.525 -89376.876 113992.135 -89375.671 113984.452 -89374 113062.115 -89374 113046.876 -89378.475 113045.671 -89379.865 113044 -89387.548 113044 -90284.884 112536 -90284.884 112536 -88847.885 113044 -88847.885 113048.475 -88863.124 113049.865 -88864.329 113057.548 -88866 113979.884 -88866 113995.123 -88861.525 113996.328 -88860.135 113997.999 -88852.452 113997.999 -88647.905 113997.662 -88641.386 113987.743 -88545.794 113984.851 -88532.4 113933.412 -88378.216 113927.239 -88365.038 113841.937 -88227.193 113832.901 -88215.792 113718.171 -88101.261 113706.76 -88092.249 113568.757 -88007.184 113555.576 -88001.037 113401.29 -87949.862 113387.914 -87946.995 113293.562 -87937.328 113287.145 -87937 113062.115 -87937 113046.876 -87941.475 113045.671 -87942.865 113044 -87950.548 113044 -88847.885 112536 -88847.885 112536 -87955.116 112531.525 -87939.877 112530.135 -87938.672 112522.452 -87937.001 112292.905 -87937.001 112286.386 -87937.338 112231.577 -87943.025 112161.756 -87930.16 112109.974 -87881.589 112092.591 -87819.683 111951.193 -78831.479 111970.12 -78763.055 112023.037 -78715.724 112077.176 -78703.5 149770.5 -78703.5 149838.621 -78723.502"/></g><g id="P82OxhQsCQfkmswdxv9p_top_solderpaste"><use xlink:href="#RI76HZESKl_StvxXB5bG_pad-10" x="112902.5" y="-95370"/><use xlink:href="#RI76HZESKl_StvxXB5bG_pad-10" x="109977.5" y="-95370"/><use xlink:href="#RI76HZESKl_StvxXB5bG_pad-11" x="110090" y="-89120"/><use xlink:href="#RI76HZESKl_StvxXB5bG_pad-11" x="112790" y="-89120"/><use xlink:href="#RI76HZESKl_StvxXB5bG_pad-12" x="137565" y="-94907.5"/><use xlink:href="#RI76HZESKl_StvxXB5bG_pad-12" x="136295" y="-94907.5"/><use xlink:href="#RI76HZESKl_StvxXB5bG_pad-12" x="135025" y="-94907.5"/><use xlink:href="#RI76HZESKl_StvxXB5bG_pad-12" x="133755" y="-94907.5"/><use xlink:href="#RI76HZESKl_StvxXB5bG_pad-13" x="132002.5" y="-96665"/><use xlink:href="#RI76HZESKl_StvxXB5bG_pad-13" x="132002.5" y="-97935"/><use xlink:href="#RI76HZESKl_StvxXB5bG_pad-13" x="132002.5" y="-99205"/><use xlink:href="#RI76HZESKl_StvxXB5bG_pad-13" x="132002.5" y="-100475"/><use xlink:href="#RI76HZESKl_StvxXB5bG_pad-13" x="132002.5" y="-101745"/><use xlink:href="#RI76HZESKl_StvxXB5bG_pad-13" x="132002.5" y="-103015"/><use xlink:href="#RI76HZESKl_StvxXB5bG_pad-13" x="132002.5" y="-104285"/><use xlink:href="#RI76HZESKl_StvxXB5bG_pad-13" x="132002.5" y="-105555"/><use xlink:href="#RI76HZESKl_StvxXB5bG_pad-13" x="132002.5" y="-106825"/><use xlink:href="#RI76HZESKl_StvxXB5bG_pad-12" x="133755" y="-108582.5"/><use xlink:href="#RI76HZESKl_StvxXB5bG_pad-12" x="135025" y="-108582.5"/><use xlink:href="#RI76HZESKl_StvxXB5bG_pad-12" x="136295" y="-108582.5"/><use xlink:href="#RI76HZESKl_StvxXB5bG_pad-12" x="137565" y="-108582.5"/><use xlink:href="#RI76HZESKl_StvxXB5bG_pad-12" x="138835" y="-108582.5"/><use xlink:href="#RI76HZESKl_StvxXB5bG_pad-12" x="140105" y="-108582.5"/><use xlink:href="#RI76HZESKl_StvxXB5bG_pad-12" x="141375" y="-108582.5"/><use xlink:href="#RI76HZESKl_StvxXB5bG_pad-13" x="143127.5" y="-106825"/><use xlink:href="#RI76HZESKl_StvxXB5bG_pad-13" x="143127.5" y="-105555"/><use xlink:href="#RI76HZESKl_StvxXB5bG_pad-13" x="143127.5" y="-104285"/><use xlink:href="#RI76HZESKl_StvxXB5bG_pad-13" x="143127.5" y="-103015"/><use xlink:href="#RI76HZESKl_StvxXB5bG_pad-13" x="143127.5" y="-101745"/><use xlink:href="#RI76HZESKl_StvxXB5bG_pad-13" x="143127.5" y="-100475"/><use xlink:href="#RI76HZESKl_StvxXB5bG_pad-13" x="143127.5" y="-99205"/><use xlink:href="#RI76HZESKl_StvxXB5bG_pad-13" x="143127.5" y="-97935"/><use xlink:href="#RI76HZESKl_StvxXB5bG_pad-13" x="143127.5" y="-96665"/><use xlink:href="#RI76HZESKl_StvxXB5bG_pad-12" x="141375" y="-94907.5"/><use xlink:href="#RI76HZESKl_StvxXB5bG_pad-12" x="140105" y="-94907.5"/><use xlink:href="#RI76HZESKl_StvxXB5bG_pad-12" x="138835" y="-94907.5"/></g><g id="P82OxhQsCQfkmswdxv9p_top_soldermask"><use xlink:href="#pr6-HR2G_pHJ7JTvoeHa_pad-10" x="128691.24" y="-123993.407"/><use xlink:href="#pr6-HR2G_pHJ7JTvoeHa_pad-11" x="112902.5" y="-95370"/><use xlink:href="#pr6-HR2G_pHJ7JTvoeHa_pad-11" x="109977.5" y="-95370"/><use xlink:href="#pr6-HR2G_pHJ7JTvoeHa_pad-12" x="105291.24" y="-135183.407"/><use xlink:href="#pr6-HR2G_pHJ7JTvoeHa_pad-13" x="106941.24" y="-134933.407"/><use xlink:href="#pr6-HR2G_pHJ7JTvoeHa_pad-13" x="108441.24" y="-134933.407"/><use xlink:href="#pr6-HR2G_pHJ7JTvoeHa_pad-13" x="109941.24" y="-134933.407"/><use xlink:href="#pr6-HR2G_pHJ7JTvoeHa_pad-13" x="111441.24" y="-134933.407"/><use xlink:href="#pr6-HR2G_pHJ7JTvoeHa_pad-13" x="112941.24" y="-134933.407"/><use xlink:href="#pr6-HR2G_pHJ7JTvoeHa_pad-13" x="114441.24" y="-134933.407"/><use xlink:href="#pr6-HR2G_pHJ7JTvoeHa_pad-13" x="115941.24" y="-134933.407"/><use xlink:href="#pr6-HR2G_pHJ7JTvoeHa_pad-13" x="117441.24" y="-134933.407"/><use xlink:href="#pr6-HR2G_pHJ7JTvoeHa_pad-13" x="118941.24" y="-134933.407"/><use xlink:href="#pr6-HR2G_pHJ7JTvoeHa_pad-13" x="120441.24" y="-134933.407"/><use xlink:href="#pr6-HR2G_pHJ7JTvoeHa_pad-13" x="121941.24" y="-134933.407"/><use xlink:href="#pr6-HR2G_pHJ7JTvoeHa_pad-13" x="123441.24" y="-134933.407"/><use xlink:href="#pr6-HR2G_pHJ7JTvoeHa_pad-13" x="124941.24" y="-134933.407"/><use xlink:href="#pr6-HR2G_pHJ7JTvoeHa_pad-13" x="126441.24" y="-134933.407"/><use xlink:href="#pr6-HR2G_pHJ7JTvoeHa_pad-13" x="127941.24" y="-134933.407"/><use xlink:href="#pr6-HR2G_pHJ7JTvoeHa_pad-13" x="129441.24" y="-134933.407"/><use xlink:href="#pr6-HR2G_pHJ7JTvoeHa_pad-13" x="130941.24" y="-134933.407"/><use xlink:href="#pr6-HR2G_pHJ7JTvoeHa_pad-13" x="132441.24" y="-134933.407"/><use xlink:href="#pr6-HR2G_pHJ7JTvoeHa_pad-13" x="133941.24" y="-134933.407"/><use xlink:href="#pr6-HR2G_pHJ7JTvoeHa_pad-13" x="135441.24" y="-134933.407"/><use xlink:href="#pr6-HR2G_pHJ7JTvoeHa_pad-13" x="136941.24" y="-134933.407"/><use xlink:href="#pr6-HR2G_pHJ7JTvoeHa_pad-13" x="138441.24" y="-134933.407"/><use xlink:href="#pr6-HR2G_pHJ7JTvoeHa_pad-13" x="139941.24" y="-134933.407"/><use xlink:href="#pr6-HR2G_pHJ7JTvoeHa_pad-13" x="141441.24" y="-134933.407"/><use xlink:href="#pr6-HR2G_pHJ7JTvoeHa_pad-13" x="142941.24" y="-134933.407"/><use xlink:href="#pr6-HR2G_pHJ7JTvoeHa_pad-13" x="144441.24" y="-134933.407"/><use xlink:href="#pr6-HR2G_pHJ7JTvoeHa_pad-13" x="145941.24" y="-134933.407"/><use xlink:href="#pr6-HR2G_pHJ7JTvoeHa_pad-13" x="147441.24" y="-134933.407"/><use xlink:href="#pr6-HR2G_pHJ7JTvoeHa_pad-13" x="148941.24" y="-134933.407"/><use xlink:href="#pr6-HR2G_pHJ7JTvoeHa_pad-13" x="150441.24" y="-134933.407"/><use xlink:href="#pr6-HR2G_pHJ7JTvoeHa_pad-12" x="152091.24" y="-135183.407"/><use xlink:href="#pr6-HR2G_pHJ7JTvoeHa_pad-14" x="110090" y="-89120"/><use xlink:href="#pr6-HR2G_pHJ7JTvoeHa_pad-14" x="112790" y="-89120"/><use xlink:href="#pr6-HR2G_pHJ7JTvoeHa_pad-15" x="137565" y="-94907.5"/><use xlink:href="#pr6-HR2G_pHJ7JTvoeHa_pad-15" x="136295" y="-94907.5"/><use xlink:href="#pr6-HR2G_pHJ7JTvoeHa_pad-15" x="135025" y="-94907.5"/><use xlink:href="#pr6-HR2G_pHJ7JTvoeHa_pad-15" x="133755" y="-94907.5"/><use xlink:href="#pr6-HR2G_pHJ7JTvoeHa_pad-16" x="132002.5" y="-96665"/><use xlink:href="#pr6-HR2G_pHJ7JTvoeHa_pad-16" x="132002.5" y="-97935"/><use xlink:href="#pr6-HR2G_pHJ7JTvoeHa_pad-16" x="132002.5" y="-99205"/><use xlink:href="#pr6-HR2G_pHJ7JTvoeHa_pad-16" x="132002.5" y="-100475"/><use xlink:href="#pr6-HR2G_pHJ7JTvoeHa_pad-16" x="132002.5" y="-101745"/><use xlink:href="#pr6-HR2G_pHJ7JTvoeHa_pad-16" x="132002.5" y="-103015"/><use xlink:href="#pr6-HR2G_pHJ7JTvoeHa_pad-16" x="132002.5" y="-104285"/><use xlink:href="#pr6-HR2G_pHJ7JTvoeHa_pad-16" x="132002.5" y="-105555"/><use xlink:href="#pr6-HR2G_pHJ7JTvoeHa_pad-16" x="132002.5" y="-106825"/><use xlink:href="#pr6-HR2G_pHJ7JTvoeHa_pad-15" x="133755" y="-108582.5"/><use xlink:href="#pr6-HR2G_pHJ7JTvoeHa_pad-15" x="135025" y="-108582.5"/><use xlink:href="#pr6-HR2G_pHJ7JTvoeHa_pad-15" x="136295" y="-108582.5"/><use xlink:href="#pr6-HR2G_pHJ7JTvoeHa_pad-15" x="137565" y="-108582.5"/><use xlink:href="#pr6-HR2G_pHJ7JTvoeHa_pad-15" x="138835" y="-108582.5"/><use xlink:href="#pr6-HR2G_pHJ7JTvoeHa_pad-15" x="140105" y="-108582.5"/><use xlink:href="#pr6-HR2G_pHJ7JTvoeHa_pad-15" x="141375" y="-108582.5"/><use xlink:href="#pr6-HR2G_pHJ7JTvoeHa_pad-16" x="143127.5" y="-106825"/><use xlink:href="#pr6-HR2G_pHJ7JTvoeHa_pad-16" x="143127.5" y="-105555"/><use xlink:href="#pr6-HR2G_pHJ7JTvoeHa_pad-16" x="143127.5" y="-104285"/><use xlink:href="#pr6-HR2G_pHJ7JTvoeHa_pad-16" x="143127.5" y="-103015"/><use xlink:href="#pr6-HR2G_pHJ7JTvoeHa_pad-16" x="143127.5" y="-101745"/><use xlink:href="#pr6-HR2G_pHJ7JTvoeHa_pad-16" x="143127.5" y="-100475"/><use xlink:href="#pr6-HR2G_pHJ7JTvoeHa_pad-16" x="143127.5" y="-99205"/><use xlink:href="#pr6-HR2G_pHJ7JTvoeHa_pad-16" x="143127.5" y="-97935"/><use xlink:href="#pr6-HR2G_pHJ7JTvoeHa_pad-16" x="143127.5" y="-96665"/><use xlink:href="#pr6-HR2G_pHJ7JTvoeHa_pad-15" x="141375" y="-94907.5"/><use xlink:href="#pr6-HR2G_pHJ7JTvoeHa_pad-15" x="140105" y="-94907.5"/><use xlink:href="#pr6-HR2G_pHJ7JTvoeHa_pad-15" x="138835" y="-94907.5"/></g><g id="P82OxhQsCQfkmswdxv9p_top_silkscreen"><g mask="url(#ryCletDWbBGYFdRxWWfl_clear-1)"><path d="M 105831.24 -131373.407 150916.24 -131373.407" fill="none" stroke-width="120"/><path d="M 131803.095 -83697.38 131803.095 -82697.38 132041.19 -82697.38 132184.047 -82745 132279.285 -82840.238 132326.904 -82935.476 132374.523 -83125.952 132374.523 -83268.809 132326.904 -83459.285 132279.285 -83554.523 132184.047 -83649.761 132041.19 -83697.38 131803.095 -83697.38 M 132945.952 -83697.38 132850.714 -83649.761 132803.095 -83602.142 132755.476 -83506.904 132755.476 -83221.19 132803.095 -83125.952 132850.714 -83078.333 132945.952 -83030.714 133088.809 -83030.714 133184.047 -83078.333 133231.666 -83125.952 133279.285 -83221.19 133279.285 -83506.904 133231.666 -83602.142 133184.047 -83649.761 133088.809 -83697.38 132945.952 -83697.38 M 133850.714 -83697.38 133755.476 -83649.761 133707.857 -83602.142 133660.238 -83506.904 133660.238 -83221.19 133707.857 -83125.952 133755.476 -83078.333 133850.714 -83030.714 133993.571 -83030.714 134088.809 -83078.333 134136.428 -83125.952 134184.047 -83221.19 134184.047 -83506.904 134136.428 -83602.142 134088.809 -83649.761 133993.571 -83697.38 133850.714 -83697.38 M 135374.523 -83697.38 135374.523 -83030.714 M 135374.523 -82697.38 135326.904 -82745 135374.523 -82792.619 135422.142 -82745 135374.523 -82697.38 135374.523 -82792.619 M 135707.857 -83030.714 136088.809 -83030.714 M 135850.714 -82697.38 135850.714 -83554.523 135898.333 -83649.761 135993.571 -83697.38 136088.809 -83697.38 M 137041.19 -83030.714 137422.142 -83030.714 M 137184.047 -83697.38 137184.047 -82840.238 137231.666 -82745 137326.904 -82697.38 137422.142 -82697.38 M 137898.333 -83697.38 137803.095 -83649.761 137755.476 -83602.142 137707.857 -83506.904 137707.857 -83221.19 137755.476 -83125.952 137803.095 -83078.333 137898.333 -83030.714 138041.19 -83030.714 138136.428 -83078.333 138184.047 -83125.952 138231.666 -83221.19 138231.666 -83506.904 138184.047 -83602.142 138136.428 -83649.761 138041.19 -83697.38 137898.333 -83697.38 M 138660.238 -83697.38 138660.238 -83030.714 M 138660.238 -83221.19 138707.857 -83125.952 138755.476 -83078.333 138850.714 -83030.714 138945.952 -83030.714 M 139898.333 -83030.714 140279.285 -83030.714 M 140041.19 -82697.38 140041.19 -83554.523 140088.809 -83649.761 140184.047 -83697.38 140279.285 -83697.38 M 140612.619 -83697.38 140612.619 -82697.38 M 141041.19 -83697.38 141041.19 -83173.571 140993.571 -83078.333 140898.333 -83030.714 140755.476 -83030.714 140660.238 -83078.333 140612.619 -83125.952 M 141898.333 -83649.761 141803.095 -83697.38 141612.619 -83697.38 141517.38 -83649.761 141469.761 -83554.523 141469.761 -83173.571 141517.38 -83078.333 141612.619 -83030.714 141803.095 -83030.714 141898.333 -83078.333 141945.952 -83173.571 141945.952 -83268.809 141469.761 -83364.047 M 143136.428 -83697.38 143136.428 -82697.38 143517.38 -82697.38 143612.619 -82745 143660.238 -82792.619 143707.857 -82887.857 143707.857 -83030.714 143660.238 -83125.952 143612.619 -83173.571 143517.38 -83221.19 143136.428 -83221.19 M 144136.428 -83697.38 144136.428 -83030.714 M 144136.428 -82697.38 144088.809 -82745 144136.428 -82792.619 144184.047 -82745 144136.428 -82697.38 144136.428 -82792.619 M 145041.19 -83030.714 145041.19 -83840.238 144993.571 -83935.476 144945.952 -83983.095 144850.714 -84030.714 144707.857 -84030.714 144612.619 -83983.095 M 145041.19 -83649.761 144945.952 -83697.38 144755.476 -83697.38 144660.238 -83649.761 144612.619 -83602.142 144565 -83506.904 144565 -83221.19 144612.619 -83125.952 144660.238 -83078.333 144755.476 -83030.714 144945.952 -83030.714 145041.19 -83078.333 M 145469.761 -83649.761 145565 -83697.38 145755.476 -83697.38 145850.714 -83649.761 145898.333 -83554.523 145898.333 -83506.904 145850.714 -83411.666 145755.476 -83364.047 145612.619 -83364.047 145517.38 -83316.428 145469.761 -83221.19 145469.761 -83173.571 145517.38 -83078.333 145612.619 -83030.714 145755.476 -83030.714 145850.714 -83078.333 M 146326.904 -83602.142 146374.523 -83649.761 146326.904 -83697.38 146279.285 -83649.761 146326.904 -83602.142 146326.904 -83697.38 M 146326.904 -83316.428 146279.285 -82745 146326.904 -82697.38 146374.523 -82745 146326.904 -83316.428 146326.904 -82697.38 M 113451.904 -82697.38 113690 -83697.38 113880.476 -82983.095 114070.952 -83697.38 114309.047 -82697.38 M 114690 -83697.38 114690 -83030.714 M 114690 -82697.38 114642.38 -82745 114690 -82792.619 114737.619 -82745 114690 -82697.38 114690 -82792.619 M 115309.047 -83697.38 115213.809 -83649.761 115166.19 -83554.523 115166.19 -82697.38 M 115832.857 -83697.38 115737.619 -83649.761 115690 -83554.523 115690 -82697.38 M 116118.571 -83030.714 116356.666 -83697.38 M 116594.761 -83030.714 116356.666 -83697.38 116261.428 -83935.476 116213.809 -83983.095 116118.571 -84030.714 M 117737.619 -83697.38 117737.619 -82697.38 117975.714 -82697.38 118118.571 -82745 118213.809 -82840.238 118261.428 -82935.476 118309.047 -83125.952 118309.047 -83268.809 118261.428 -83459.285 118213.809 -83554.523 118118.571 -83649.761 117975.714 -83697.38 117737.619 -83697.38 M 118880.476 -83697.38 118785.238 -83649.761 118737.619 -83602.142 118690 -83506.904 118690 -83221.19 118737.619 -83125.952 118785.238 -83078.333 118880.476 -83030.714 119023.333 -83030.714 119118.571 -83078.333 119166.19 -83125.952 119213.809 -83221.19 119213.809 -83506.904 119166.19 -83602.142 119118.571 -83649.761 119023.333 -83697.38 118880.476 -83697.38 M 119785.238 -83697.38 119690 -83649.761 119642.38 -83602.142 119594.761 -83506.904 119594.761 -83221.19 119642.38 -83125.952 119690 -83078.333 119785.238 -83030.714 119928.095 -83030.714 120023.333 -83078.333 120070.952 -83125.952 120118.571 -83221.19 120118.571 -83506.904 120070.952 -83602.142 120023.333 -83649.761 119928.095 -83697.38 119785.238 -83697.38 M 121309.047 -83697.38 121309.047 -82697.38 121547.142 -82697.38 121690 -82745 121785.238 -82840.238 121832.857 -82935.476 121880.476 -83125.952 121880.476 -83268.809 121832.857 -83459.285 121785.238 -83554.523 121690 -83649.761 121547.142 -83697.38 121309.047 -83697.38 M 122309.047 -83697.38 122309.047 -82697.38 122642.38 -83411.666 122975.714 -82697.38 122975.714 -83697.38 M 123975.714 -82745 123880.476 -82697.38 123737.619 -82697.38 123594.761 -82745 123499.523 -82840.238 123451.904 -82935.476 123404.285 -83125.952 123404.285 -83268.809 123451.904 -83459.285 123499.523 -83554.523 123594.761 -83649.761 123737.619 -83697.38 123832.857 -83697.38 123975.714 -83649.761 124023.333 -83602.142 124023.333 -83268.809 123832.857 -83268.809 M 125785.238 -83602.142 125737.619 -83649.761 125594.761 -83697.38 125499.523 -83697.38 125356.666 -83649.761 125261.428 -83554.523 125213.809 -83459.285 125166.19 -83268.809 125166.19 -83125.952 125213.809 -82935.476 125261.428 -82840.238 125356.666 -82745 125499.523 -82697.38 125594.761 -82697.38 125737.619 -82745 125785.238 -82792.619 M 126642.38 -83697.38 126642.38 -83173.571 126594.761 -83078.333 126499.523 -83030.714 126309.047 -83030.714 126213.809 -83078.333 M 126642.38 -83649.761 126547.142 -83697.38 126309.047 -83697.38 126213.809 -83649.761 126166.19 -83554.523 126166.19 -83459.285 126213.809 -83364.047 126309.047 -83316.428 126547.142 -83316.428 126642.38 -83268.809 M 127118.571 -83697.38 127118.571 -83030.714 M 127118.571 -83221.19 127166.19 -83125.952 127213.809 -83078.333 127309.047 -83030.714 127404.285 -83030.714 M 127594.761 -83030.714 127975.714 -83030.714 M 127737.619 -82697.38 127737.619 -83554.523 127785.238 -83649.761 127880.476 -83697.38 127975.714 -83697.38 M 111148.333 -94072.38 110815 -93596.19 M 110576.904 -94072.38 110576.904 -93072.38 110957.857 -93072.38 111053.095 -93120 111100.714 -93167.619 111148.333 -93262.857 111148.333 -93405.714 111100.714 -93500.952 111053.095 -93548.571 110957.857 -93596.19 110576.904 -93596.19 M 112100.714 -94072.38 111529.285 -94072.38 M 111815 -94072.38 111815 -93072.38 111719.761 -93215.238 111624.523 -93310.476 111529.285 -93358.095 M 105276.954 -131135.787 104705.525 -131135.787 M 104991.24 -131135.787 104991.24 -130135.787 104896.001 -130278.645 104800.763 -130373.883 104705.525 -130421.502 M 151081.716 -130135.787 151700.763 -130135.787 151367.43 -130516.74 151510.287 -130516.74 151605.525 -130564.359 151653.144 -130611.978 151700.763 -130707.216 151700.763 -130945.311 151653.144 -131040.549 151605.525 -131088.168 151510.287 -131135.787 151224.573 -131135.787 151129.335 -131088.168 151081.716 -131040.549 M 152081.716 -130231.026 152129.335 -130183.407 152224.573 -130135.787 152462.668 -130135.787 152557.906 -130183.407 152605.525 -130231.026 152653.144 -130326.264 152653.144 -130421.502 152605.525 -130564.359 152034.097 -131135.787 152653.144 -131135.787 M 111273.333 -87727.142 111225.714 -87774.761 111082.857 -87822.38 110987.619 -87822.38 110844.761 -87774.761 110749.523 -87679.523 110701.904 -87584.285 110654.285 -87393.809 110654.285 -87250.952 110701.904 -87060.476 110749.523 -86965.238 110844.761 -86870 110987.619 -86822.38 111082.857 -86822.38 111225.714 -86870 111273.333 -86917.619 M 112225.714 -87822.38 111654.285 -87822.38 M 111940 -87822.38 111940 -86822.38 111844.761 -86965.238 111749.523 -87060.476 111654.285 -87108.095 M 136803.095 -92677.38 136803.095 -93486.904 136850.714 -93582.142 136898.333 -93629.761 136993.571 -93677.38 137184.047 -93677.38 137279.285 -93629.761 137326.904 -93582.142 137374.523 -93486.904 137374.523 -92677.38 M 138374.523 -93677.38 137803.095 -93677.38 M 138088.809 -93677.38 138088.809 -92677.38 137993.571 -92820.238 137898.333 -92915.476 137803.095 -92963.095" fill="none" stroke-width="150"/><path d="M 112167.064 -94460 110712.936 -94460 M 112167.064 -96280 110712.936 -96280 M 109130 -90055 113040 -90055 M 109130 -88185 109130 -90055 M 113040 -88185 109130 -88185 M 128675 -91585 146455 -91585 M 131740 -108840 131740 -107385 M 141935 -94650 143390 -94650 M 133195 -108840 131740 -108840 M 128675 -111905 128675 -91585 M 146455 -111905 128675 -111905 M 143390 -108840 143390 -107385 M 131740 -95822.218 131740 -96105 M 146455 -91585 146455 -111905 M 141935 -108840 143390 -108840 M 143390 -94650 143390 -96105 M 133195 -94650 132912.218 -94650 131740 -95822.218" fill="none" stroke-width="120"/></g></g><g id="P82OxhQsCQfkmswdxv9p_top_drill1"><use xlink:href="#sykJNG5iHLCmqrjWIfYm_pad-1" x="128691" y="-123993"/></g><g id="P82OxhQsCQfkmswdxv9p_top_drill2"><use xlink:href="#w5P2NZdVDMfVy2qzJvUI_pad-1" x="107940" y="-91620"/><use xlink:href="#w5P2NZdVDMfVy2qzJvUI_pad-1" x="114440" y="-103620"/><use xlink:href="#w5P2NZdVDMfVy2qzJvUI_pad-1" x="114440" y="-114370"/><use xlink:href="#w5P2NZdVDMfVy2qzJvUI_pad-1" x="115929" y="-102300"/><use xlink:href="#w5P2NZdVDMfVy2qzJvUI_pad-1" x="115940" y="-114370"/><use xlink:href="#w5P2NZdVDMfVy2qzJvUI_pad-1" x="117440" y="-101020"/><use xlink:href="#w5P2NZdVDMfVy2qzJvUI_pad-1" x="117440" y="-114370"/><use xlink:href="#w5P2NZdVDMfVy2qzJvUI_pad-1" x="118940" y="-99751"/><use xlink:href="#w5P2NZdVDMfVy2qzJvUI_pad-1" x="118940" y="-114370"/><use xlink:href="#w5P2NZdVDMfVy2qzJvUI_pad-1" x="120440" y="-98370"/><use xlink:href="#w5P2NZdVDMfVy2qzJvUI_pad-1" x="120440" y="-114370"/><use xlink:href="#w5P2NZdVDMfVy2qzJvUI_pad-1" x="121940" y="-97210"/><use xlink:href="#w5P2NZdVDMfVy2qzJvUI_pad-1" x="121940" y="-114370"/><use xlink:href="#w5P2NZdVDMfVy2qzJvUI_pad-1" x="123440" y="-95870"/><use xlink:href="#w5P2NZdVDMfVy2qzJvUI_pad-1" x="123440" y="-114370"/><use xlink:href="#w5P2NZdVDMfVy2qzJvUI_pad-1" x="124690" y="-114370"/><use xlink:href="#w5P2NZdVDMfVy2qzJvUI_pad-1" x="130190" y="-93370"/><use xlink:href="#w5P2NZdVDMfVy2qzJvUI_pad-1" x="132690" y="-117620"/><use xlink:href="#w5P2NZdVDMfVy2qzJvUI_pad-1" x="133690" y="-119120"/><use xlink:href="#w5P2NZdVDMfVy2qzJvUI_pad-1" x="134690" y="-121120"/><use xlink:href="#w5P2NZdVDMfVy2qzJvUI_pad-1" x="134940" y="-93120"/><use xlink:href="#w5P2NZdVDMfVy2qzJvUI_pad-1" x="135440" y="-100620"/><use xlink:href="#w5P2NZdVDMfVy2qzJvUI_pad-1" x="135690" y="-122620"/><use xlink:href="#w5P2NZdVDMfVy2qzJvUI_pad-1" x="135690" y="-128870"/><use xlink:href="#w5P2NZdVDMfVy2qzJvUI_pad-1" x="135690" y="-130370"/><use xlink:href="#w5P2NZdVDMfVy2qzJvUI_pad-1" x="136190" y="-93120"/><use xlink:href="#w5P2NZdVDMfVy2qzJvUI_pad-1" x="136690" y="-111120"/><use xlink:href="#w5P2NZdVDMfVy2qzJvUI_pad-1" x="138940" y="-88620"/><use xlink:href="#w5P2NZdVDMfVy2qzJvUI_pad-1" x="139940" y="-103120"/><use xlink:href="#w5P2NZdVDMfVy2qzJvUI_pad-1" x="140440" y="-96620"/><use xlink:href="#w5P2NZdVDMfVy2qzJvUI_pad-1" x="140690" y="-98120"/><use xlink:href="#w5P2NZdVDMfVy2qzJvUI_pad-1" x="141190" y="-101020"/><use xlink:href="#w5P2NZdVDMfVy2qzJvUI_pad-1" x="141440" y="-92145"/><use xlink:href="#w5P2NZdVDMfVy2qzJvUI_pad-1" x="150190" y="-119870"/></g><clipPath id="P82OxhQsCQfkmswdxv9p_top_outline"><path d="M 103505 -78195 149905 -78195 A 500 500 0 0 0 150405 -78695 L 150405 -80795 153905 -80795 A 500 500 0 0 0 154405 -81295 L 154405 -130095 A 500 500 0 0 0 153905 -130595 L 153305 -130595 153305 -138295 A 900 900 0 0 0 152405 -139195 L 105005 -139195 A 900 900 0 0 0 104105 -138295 L 104105 -130595 103505 -130595 A 500 500 0 0 0 103005 -130095 L 103005 -78695 A 500 500 0 0 0 103505 -78195" fill="none" stroke-width="150"/></clipPath><mask id="P82OxhQsCQfkmswdxv9p_top_mech-mask"><g fill="#000" stroke="#000"><rect x="103005" y="-139195" width="51400" height="61000" fill="#fff"/><use xlink:href="#P82OxhQsCQfkmswdxv9p_top_drill1"/><use xlink:href="#P82OxhQsCQfkmswdxv9p_top_drill2"/></g></mask><mask id="P82OxhQsCQfkmswdxv9p_top_cf-mask"><g fill="#fff" stroke="#fff"><use xlink:href="#P82OxhQsCQfkmswdxv9p_top_soldermask"/></g></mask><mask id="P82OxhQsCQfkmswdxv9p_top_sm-mask"><g fill="#000" stroke="#000"><rect x="103005" y="-139195" width="51400" height="61000" fill="#fff"/><use xlink:href="#P82OxhQsCQfkmswdxv9p_top_soldermask"/></g></mask></defs><g transform="translate(0,-217390) scale(1,-1)"><g mask="url(#P82OxhQsCQfkmswdxv9p_top_mech-mask)" clip-path="url(#P82OxhQsCQfkmswdxv9p_top_outline)"><rect x="103005" y="-139195" width="51400" height="61000" fill="currentColor" class="P82OxhQsCQfkmswdxv9p_fr4"/><use xlink:href="#P82OxhQsCQfkmswdxv9p_top_copper" fill="currentColor" stroke="currentColor" class="P82OxhQsCQfkmswdxv9p_cu"/><use xlink:href="#P82OxhQsCQfkmswdxv9p_top_copper" fill="currentColor" stroke="currentColor" class="P82OxhQsCQfkmswdxv9p_cf" mask="url(#P82OxhQsCQfkmswdxv9p_top_cf-mask)"/><g mask="url(#P82OxhQsCQfkmswdxv9p_top_sm-mask)"><rect x="103005" y="-139195" width="51400" height="61000" fill="currentColor" class="P82OxhQsCQfkmswdxv9p_sm"/><use xlink:href="#P82OxhQsCQfkmswdxv9p_top_silkscreen" fill="currentColor" stroke="currentColor" class="P82OxhQsCQfkmswdxv9p_ss"/></g><use xlink:href="#P82OxhQsCQfkmswdxv9p_top_solderpaste" fill="currentColor" stroke="currentColor" class="P82OxhQsCQfkmswdxv9p_sp"/></g></g></svg>